<?xml version="1.0" encoding="utf-8"?>
<!-- Generator: Adobe Illustrator 16.0.0, SVG Export Plug-In . SVG Version: 6.00 Build 0)  -->
<svg version="1.2" baseProfile="tiny" id="Layer_1" xmlns="http://www.w3.org/2000/svg" xmlns:xlink="http://www.w3.org/1999/xlink"
	 x="0px" y="0px" width="356.667px" height="250.667px" viewBox="0 0 356.667 250.667" xml:space="preserve">
<g>
	<path fill-rule="evenodd" d="M213.494,125.717c7.513,7.713,14.867,15.264,22.428,23.025c-0.762,0.72-1.413,1.38-2.11,1.987
		c-11.898,10.358-25.648,16.688-41.281,18.858c-13.72,1.904-27.278,1.254-40.575-2.863c-28.006-8.673-49.787-33.091-55.105-61.962
		c-3.028-16.436-2.125-32.643,3.621-48.442c8.206-22.563,30.764-46.938,63.921-51.533c16.376-2.27,32.382-1.05,47.806,5.304
		c8.518,3.509,16.101,8.492,22.918,14.669c0.527,0.478,1.127,0.877,1.95,1.512c-8.134,7.456-15.949,14.62-23.878,21.889
		c-0.67-0.564-1.277-1.055-1.861-1.571c-8.033-7.109-17.506-10.72-28.117-11.469c-6.99-0.494-13.919-0.057-20.642,2.088
		c-12.986,4.145-22.218,12.692-28.309,24.696c-8.266,16.29-7.528,38.521,1.846,53.901c9.14,14.998,22.577,22.861,40.178,23.517
		c9.106,0.339,17.846-1.066,26.007-5.33C206.362,131.868,209.98,129.122,213.494,125.717z"/>
	<path fill-rule="evenodd" d="M241.088,143.19c-7.511-7.716-15.021-15.431-22.51-23.125c14.02-18.473,12.932-48.92-0.411-66.188
		c7.899-7.241,15.82-14.502,23.737-21.759C268.688,59.302,269.207,115.22,241.088,143.19z"/>
	<path fill-rule="evenodd" d="M106.251,226.088c-0.02,12.405-9.35,21.695-21.746,21.653c-12.41-0.042-21.602-9.342-21.667-21.757
		c-0.065-12.543,10.032-21.688,21.766-21.674C95.811,204.325,106.383,212.97,106.251,226.088z M97.413,226.042
		c0-0.559,0.034-1.119-0.005-1.675c-0.417-5.928-4.93-10.929-10.527-11.68c-6.921-0.929-12.488,2.313-14.51,8.536
		c-0.415,1.276-0.667,2.637-0.774,3.977c-0.517,6.47,3.5,12.403,9.346,13.923C89.833,241.436,97.452,235.4,97.413,226.042z"/>
	<path fill-rule="evenodd" d="M322.149,247.596c0-14.337,0-28.539,0-42.741c1.694-0.577,25.354-0.821,31.59-0.295
		c0.194,2.46,0.083,4.97,0.056,7.788c-2.621,0.236-5.147,0.088-7.663,0.114c-2.479,0.026-4.958,0.006-7.437,0.006
		c-2.55,0-5.1,0-7.823,0c0,3.118,0,6.019,0,9.154c5.659,0,11.226,0,16.965,0c0,2.808,0,5.384,0,8.198c-5.68,0-11.248,0-16.978,0
		c0,3.304,0,6.373,0,9.673c7.544,0,15.024,0,22.798,0c0.21,2.794,0.116,5.372,0.056,8.103
		C343.181,247.596,332.817,247.596,322.149,247.596z"/>
	<path fill-rule="evenodd" d="M35.266,235.62c1.771,1.939,3.387,3.703,4.992,5.478c0.202,0.224,0.343,0.501,0.6,0.884
		c-2.755,2.537-5.902,4.17-9.452,4.976c-8.744,1.986-16.546,0.39-22.731-6.485c-9.991-11.104-5.905-31.972,11.732-35.636
		c6.568-1.364,12.886-0.226,18.527,3.678c0.648,0.449,1.243,0.976,2.083,1.64c-1.962,2.152-3.826,4.195-5.727,6.281
		c-0.805-0.483-1.477-0.898-2.161-1.295c-3.478-2.019-7.251-2.506-11.123-1.786c-6.188,1.151-10.274,6.674-9.904,13.112
		c0.36,6.269,3.731,10.78,9.118,12.069c4.481,1.073,8.722,0.43,12.652-2.035C34.274,236.248,34.674,235.994,35.266,235.62z"/>
	<path fill-rule="evenodd" d="M298,210.229c-1.898,2.077-3.72,4.071-5.634,6.166c-0.68-0.39-1.289-0.721-1.88-1.081
		c-3.437-2.096-7.192-2.617-11.088-2.035c-4.938,0.736-8.682,4.348-9.836,9.277c-0.673,2.874-0.521,5.717,0.465,8.493
		c1.961,5.521,7.498,8.654,13.85,7.897c2.996-0.356,5.731-1.372,8.39-3.363c1.885,2.053,3.753,4.087,5.611,6.11
		c-4.752,5.876-20.022,9.53-30.061,0.929c-9.329-7.993-9.275-22.79-2.265-30.918C274.487,201.35,290.609,203.052,298,210.229z"/>
	<path fill-rule="evenodd" d="M136.172,229.747c0,6.171,0,11.903,0,17.816c-2.944,0-5.699,0-8.627,0c0-14.267,0-28.545,0-42.992
		c10.021,0,19.984,0,30.27,0c0.157,2.468,0.065,4.983,0.046,7.818c-7.187,0.195-14.267-0.017-21.511,0.125c0,3.041,0,5.951,0,9.133
		c5.208,0,10.369,0,15.673,0c0,2.787,0,5.31,0,8.1C146.847,229.747,141.686,229.747,136.172,229.747z"/>
	<path fill-rule="evenodd" d="M209.456,204.692c0,0.892,0,1.833,0,2.773c0,1.577,0,3.154,0,4.988c-7.369,0-14.451,0-21.685,0
		c0,3.109,0,5.956,0,9.153c5.201,0.198,10.441-0.026,15.84,0.13c0,2.665,0,5.179,0,7.994c-2.602,0.228-5.216,0.08-7.818,0.106
		c-2.623,0.026-5.247,0.006-8.146,0.006c0,6.019,0,11.813,0,17.752c-2.958,0-5.639,0-8.319,0
		c-0.486-1.707-0.676-38.597-0.222-42.799C180.793,204.318,206.398,204.189,209.456,204.692z"/>
	<path fill-rule="evenodd" d="M238.998,247.665c-2.914,0-5.535,0-8.14,0c-0.535-1.658-0.729-39.434-0.215-43.195
		c2.73,0,5.482,0,8.354,0C238.998,218.875,238.998,233.152,238.998,247.665z"/>
</g>
</svg>
