<?xml version="1.0" encoding="UTF-8" standalone="no"?>
<!-- Created with Inkscape (http://www.inkscape.org/) -->

<svg
   xmlns:dc="http://purl.org/dc/elements/1.1/"
   xmlns:cc="http://creativecommons.org/ns#"
   xmlns:rdf="http://www.w3.org/1999/02/22-rdf-syntax-ns#"
   xmlns:svg="http://www.w3.org/2000/svg"
   xmlns="http://www.w3.org/2000/svg"
   xmlns:sodipodi="http://sodipodi.sourceforge.net/DTD/sodipodi-0.dtd"
   xmlns:inkscape="http://www.inkscape.org/namespaces/inkscape"
   version="1.1"
   id="svg3718"
   xml:space="preserve"
   width="7560"
   height="3010.6667"
   viewBox="0 0 7560 3010.6667"
   sodipodi:docname="melon.svg"
   inkscape:version="0.92.2 5c3e80d, 2017-08-06"><metadata
     id="metadata3724"><rdf:RDF><cc:Work
         rdf:about=""><dc:format>image/svg+xml</dc:format><dc:type
           rdf:resource="http://purl.org/dc/dcmitype/StillImage" /><dc:title></dc:title></cc:Work></rdf:RDF></metadata><defs
     id="defs3722" /><sodipodi:namedview
     pagecolor="#ffffff"
     bordercolor="#666666"
     borderopacity="1"
     objecttolerance="10"
     gridtolerance="10"
     guidetolerance="10"
     inkscape:pageopacity="0"
     inkscape:pageshadow="2"
     inkscape:window-width="1920"
     inkscape:window-height="1016"
     id="namedview3720"
     showgrid="false"
     inkscape:zoom="0.22724868"
     inkscape:cx="3780"
     inkscape:cy="1505.3334"
     inkscape:window-x="0"
     inkscape:window-y="30"
     inkscape:window-maximized="1"
     inkscape:current-layer="g3726" /><g
     id="g3726"
     inkscape:groupmode="layer"
     inkscape:label="ink_ext_XXXXXX"
     transform="matrix(1.3333333,0,0,-1.3333333,0,3010.6667)"><g
       id="g3728"
       transform="scale(0.1)"><g
         id="g3730"
         transform="scale(2.91527)"><path
           d="m 15472.6,4987.01 c 0,1069.56 -858.6,1928.21 -1928.2,1928.21 -1071.2,0.08 -1934.3,-855.11 -1934.3,-1928.21 0,-535.25 188.4,-991.57 565.7,-1369.4 383.2,-376.48 833.2,-565.09 1368.6,-565.09 1076.3,0.08 1928.2,860.04 1928.2,1934.49 z m 827.4,0 c 0,-1532.88 -1220.9,-2761.99 -2755.6,-2761.99 -760.4,0 -1411.4,267.42 -1952.7,808.98 -535.4,541.52 -808.8,1192.1 -808.8,1953.01 0,1532.03 1231.3,2755.03 2761.5,2755.03 1529.7,0 2755.5,-1225.24 2755.6,-2755.03"
           style="fill:#66c657;fill-opacity:1;fill-rule:evenodd;stroke:none"
           id="path3732"
           inkscape:connector-curvature="0" /></g><path
         d="m 15605.3,6938.34 c 0,-123.07 -70.8,-175.4 -195.5,-175.4 h -1950.7 c -123.9,0 -195.1,52.33 -195.1,175.4 v 4309.76 c 0,586 -212.2,1099.8 -638.5,1507.9 -424.9,425 -921.9,638.3 -1506.4,638.3 -603.6,0 -1099,-213.4 -1525.61,-638.3 -407.31,-408.1 -619.98,-921.9 -619.98,-1507.9 V 6938.34 c 0,-123.07 -70.85,-175.4 -195.94,-175.4 H 6810.33 c -124.5,0 -178.02,52.33 -178.02,175.4 v 4309.76 c 0,586 -212.44,1099.8 -638.62,1507.9 -425.23,425 -921.79,638.3 -1524.68,638.3 -585.21,0 -1082.36,-213.4 -1507.94,-638.3 -407.79,-408.1 -620.11,-921.9 -620.11,-1507.9 V 6938.34 c 0,-123.07 -70.37,-175.4 -213.15,-175.4 H 177.309 C 53.6445,6762.94 0,6815.27 0,6938.34 v 4309.76 c 0,1241 408.379,2305.9 1206.03,3174.8 815.33,886.5 1791.23,1311.5 2943.49,1311.5 1525.87,0 2695.7,-691 3528.95,-2074 36.08,-35.9 70.38,-52.8 124.85,-52.8 70.26,0.1 122.6,16.8 140.99,52.8 833.26,1383 2003.44,2074 3510.99,2074 1152.3,0 2128.6,-425 2943.4,-1311.5 815.9,-868.9 1206.6,-1933.8 1206.6,-3174.8 V 6938.34"
         style="fill:#464a5e;fill-opacity:1;fill-rule:evenodd;stroke:none"
         id="path3734"
         inkscape:connector-curvature="0" /><g
         id="g3736"
         transform="scale(1.45083)"><path
           d="m 16300,128.402 c 0,-85.4013 -36.6,-122.04518 -120.7,-122.04518 h -1344.4 c -859.9,0 -1586.7,282.78518 -2179.4,838.30018 -594.1,566.883 -896.3,1244.363 -896.3,2045.773 0,1060.47 471.3,1874.89 1416.1,2453.47 24.8,24.86 36.9,49 36.9,86.54 0,48.84 -12.1,86.31 -36.9,97.84 -944.8,580.38 -1416.1,1393.81 -1416.1,2440.95 0,801.9 302.2,1491.82 896.3,2046.17 592.8,567.1 1319.4,838.5 2179.4,838.5 l 1344.4,0.1 c 84.1,0 120.7,-36.9 120.7,-134.9 V 9362.8 c 0,-86.3 -36.6,-135.54 -120.7,-135.54 l -1344.4,0.08 c -411.5,0 -750.9,-148.39 -1041.2,-443.86 -290.9,-284.01 -436,-641.07 -436,-1048.2 0,-407.04 145.1,-764.11 436,-1046.65 290.3,-296.94 629.7,-445.24 1041.2,-445.24 l 1344.4,0.08 c 84.1,0 120.7,-48.84 120.7,-134.89 V 4752.64 c 0,-86.3 -36.6,-135.39 -120.7,-135.39 h -1344.4 c -411.5,0 -750.9,-148.3 -1041.2,-444.99 -290.9,-295.47 -436,-640.1 -436,-1046.98 0,-419.8 145.1,-764.43 436,-1060.47 290.3,-283.36 629.7,-431.75 1041.2,-431.75 h 1344.4 c 84.1,0 120.7,-49.08 120.7,-148.63 V 128.402"
           style="fill:#464a5e;fill-opacity:1;fill-rule:evenodd;stroke:none"
           id="path3738"
           inkscape:connector-curvature="0" /></g><g
         id="g3740"
         transform="scale(1.96421)"><path
           d="m 16300,3497.46 c 0,-62.23 -26.5,-88.7 -88.7,-88.7 h -3182 c -62.8,0 -89.4,26.41 -89.4,88.64 v 4435.15 c 0,71.06 26.6,97.46 89.4,97.46 h 982.7 c 72.1,0 107.6,-26.46 107.6,-97.51 V 4677.85 c 0,-53.48 27.3,-89.73 80.2,-89.73 l 2011.5,0.06 c 62.2,0 88.6,-35.65 88.6,-106.88 l 0.1,-983.84"
           style="fill:#464a5e;fill-opacity:1;fill-rule:evenodd;stroke:none"
           id="path3742"
           inkscape:connector-curvature="0" /></g><g
         id="g3744"
         transform="scale(3.47809)"><path
           d="m 14775.5,3667.54 c -122.2,-117.35 -178.4,-265.06 -178.4,-433.56 V 1994.87 c 0,-35.38 -20.3,-50.43 -60.9,-50.43 h -560.9 c -35.8,0 -51.4,15.05 -51.4,50.43 v 1239.11 c 0,356.82 112.4,662.99 346.9,912.8 464.1,504.4 1218.5,504.4 1682.7,0 234.3,-249.81 346.5,-555.98 346.5,-912.8 V 1994.87 c 0,-35.38 -15,-50.43 -50.9,-50.43 h -560.9 c -40.6,0 -61.2,15.05 -61.2,50.43 v 1239.11 c 0,168.5 -56.2,316.21 -178.4,433.56 -214,218.99 -459.1,218.99 -673.1,0"
           style="fill:#464a5e;fill-opacity:1;fill-rule:evenodd;stroke:none"
           id="path3746"
           inkscape:connector-curvature="0" /></g></g></g></svg>