<svg width="1728" height="731" viewBox="0 0 1728 731" fill="none" xmlns="http://www.w3.org/2000/svg">
<mask id="path-1-outside-1_404_2012" maskUnits="userSpaceOnUse" x="347" y="2" width="1035" height="716" fill="black">
<rect fill="white" x="347" y="2" width="1035" height="716"/>
<path d="M351.256 163.07C366.04 135.432 391.614 97.3789 421.184 79.3539C450.753 61.3289 635.364 2.04677 874.718 4.04954C1113.67 6.05232 1301.48 74.5473 1329.05 104.989C1356.62 135.432 1379 194.313 1379 194.313L1334.65 506.346C1334.65 506.346 1292.29 535.587 1243.54 551.609C1194.79 567.631 1058.13 554.813 1017.77 572.438C977.413 589.661 863.13 651.748 863.13 651.748C863.13 651.748 759.636 734.663 650.548 710.629C581.419 695.809 510.292 571.636 461.542 568.031C423.581 565.228 399.206 552.41 399.206 552.41C399.206 552.41 336.471 190.708 351.256 163.07Z"/>
</mask>
<path d="M351.256 163.07C366.04 135.432 391.614 97.3789 421.184 79.3539C450.753 61.3289 635.364 2.04677 874.718 4.04954C1113.67 6.05232 1301.48 74.5473 1329.05 104.989C1356.62 135.432 1379 194.313 1379 194.313L1334.65 506.346C1334.65 506.346 1292.29 535.587 1243.54 551.609C1194.79 567.631 1058.13 554.813 1017.77 572.438C977.413 589.661 863.13 651.748 863.13 651.748C863.13 651.748 759.636 734.663 650.548 710.629C581.419 695.809 510.292 571.636 461.542 568.031C423.581 565.228 399.206 552.41 399.206 552.41C399.206 552.41 336.471 190.708 351.256 163.07Z" fill="#FDF8ED"/>
<path d="M874.718 4.04954L874.735 2.04961V2.04961L874.718 4.04954ZM1379 194.313L1380.98 194.595L1381.05 194.085L1380.87 193.603L1379 194.313ZM1334.65 506.346L1335.78 507.992L1336.5 507.494L1336.63 506.627L1334.65 506.346ZM1017.77 572.438L1018.56 574.277L1018.56 574.274L1018.57 574.27L1017.77 572.438ZM863.13 651.748L862.175 649.99L862.019 650.075L861.879 650.187L863.13 651.748ZM650.548 710.629L650.979 708.676L650.967 708.674L650.548 710.629ZM461.542 568.031L461.69 566.037H461.69L461.542 568.031ZM399.206 552.41L397.236 552.752L397.404 553.722L398.276 554.18L399.206 552.41ZM353.019 164.013C367.776 136.427 393.14 98.7909 422.225 81.0617L420.143 77.6462C390.088 95.967 364.305 134.436 349.492 162.127L353.019 164.013ZM422.225 81.0617C429.394 76.6913 446.273 69.6661 471.473 61.6066C496.608 53.5679 529.871 44.5472 569.694 36.1483C649.343 19.3502 755.189 5.04946 874.701 6.04947L874.735 2.04961C754.893 1.04685 648.757 15.3858 568.869 32.2344C528.925 40.6588 495.53 49.7131 470.255 57.7967C445.044 65.8596 427.758 73.0041 420.143 77.6462L422.225 81.0617ZM874.701 6.04947C993.999 7.04936 1100.52 24.6482 1180.64 45.7885C1220.7 56.359 1254.14 67.8082 1279.25 78.4967C1291.81 83.8415 1302.26 88.9861 1310.41 93.7232C1318.59 98.4803 1324.33 102.757 1327.57 106.332L1330.53 103.647C1326.88 99.6117 1320.72 95.0885 1312.42 90.265C1304.09 85.4217 1293.48 80.2051 1280.82 74.8162C1255.49 64.0374 1221.87 52.5298 1181.66 41.9209C1101.25 20.7025 994.392 3.05251 874.735 2.04961L874.701 6.04947ZM1327.57 106.332C1341.16 121.335 1353.54 143.454 1362.57 161.944C1367.07 171.167 1370.71 179.444 1373.23 185.415C1374.49 188.399 1375.47 190.806 1376.13 192.465C1376.46 193.294 1376.71 193.936 1376.88 194.37C1376.96 194.586 1377.03 194.751 1377.07 194.861C1377.09 194.916 1377.11 194.957 1377.12 194.985C1377.12 194.998 1377.12 195.008 1377.13 195.015C1377.13 195.018 1377.13 195.021 1377.13 195.022C1377.13 195.023 1377.13 195.023 1377.13 195.024C1377.13 195.024 1377.13 195.024 1379 194.313C1380.87 193.603 1380.87 193.602 1380.87 193.602C1380.87 193.601 1380.87 193.6 1380.87 193.599C1380.87 193.597 1380.87 193.594 1380.86 193.59C1380.86 193.583 1380.86 193.571 1380.85 193.557C1380.84 193.527 1380.82 193.483 1380.8 193.426C1380.76 193.311 1380.69 193.142 1380.61 192.92C1380.43 192.476 1380.18 191.823 1379.84 190.983C1379.17 189.303 1378.19 186.871 1376.92 183.86C1374.38 177.839 1370.7 169.493 1366.16 160.19C1357.1 141.629 1344.52 119.086 1330.53 103.647L1327.57 106.332ZM1377.02 194.032L1332.67 506.065L1336.63 506.627L1380.98 194.595L1377.02 194.032ZM1334.65 506.346C1333.51 504.7 1333.51 504.7 1333.51 504.7C1333.51 504.7 1333.51 504.7 1333.51 504.701C1333.51 504.701 1333.51 504.703 1333.5 504.704C1333.5 504.707 1333.49 504.712 1333.48 504.719C1333.46 504.732 1333.43 504.752 1333.39 504.779C1333.31 504.833 1333.2 504.915 1333.04 505.022C1332.72 505.237 1332.25 505.555 1331.63 505.967C1330.38 506.79 1328.55 507.987 1326.2 509.475C1321.49 512.45 1314.7 516.587 1306.4 521.223C1289.78 530.5 1267.12 541.752 1242.91 549.709L1244.16 553.509C1268.7 545.443 1291.6 534.063 1308.35 524.715C1316.73 520.038 1323.58 515.864 1328.33 512.856C1330.71 511.352 1332.57 510.139 1333.84 509.301C1334.47 508.882 1334.95 508.556 1335.28 508.334C1335.44 508.224 1335.57 508.139 1335.65 508.081C1335.69 508.053 1335.73 508.031 1335.75 508.016C1335.76 508.008 1335.77 508.002 1335.77 507.998C1335.78 507.996 1335.78 507.995 1335.78 507.994C1335.78 507.993 1335.78 507.993 1335.78 507.993C1335.78 507.992 1335.78 507.992 1334.65 506.346ZM1242.91 549.709C1230.99 553.629 1213.53 555.822 1193.24 557.148C1173 558.472 1150.13 558.922 1127.46 559.423C1104.82 559.923 1082.38 560.475 1063.06 562.007C1043.82 563.534 1027.4 566.05 1016.97 570.605L1018.57 574.27C1028.32 570.013 1044.12 567.522 1063.38 565.995C1082.56 564.473 1104.89 563.923 1127.55 563.422C1150.19 562.922 1173.15 562.47 1193.5 561.14C1213.81 559.812 1231.72 557.6 1244.16 553.509L1242.91 549.709ZM1016.99 570.598C996.718 579.248 957.981 599.117 924.385 616.781C907.571 625.622 892.019 633.924 880.671 640.015C874.997 643.061 870.374 645.555 867.169 647.287C865.566 648.153 864.318 648.828 863.47 649.288C863.047 649.517 862.723 649.693 862.505 649.811C862.396 649.87 862.314 649.915 862.259 649.945C862.231 649.96 862.21 649.971 862.196 649.979C862.189 649.983 862.184 649.985 862.181 649.987C862.179 649.988 862.177 649.989 862.177 649.989C862.176 649.99 862.175 649.99 863.13 651.748C864.085 653.505 864.085 653.505 864.086 653.504C864.087 653.504 864.088 653.503 864.09 653.502C864.093 653.5 864.098 653.498 864.105 653.494C864.119 653.486 864.14 653.475 864.167 653.46C864.222 653.43 864.304 653.386 864.413 653.327C864.63 653.209 864.953 653.034 865.376 652.805C866.222 652.346 867.469 651.671 869.07 650.806C872.273 649.075 876.893 646.584 882.563 643.54C893.904 637.452 909.446 629.156 926.247 620.322C959.882 602.637 998.466 582.851 1018.56 574.277L1016.99 570.598ZM863.13 651.748C861.879 650.187 861.88 650.187 861.879 650.187C861.879 650.187 861.878 650.188 861.877 650.189C861.874 650.191 861.87 650.194 861.865 650.199C861.853 650.208 861.836 650.221 861.812 650.24C861.765 650.278 861.692 650.335 861.596 650.411C861.402 650.563 861.111 650.789 860.724 651.086C859.952 651.678 858.799 652.547 857.291 653.648C854.275 655.849 849.836 658.973 844.166 662.65C832.825 670.005 816.57 679.565 796.928 688.376C757.609 706.016 704.929 720.562 650.979 708.676L650.118 712.582C705.255 724.73 758.867 709.835 798.566 692.026C818.434 683.112 834.87 673.446 846.343 666.006C852.08 662.285 856.579 659.119 859.649 656.879C861.184 655.759 862.361 654.871 863.158 654.26C863.556 653.955 863.859 653.719 864.064 653.559C864.166 653.478 864.244 653.417 864.297 653.375C864.323 653.354 864.344 653.338 864.357 653.327C864.364 653.321 864.37 653.317 864.374 653.314C864.376 653.312 864.377 653.311 864.378 653.31C864.38 653.309 864.38 653.308 863.13 651.748ZM650.967 708.674C634.139 705.066 617.024 694.755 599.96 681.044C582.917 667.348 566.1 650.408 549.835 633.728C533.611 617.09 517.908 600.68 503.213 588.224C488.593 575.83 474.574 566.99 461.69 566.037L461.395 570.026C472.886 570.876 486.039 578.909 500.626 591.275C515.139 603.577 530.679 619.813 546.971 636.521C563.223 653.187 580.197 670.294 597.455 684.162C614.694 698.014 632.393 708.782 650.129 712.585L650.967 708.674ZM461.69 566.037C442.899 564.649 427.476 560.783 416.762 557.269C411.406 555.512 407.23 553.845 404.402 552.621C402.989 552.009 401.912 551.509 401.194 551.163C400.835 550.991 400.566 550.857 400.389 550.768C400.3 550.724 400.235 550.69 400.193 550.668C400.172 550.658 400.157 550.65 400.147 550.645C400.143 550.643 400.14 550.641 400.138 550.64C400.137 550.64 400.137 550.639 400.136 550.639C400.136 550.639 400.137 550.639 400.137 550.639C400.137 550.639 400.137 550.64 399.206 552.41C398.276 554.18 398.276 554.18 398.277 554.181C398.277 554.181 398.278 554.181 398.279 554.182C398.28 554.182 398.282 554.183 398.284 554.184C398.288 554.187 398.294 554.19 398.301 554.193C398.315 554.201 398.336 554.211 398.362 554.225C398.415 554.252 398.491 554.291 398.59 554.341C398.788 554.441 399.08 554.585 399.462 554.769C400.225 555.136 401.349 555.658 402.814 556.292C405.743 557.559 410.033 559.271 415.516 561.07C426.479 564.665 442.224 568.61 461.395 570.026L461.69 566.037ZM399.206 552.41C401.177 552.068 401.177 552.067 401.176 552.064C401.176 552.061 401.175 552.057 401.174 552.052C401.172 552.041 401.169 552.024 401.166 552.003C401.158 551.959 401.147 551.893 401.132 551.807C401.102 551.633 401.057 551.374 400.998 551.031C400.88 550.347 400.704 549.33 400.477 548.003C400.021 545.348 399.354 541.45 398.511 536.48C396.825 526.538 394.433 512.304 391.608 495.137C385.959 460.803 378.581 414.738 371.665 367.813C364.749 320.882 358.298 273.114 354.501 235.364C352.601 216.485 351.369 200.147 351.071 187.687C350.921 181.454 351.006 176.231 351.351 172.166C351.702 168.01 352.306 165.346 353.019 164.013L349.492 162.127C348.357 164.249 347.718 167.65 347.365 171.828C347.004 176.098 346.921 181.48 347.072 187.783C347.374 200.393 348.618 216.848 350.521 235.764C354.328 273.607 360.789 321.447 367.708 368.396C374.628 415.351 382.01 461.439 387.661 495.787C390.487 512.961 392.881 527.201 394.568 537.148C395.411 542.122 396.078 546.022 396.534 548.679C396.762 550.008 396.938 551.026 397.056 551.712C397.115 552.054 397.16 552.314 397.19 552.489C397.205 552.576 397.217 552.641 397.224 552.685C397.228 552.707 397.231 552.724 397.233 552.735C397.234 552.74 397.235 552.745 397.235 552.747C397.236 552.75 397.236 552.752 399.206 552.41Z" fill="#0F0D0E" mask="url(#path-1-outside-1_404_2012)"/>
<mask id="path-3-outside-2_404_2012" maskUnits="userSpaceOnUse" x="891" y="0" width="1035" height="718" fill="black">
<rect fill="white" x="891" width="1035" height="718"/>
<path d="M895.256 161.517C910.04 133.801 935.614 95.6416 965.184 77.5659C994.753 59.4902 1179.36 0.0412731 1418.72 2.04968C1657.67 4.05809 1845.48 72.7457 1873.05 103.274C1900.62 133.801 1923 192.849 1923 192.849L1878.65 505.759C1878.65 505.759 1836.29 535.082 1787.54 551.149C1738.79 567.216 1602.13 554.363 1561.77 572.037C1521.41 589.309 1407.13 651.57 1407.13 651.57C1407.13 651.57 1303.64 734.718 1194.55 710.617C1125.42 695.755 1054.29 571.233 1005.54 567.618C967.581 564.806 943.206 551.953 943.206 551.953C943.206 551.953 880.471 189.234 895.256 161.517Z"/>
</mask>
<path d="M895.256 161.517C910.04 133.801 935.614 95.6416 965.184 77.5659C994.753 59.4902 1179.36 0.0412731 1418.72 2.04968C1657.67 4.05809 1845.48 72.7457 1873.05 103.274C1900.62 133.801 1923 192.849 1923 192.849L1878.65 505.759C1878.65 505.759 1836.29 535.082 1787.54 551.149C1738.79 567.216 1602.13 554.363 1561.77 572.037C1521.41 589.309 1407.13 651.57 1407.13 651.57C1407.13 651.57 1303.64 734.718 1194.55 710.617C1125.42 695.755 1054.29 571.233 1005.54 567.618C967.581 564.806 943.206 551.953 943.206 551.953C943.206 551.953 880.471 189.234 895.256 161.517Z" fill="#FDF8ED"/>
<path d="M1418.72 2.04968L1418.73 0.0497545V0.0497543L1418.72 2.04968ZM1923 192.849L1924.98 193.129L1925.05 192.621L1924.87 192.14L1923 192.849ZM1878.65 505.759L1879.78 507.403L1880.5 506.906L1880.63 506.04L1878.65 505.759ZM1561.77 572.037L1562.56 573.875L1562.57 573.872L1562.57 573.869L1561.77 572.037ZM1407.13 651.57L1406.17 649.813L1406.02 649.899L1405.88 650.011L1407.13 651.57ZM1194.55 710.617L1194.98 708.664L1194.97 708.662L1194.55 710.617ZM1005.54 567.618L1005.69 565.624H1005.69L1005.54 567.618ZM943.206 551.953L941.236 552.293L941.403 553.263L942.273 553.722L943.206 551.953ZM897.02 162.459C911.777 134.795 937.142 97.0515 966.227 79.2723L964.141 75.8595C934.086 94.2317 908.303 132.808 893.491 160.576L897.02 162.459ZM966.227 79.2723C973.396 74.8898 990.275 67.8449 1015.47 59.7628C1040.61 51.7015 1073.87 42.6555 1113.7 34.233C1193.34 17.3877 1299.19 3.04679 1418.7 4.04961L1418.73 0.0497543C1298.89 -0.955837 1192.76 13.4235 1112.87 30.3195C1072.92 38.7677 1039.53 47.8475 1014.25 55.9539C989.042 64.0395 971.756 71.2042 964.141 75.8595L966.227 79.2723ZM1418.7 4.04961C1538 5.0523 1644.52 22.7006 1724.64 43.9003C1764.7 54.5005 1798.14 65.9818 1823.25 76.7003C1835.8 82.06 1846.26 87.2191 1854.41 91.9695C1862.59 96.7398 1868.33 101.028 1871.57 104.614L1874.54 101.933C1870.88 97.8868 1864.72 93.3509 1856.42 88.5138C1848.09 83.6568 1837.48 78.4255 1824.82 73.0214C1799.49 62.2122 1765.87 50.6722 1725.66 40.0334C1645.25 18.7552 1538.39 1.05547 1418.73 0.0497545L1418.7 4.04961ZM1871.57 104.614C1885.16 119.659 1897.54 141.841 1906.57 160.384C1911.07 169.633 1914.71 177.934 1917.23 183.921C1918.49 186.914 1919.46 189.328 1920.13 190.991C1920.46 191.822 1920.71 192.466 1920.88 192.901C1920.96 193.119 1921.03 193.284 1921.07 193.394C1921.09 193.449 1921.1 193.491 1921.11 193.518C1921.12 193.532 1921.12 193.542 1921.13 193.548C1921.13 193.552 1921.13 193.554 1921.13 193.556C1921.13 193.556 1921.13 193.557 1921.13 193.557C1921.13 193.557 1921.13 193.557 1923 192.849C1924.87 192.14 1924.87 192.14 1924.87 192.139C1924.87 192.138 1924.87 192.137 1924.87 192.136C1924.87 192.134 1924.87 192.131 1924.87 192.127C1924.86 192.12 1924.86 192.108 1924.85 192.094C1924.84 192.064 1924.82 192.02 1924.8 191.963C1924.76 191.847 1924.69 191.677 1924.61 191.455C1924.43 191.01 1924.18 190.355 1923.84 189.513C1923.17 187.828 1922.19 185.39 1920.92 182.37C1918.38 176.332 1914.7 167.963 1910.16 158.634C1901.11 140.021 1888.52 117.416 1874.54 101.933L1871.57 104.614ZM1921.02 192.568L1876.67 505.478L1880.63 506.04L1924.98 193.129L1921.02 192.568ZM1878.65 505.759C1877.51 504.115 1877.51 504.115 1877.51 504.115C1877.51 504.115 1877.51 504.115 1877.51 504.115C1877.51 504.116 1877.5 504.117 1877.5 504.119C1877.5 504.122 1877.49 504.127 1877.48 504.133C1877.46 504.147 1877.43 504.167 1877.39 504.194C1877.31 504.248 1877.19 504.33 1877.03 504.438C1876.72 504.653 1876.24 504.972 1875.62 505.385C1874.38 506.211 1872.55 507.411 1870.19 508.903C1865.49 511.886 1858.7 516.035 1850.4 520.684C1833.78 529.987 1811.12 541.27 1786.91 549.25L1788.17 553.049C1812.71 544.961 1835.6 533.549 1852.35 524.174C1860.73 519.484 1867.58 515.297 1872.34 512.281C1874.72 510.773 1876.57 509.557 1877.84 508.716C1878.47 508.296 1878.95 507.969 1879.28 507.747C1879.45 507.636 1879.57 507.551 1879.65 507.493C1879.7 507.464 1879.73 507.442 1879.75 507.427C1879.76 507.42 1879.77 507.414 1879.77 507.41C1879.78 507.408 1879.78 507.407 1879.78 507.405C1879.78 507.405 1879.78 507.404 1879.78 507.404C1879.78 507.404 1879.78 507.403 1878.65 505.759ZM1786.91 549.25C1774.99 553.18 1757.53 555.38 1737.24 556.71C1717 558.037 1694.13 558.488 1671.46 558.991C1648.82 559.493 1626.38 560.046 1607.06 561.583C1587.82 563.114 1571.4 565.637 1560.97 570.205L1562.57 573.869C1572.32 569.599 1588.12 567.102 1607.38 565.57C1626.56 564.044 1648.89 563.492 1671.55 562.99C1694.19 562.488 1717.15 562.036 1737.5 560.702C1757.81 559.37 1775.72 557.152 1788.17 553.049L1786.91 549.25ZM1560.98 570.198C1540.72 578.872 1501.98 598.797 1468.38 616.511C1451.57 625.377 1436.02 633.702 1424.67 639.811C1419 642.865 1414.37 645.365 1411.17 647.102C1409.56 647.971 1408.32 648.648 1407.47 649.109C1407.04 649.339 1406.72 649.515 1406.5 649.634C1406.39 649.693 1406.31 649.738 1406.26 649.768C1406.23 649.783 1406.21 649.794 1406.19 649.802C1406.19 649.806 1406.18 649.809 1406.18 649.811C1406.18 649.811 1406.18 649.812 1406.17 649.813C1406.17 649.813 1406.17 649.813 1407.13 651.57C1408.09 653.326 1408.09 653.326 1408.09 653.325C1408.09 653.325 1408.09 653.324 1408.09 653.323C1408.1 653.321 1408.1 653.319 1408.11 653.315C1408.12 653.307 1408.14 653.296 1408.17 653.281C1408.22 653.251 1408.31 653.206 1408.41 653.147C1408.63 653.029 1408.96 652.854 1409.38 652.624C1410.22 652.164 1411.47 651.487 1413.07 650.619C1416.27 648.884 1420.89 646.385 1426.57 643.333C1437.91 637.228 1453.45 628.908 1470.25 620.049C1503.88 602.315 1542.47 582.473 1562.56 573.875L1560.98 570.198ZM1407.13 651.57C1405.88 650.011 1405.88 650.01 1405.88 650.011C1405.88 650.011 1405.88 650.012 1405.87 650.013C1405.87 650.015 1405.87 650.018 1405.86 650.022C1405.85 650.031 1405.83 650.045 1405.81 650.064C1405.76 650.102 1405.69 650.159 1405.59 650.235C1405.4 650.387 1405.11 650.615 1404.72 650.912C1403.95 651.506 1402.8 652.378 1401.29 653.481C1398.27 655.688 1393.83 658.821 1388.16 662.508C1376.82 669.885 1360.57 679.471 1340.93 688.307C1301.61 705.996 1248.93 720.583 1194.98 708.664L1194.12 712.57C1249.26 724.752 1302.87 709.815 1342.57 691.955C1362.44 683.017 1378.87 673.323 1390.34 665.862C1396.08 662.13 1400.58 658.955 1403.65 656.709C1405.19 655.586 1406.36 654.696 1407.16 654.083C1407.56 653.777 1407.86 653.541 1408.07 653.38C1408.17 653.299 1408.25 653.238 1408.3 653.195C1408.33 653.174 1408.35 653.158 1408.36 653.147C1408.37 653.142 1408.37 653.137 1408.38 653.134C1408.38 653.133 1408.38 653.131 1408.38 653.131C1408.38 653.13 1408.38 653.129 1407.13 651.57ZM1194.97 708.662C1178.14 705.044 1161.03 694.704 1143.96 680.954C1126.92 667.22 1110.1 650.232 1093.84 633.506C1077.61 616.821 1061.91 600.365 1047.22 587.873C1032.6 575.445 1018.58 566.579 1005.69 565.624L1005.39 569.613C1016.88 570.465 1030.04 578.519 1044.62 590.921C1059.14 603.258 1074.68 619.539 1090.97 636.294C1107.22 653.008 1124.19 670.162 1141.45 684.069C1158.69 697.96 1176.39 708.759 1194.13 712.572L1194.97 708.662ZM1005.69 565.624C986.9 564.232 971.478 560.355 960.764 556.831C955.408 555.069 951.232 553.397 948.404 552.17C946.991 551.557 945.914 551.055 945.196 550.709C944.837 550.536 944.568 550.402 944.391 550.312C944.302 550.268 944.237 550.234 944.195 550.212C944.174 550.201 944.159 550.194 944.149 550.189C944.145 550.186 944.142 550.185 944.14 550.184C944.139 550.183 944.139 550.183 944.138 550.183C944.138 550.183 944.139 550.183 944.139 550.183C944.139 550.183 944.139 550.183 943.206 551.953C942.273 553.722 942.274 553.722 942.275 553.722C942.275 553.722 942.276 553.723 942.277 553.723C942.278 553.724 942.28 553.725 942.282 553.726C942.286 553.728 942.292 553.731 942.299 553.735C942.313 553.742 942.334 553.753 942.36 553.767C942.413 553.794 942.489 553.833 942.588 553.883C942.786 553.983 943.078 554.128 943.46 554.312C944.223 554.68 945.347 555.204 946.812 555.84C949.741 557.111 954.031 558.827 959.514 560.631C970.478 564.237 986.223 568.193 1005.39 569.613L1005.69 565.624ZM943.206 551.953C945.177 551.612 945.177 551.61 945.176 551.608C945.176 551.605 945.175 551.601 945.174 551.595C945.172 551.584 945.17 551.568 945.166 551.546C945.158 551.502 945.147 551.437 945.132 551.349C945.102 551.175 945.057 550.915 944.998 550.572C944.88 549.885 944.705 548.866 944.477 547.535C944.021 544.873 943.355 540.964 942.512 535.979C940.825 526.01 938.433 511.736 935.609 494.521C929.959 460.089 922.581 413.895 915.665 366.838C908.749 319.775 902.298 271.872 898.501 234.016C896.601 215.083 895.369 198.699 895.071 186.204C894.921 179.953 895.006 174.716 895.351 170.638C895.702 166.47 896.307 163.797 897.02 162.459L893.491 160.576C892.357 162.703 891.718 166.111 891.365 170.302C891.004 174.582 890.921 179.979 891.072 186.299C891.374 198.945 892.618 215.445 894.521 234.415C898.328 272.364 904.789 320.338 911.708 367.419C918.628 414.506 926.01 460.724 931.661 495.168C934.487 512.391 936.881 526.671 938.568 536.646C939.411 541.634 940.078 545.545 940.534 548.21C940.762 549.542 940.937 550.563 941.056 551.25C941.115 551.594 941.16 551.855 941.19 552.03C941.205 552.117 941.217 552.183 941.224 552.227C941.228 552.249 941.231 552.266 941.233 552.277C941.234 552.282 941.234 552.286 941.235 552.289C941.235 552.292 941.236 552.293 943.206 551.953Z" fill="#0F0D0E" mask="url(#path-3-outside-2_404_2012)"/>
<mask id="path-5-outside-3_404_2012" maskUnits="userSpaceOnUse" x="-295" y="0" width="1035" height="718" fill="black">
<rect fill="white" x="-295" width="1035" height="718"/>
<path d="M-290.744 161.517C-275.96 133.801 -250.386 95.6416 -220.816 77.5659C-191.247 59.4902 -6.63617 0.0412731 232.718 2.04968C471.673 4.05809 659.48 72.7457 687.051 103.274C714.623 133.801 737 192.849 737 192.849L692.646 505.759C692.646 505.759 650.289 535.082 601.539 551.149C552.789 567.216 416.13 554.363 375.771 572.037C335.413 589.309 221.13 651.57 221.13 651.57C221.13 651.57 117.636 734.718 8.54825 710.617C-60.5808 695.755 -131.708 571.233 -180.458 567.618C-218.419 564.806 -242.794 551.953 -242.794 551.953C-242.794 551.953 -305.529 189.234 -290.744 161.517Z"/>
</mask>
<path d="M-290.744 161.517C-275.96 133.801 -250.386 95.6416 -220.816 77.5659C-191.247 59.4902 -6.63617 0.0412731 232.718 2.04968C471.673 4.05809 659.48 72.7457 687.051 103.274C714.623 133.801 737 192.849 737 192.849L692.646 505.759C692.646 505.759 650.289 535.082 601.539 551.149C552.789 567.216 416.13 554.363 375.771 572.037C335.413 589.309 221.13 651.57 221.13 651.57C221.13 651.57 117.636 734.718 8.54825 710.617C-60.5808 695.755 -131.708 571.233 -180.458 567.618C-218.419 564.806 -242.794 551.953 -242.794 551.953C-242.794 551.953 -305.529 189.234 -290.744 161.517Z" fill="#FDF8ED"/>
<path d="M232.718 2.04968L232.735 0.0497545V0.0497543L232.718 2.04968ZM737 192.849L738.98 193.129L739.052 192.621L738.87 192.14L737 192.849ZM692.646 505.759L693.784 507.403L694.503 506.906L694.626 506.04L692.646 505.759ZM375.771 572.037L376.558 573.875L376.566 573.872L376.573 573.869L375.771 572.037ZM221.13 651.57L220.173 649.813L220.016 649.899L219.877 650.011L221.13 651.57ZM8.54825 710.617L8.97971 708.664L8.96863 708.662L8.54825 710.617ZM-180.458 567.618L-180.31 565.624H-180.31L-180.458 567.618ZM-242.794 551.953L-244.764 552.293L-244.597 553.263L-243.727 553.722L-242.794 551.953ZM-288.98 162.459C-274.223 134.795 -248.858 97.0515 -219.773 79.2723L-221.859 75.8595C-251.914 94.2317 -277.697 132.808 -292.509 160.576L-288.98 162.459ZM-219.773 79.2723C-212.604 74.8898 -195.725 67.8449 -170.525 59.7628C-145.39 51.7015 -112.128 42.6555 -72.3045 34.233C7.34363 17.3877 113.189 3.04679 232.701 4.04961L232.735 0.0497543C112.893 -0.955837 6.75592 13.4235 -73.1321 30.3195C-113.077 38.7677 -146.471 47.8475 -171.747 55.9539C-196.958 64.0395 -214.244 71.2042 -221.859 75.8595L-219.773 79.2723ZM232.701 4.04961C351.998 5.0523 458.522 22.7006 538.642 43.9003C578.702 54.5005 612.136 65.9818 637.248 76.7003C649.805 82.06 660.257 87.2191 668.407 91.9695C676.59 96.7398 682.329 101.028 685.567 104.614L688.536 101.933C684.881 97.8868 678.719 93.3509 670.421 88.5138C662.089 83.6568 651.479 78.4255 638.818 73.0214C613.494 62.2122 579.872 50.6722 539.665 40.0334C459.249 18.7552 352.392 1.05547 232.735 0.0497545L232.701 4.04961ZM685.567 104.614C699.156 119.659 711.543 141.841 720.567 160.384C725.068 169.633 728.711 177.934 731.229 183.921C732.488 186.914 733.465 189.328 734.126 190.991C734.457 191.822 734.709 192.466 734.877 192.901C734.962 193.119 735.025 193.284 735.068 193.394C735.089 193.449 735.104 193.491 735.115 193.518C735.12 193.532 735.124 193.542 735.126 193.548C735.128 193.552 735.129 193.554 735.129 193.556C735.129 193.556 735.13 193.557 735.13 193.557C735.13 193.557 735.13 193.557 737 192.849C738.87 192.14 738.87 192.14 738.87 192.139C738.87 192.138 738.869 192.137 738.869 192.136C738.868 192.134 738.867 192.131 738.865 192.127C738.863 192.12 738.858 192.108 738.853 192.094C738.841 192.064 738.825 192.02 738.802 191.963C738.758 191.847 738.693 191.677 738.607 191.455C738.434 191.01 738.178 190.355 737.843 189.513C737.173 187.828 736.186 185.39 734.916 182.37C732.377 176.332 728.703 167.963 724.163 158.634C715.106 140.021 702.519 117.416 688.536 101.933L685.567 104.614ZM735.02 192.568L690.665 505.478L694.626 506.04L738.98 193.129L735.02 192.568ZM692.646 505.759C691.507 504.115 691.507 504.115 691.507 504.115C691.507 504.115 691.507 504.115 691.506 504.115C691.505 504.116 691.504 504.117 691.501 504.119C691.497 504.122 691.49 504.127 691.48 504.133C691.461 504.147 691.431 504.167 691.392 504.194C691.313 504.248 691.193 504.33 691.035 504.438C690.718 504.653 690.244 504.972 689.623 505.385C688.381 506.211 686.548 507.411 684.195 508.903C679.488 511.886 672.701 516.035 664.397 520.684C647.777 529.987 625.123 541.27 600.913 549.25L602.165 553.049C626.705 544.961 649.605 533.549 666.351 524.174C674.729 519.484 681.578 515.297 686.336 512.281C688.716 510.773 690.573 509.557 691.838 508.716C692.47 508.296 692.954 507.969 693.281 507.747C693.445 507.636 693.57 507.551 693.654 507.493C693.696 507.464 693.728 507.442 693.749 507.427C693.76 507.42 693.769 507.414 693.774 507.41C693.777 507.408 693.78 507.407 693.781 507.405C693.782 507.405 693.783 507.404 693.783 507.404C693.784 507.404 693.784 507.403 692.646 505.759ZM600.913 549.25C588.987 553.18 571.527 555.38 551.241 556.71C530.996 558.037 508.132 558.488 485.464 558.991C462.823 559.493 440.375 560.046 421.06 561.583C401.815 563.114 385.399 565.637 374.969 570.205L376.573 573.869C386.322 569.599 402.123 567.102 421.377 565.57C440.559 564.044 462.89 563.492 485.553 562.99C508.188 562.488 531.152 562.036 551.503 560.702C571.813 559.37 589.717 557.152 602.165 553.049L600.913 549.25ZM374.984 570.198C354.716 578.872 315.979 598.797 282.383 616.511C265.569 625.377 250.017 633.702 238.669 639.811C232.995 642.865 228.372 645.365 225.166 647.102C223.564 647.971 222.316 648.648 221.468 649.109C221.044 649.339 220.721 649.515 220.503 649.634C220.394 649.693 220.312 649.738 220.257 649.768C220.229 649.783 220.208 649.794 220.194 649.802C220.187 649.806 220.182 649.809 220.178 649.811C220.177 649.811 220.175 649.812 220.174 649.813C220.174 649.813 220.173 649.813 221.13 651.57C222.087 653.326 222.087 653.326 222.088 653.325C222.089 653.325 222.09 653.324 222.092 653.323C222.095 653.321 222.1 653.319 222.107 653.315C222.121 653.307 222.142 653.296 222.169 653.281C222.224 653.251 222.306 653.206 222.415 653.147C222.632 653.029 222.955 652.854 223.378 652.624C224.224 652.164 225.471 651.487 227.072 650.619C230.275 648.884 234.895 646.385 240.565 643.333C251.906 637.228 267.448 628.908 284.249 620.049C317.884 602.315 356.468 582.473 376.558 573.875L374.984 570.198ZM221.13 651.57C219.877 650.011 219.877 650.01 219.877 650.011C219.877 650.011 219.876 650.012 219.875 650.013C219.872 650.015 219.868 650.018 219.862 650.022C219.851 650.031 219.834 650.045 219.81 650.064C219.763 650.102 219.69 650.159 219.594 650.235C219.4 650.387 219.109 650.615 218.722 650.912C217.949 651.506 216.797 652.378 215.289 653.481C212.272 655.688 207.834 658.821 202.164 662.508C190.822 669.885 174.568 679.471 154.927 688.307C115.607 705.996 62.9285 720.583 8.97971 708.664L8.11679 712.57C63.2559 724.752 116.868 709.815 156.568 691.955C176.436 683.017 192.873 673.323 204.345 665.862C210.082 662.13 214.581 658.955 217.651 656.709C219.186 655.586 220.363 654.696 221.16 654.083C221.558 653.777 221.861 653.541 222.066 653.38C222.168 653.299 222.246 653.238 222.299 653.195C222.326 653.174 222.346 653.158 222.36 653.147C222.367 653.142 222.372 653.137 222.376 653.134C222.378 653.133 222.379 653.131 222.38 653.131C222.382 653.13 222.383 653.129 221.13 651.57ZM8.96863 708.662C-7.85928 705.044 -24.9738 694.704 -42.0374 680.954C-59.0814 667.22 -75.8982 650.232 -92.163 633.506C-108.387 616.821 -124.09 600.365 -138.785 587.873C-153.404 575.445 -167.424 566.579 -180.31 565.624L-180.606 569.613C-169.117 570.465 -155.964 578.519 -141.376 590.921C-126.863 603.258 -111.323 619.539 -95.0307 636.294C-78.7789 653.008 -61.8054 670.162 -44.5471 684.069C-27.3085 697.96 -9.60873 708.759 8.12787 712.572L8.96863 708.662ZM-180.31 565.624C-199.1 564.232 -214.522 560.355 -225.236 556.831C-230.592 555.069 -234.768 553.397 -237.596 552.17C-239.009 551.557 -240.086 551.055 -240.804 550.709C-241.163 550.536 -241.432 550.402 -241.609 550.312C-241.698 550.268 -241.763 550.234 -241.805 550.212C-241.826 550.201 -241.841 550.194 -241.851 550.189C-241.855 550.186 -241.858 550.185 -241.86 550.184C-241.861 550.183 -241.861 550.183 -241.862 550.183C-241.862 550.183 -241.861 550.183 -241.861 550.183C-241.861 550.183 -241.861 550.183 -242.794 551.953C-243.727 553.722 -243.726 553.722 -243.725 553.722C-243.725 553.722 -243.724 553.723 -243.723 553.723C-243.722 553.724 -243.72 553.725 -243.718 553.726C-243.714 553.728 -243.708 553.731 -243.701 553.735C-243.687 553.742 -243.666 553.753 -243.64 553.767C-243.587 553.794 -243.511 553.833 -243.412 553.883C-243.214 553.983 -242.922 554.128 -242.54 554.312C-241.777 554.68 -240.653 555.204 -239.188 555.84C-236.259 557.111 -231.969 558.827 -226.486 560.631C-215.522 564.237 -199.777 568.193 -180.605 569.613L-180.31 565.624ZM-242.794 551.953C-240.823 551.612 -240.823 551.61 -240.824 551.608C-240.824 551.605 -240.825 551.601 -240.826 551.595C-240.828 551.584 -240.83 551.568 -240.834 551.546C-240.842 551.502 -240.853 551.437 -240.868 551.349C-240.898 551.175 -240.943 550.915 -241.002 550.572C-241.12 549.885 -241.295 548.866 -241.523 547.535C-241.979 544.873 -242.645 540.964 -243.488 535.979C-245.175 526.01 -247.567 511.736 -250.391 494.521C-256.041 460.089 -263.419 413.895 -270.335 366.838C-277.251 319.775 -283.702 271.872 -287.499 234.016C-289.399 215.083 -290.631 198.699 -290.929 186.204C-291.079 179.953 -290.994 174.716 -290.649 170.638C-290.298 166.47 -289.693 163.797 -288.98 162.459L-292.509 160.576C-293.643 162.703 -294.282 166.111 -294.635 170.302C-294.996 174.582 -295.079 179.979 -294.928 186.299C-294.626 198.945 -293.382 215.445 -291.479 234.415C-287.672 272.364 -281.211 320.338 -274.292 367.419C-267.372 414.506 -259.99 460.724 -254.339 495.168C-251.513 512.391 -249.119 526.671 -247.432 536.646C-246.589 541.634 -245.922 545.545 -245.466 548.21C-245.238 549.542 -245.063 550.563 -244.944 551.25C-244.885 551.594 -244.84 551.855 -244.81 552.03C-244.795 552.117 -244.783 552.183 -244.776 552.227C-244.772 552.249 -244.769 552.266 -244.767 552.277C-244.766 552.282 -244.766 552.286 -244.765 552.289C-244.765 552.292 -244.764 552.293 -242.794 551.953Z" fill="#0F0D0E" mask="url(#path-5-outside-3_404_2012)"/>
</svg>
