<?xml version="1.0" encoding="UTF-8" standalone="no"?>
<!-- Generator: Adobe Illustrator 16.0.0, SVG Export Plug-In . SVG Version: 6.00 Build 0)  -->

<svg
   xmlns:dc="http://purl.org/dc/elements/1.1/"
   xmlns:cc="http://creativecommons.org/ns#"
   xmlns:rdf="http://www.w3.org/1999/02/22-rdf-syntax-ns#"
   xmlns:svg="http://www.w3.org/2000/svg"
   xmlns="http://www.w3.org/2000/svg"
   xmlns:sodipodi="http://sodipodi.sourceforge.net/DTD/sodipodi-0.dtd"
   xmlns:inkscape="http://www.inkscape.org/namespaces/inkscape"
   version="1.1"
   id="Layer_1"
   x="0px"
   y="0px"
   width="657.066px"
   height="303.172px"
   viewBox="0 0 657.066 303.172"
   enable-background="new 0 0 657.066 303.172"
   xml:space="preserve"
   sodipodi:docname="melon.svg"
   inkscape:version="0.92.2 5c3e80d, 2017-08-06"><metadata
     id="metadata4058"><rdf:RDF><cc:Work
         rdf:about=""><dc:format>image/svg+xml</dc:format><dc:type
           rdf:resource="http://purl.org/dc/dcmitype/StillImage" /><dc:title></dc:title></cc:Work></rdf:RDF></metadata><defs
     id="defs4056" /><sodipodi:namedview
     pagecolor="#ffffff"
     bordercolor="#666666"
     borderopacity="1"
     objecttolerance="10"
     gridtolerance="10"
     guidetolerance="10"
     inkscape:pageopacity="0"
     inkscape:pageshadow="2"
     inkscape:window-width="640"
     inkscape:window-height="480"
     id="namedview4054"
     showgrid="false"
     inkscape:zoom="0.44135598"
     inkscape:cx="328.53299"
     inkscape:cy="151.586"
     inkscape:window-x="0"
     inkscape:window-y="30"
     inkscape:window-maximized="0"
     inkscape:current-layer="layer1_2_" /><g
     id="layer1_2_"
     inkscape:label="Layer 1"
     inkscape:groupmode="layer"><g
       id="g4050"><g
         transform="translate(57.142857,-605.71429)"
         id="g4048"><path
           fill="#91CB47"
           d="M84.626,710.747c-13.201,0-24.318,2.316-33.352,6.948s-16.676,10.771-22.929,18.413     c-5.327,7.18-9.497,15.055-12.507,23.624c-0.927,3.937-1.737,7.644-2.432,11.116c-0.464,3.244-0.928,7.297-1.391,12.16     c0,5.791,0.232,10.076,0.695,12.855c0.463,2.547,1.506,6.252,3.127,11.117c2.547,8.568,6.601,16.328,12.159,23.275     c5.79,6.949,13.317,12.971,22.582,18.066c4.632,2.084,9.843,3.822,15.634,5.211c5.789,1.391,11.928,2.084,18.412,2.084     c5.328,0,10.191-2.084,14.592-6.252c4.4-4.17,6.601-9.266,6.601-15.287c0-5.326-2.085-10.191-6.253-14.592     c-4.17-4.4-9.148-6.6-14.939-6.6c-6.717,0-11.928-0.928-15.633-2.779c-3.706-2.086-6.832-4.98-9.381-8.686     c-1.621-2.316-3.01-5.676-4.168-10.076c0-3.705-0.232-6.484-0.695-8.338l0.695-8.338c0.23-1.853,0.578-3.473,1.041-4.863     c0.695-1.621,1.738-3.358,3.127-5.211c1.391-1.854,2.549-3.242,3.475-4.169c1.158-1.158,2.895-2.316,5.211-3.474     c4.169-2.316,9.611-3.475,16.328-3.475c6.485,0,11.697,1.158,15.634,3.475c4.169,2.084,7.181,4.747,9.033,7.99     c2.085,3.01,3.358,6.254,3.821,9.727l1.043,8.338v51.07c0,5.326,2.084,10.422,6.252,15.287c4.17,4.168,9.266,6.252,15.287,6.252     c5.326,0,10.19-2.084,14.592-6.252c4.4-4.17,6.6-9.266,6.6-15.287v-51.07c0-7.643-1.158-15.401-3.473-23.275     c-2.086-8.57-6.254-16.445-12.508-23.625c-4.863-6.716-12.044-12.623-21.539-17.718     C109.872,713.294,98.291,710.747,84.626,710.747"
           id="path4034" /><path
           sodipodi:nodetypes="cccccccccccccccccccccccccccssccccccccc"
           fill="#91CB47"
           d="M243.405,710.747     c-5.328,0-10.422,2.084-15.287,6.254c-4.168,4.168-6.252,9.148-6.252,14.938c0,5.328,2.084,10.424,6.252,15.287     c4.17,4.169,9.266,6.254,15.287,6.254c6.484,0,11.695,1.157,15.633,3.473c4.17,2.086,7.18,4.748,9.033,7.991     c2.084,3.011,3.359,6.254,3.822,9.728l1.041,8.338c0,3.244-0.348,6.023-1.041,8.338c0,3.012-1.043,6.139-3.127,9.381     c-1.854,3.012-5.096,6.021-9.729,9.033c-3.938,2.084-9.148,3.127-15.633,3.127c-6.717,0-11.928-0.928-15.635-2.779     c-3.705-2.086-6.832-4.98-9.379-8.686c-1.621-2.316-3.012-5.674-4.17-10.074c0-3.707-0.23-6.486-0.693-8.34V680.521     c0-5.327-2.086-10.422-6.254-15.286c-4.17-4.168-9.148-6.254-14.939-6.254c-5.326,0-10.422,2.086-15.285,6.254     c-4.17,4.169-6.254,9.265-6.254,15.286v102.487c0,5.791,0.232,10.076,0.695,12.855c0.463,2.547,1.506,6.252,3.127,11.117     c2.547,8.568,6.6,16.328,12.158,23.275c5.791,6.949,13.318,12.971,22.582,18.066c4.633,2.084,9.844,3.822,15.635,5.211     c5.789,1.391,11.928,2.084,18.412,2.084c13.664,0,25.014-2.432,34.047-7.295c9.264-4.863,16.676-10.77,22.234-17.719     c5.559-7.18,9.727-15.055,12.506-23.623c0.928-3.475,1.736-7.412,2.432-11.813c0.695-4.633,1.043-8.686,1.043-12.16     c0-7.643-1.158-15.401-3.475-23.275c-2.084-8.57-6.254-16.445-12.506-23.625c-4.865-6.717-12.045-12.623-21.541-17.718     C268.649,713.294,257.069,710.747,243.405,710.747"
           id="path4036" /><path
           fill="#91CB47"
           d="M351.114,710.747c-5.328,0-10.422,2.084-15.287,6.254c-4.168,4.168-6.254,9.148-6.254,14.938v102.141     c0,5.326,2.086,10.422,6.254,15.285c4.17,4.17,9.264,6.254,15.287,6.254c5.326,0,10.189-2.084,14.592-6.254     c4.4-4.168,6.6-9.264,6.6-15.285V731.938c0-5.326-2.084-10.189-6.254-14.59C361.884,712.947,356.903,710.747,351.114,710.747"
           id="path4038" /><path
           fill="#91CB47"
           d="M351.114,658.982c-5.328,0.001-10.422,2.085-15.287,6.253c-4.168,4.17-6.254,9.266-6.254,15.287     c0,5.326,2.086,10.19,6.254,14.592c4.17,4.4,9.264,6.6,15.287,6.6c5.326,0,10.189-2.084,14.592-6.253     c4.4-4.169,6.6-9.148,6.6-14.938c0-5.327-2.084-10.422-6.254-15.287C361.884,661.067,356.903,658.982,351.114,658.982"
           id="path4040" /><path
           fill="#91CB47"
           d="M458.503,761.817c-6.717,0-11.928-0.928-15.635-2.779c-3.705-2.085-6.832-4.98-9.381-8.686     c-1.619-2.316-3.01-5.674-4.168-10.075c0-3.706-0.23-6.484-0.695-8.338c0-5.327-2.084-10.19-6.252-14.591     c-4.17-4.4-9.148-6.602-14.939-6.602c-5.326,0-10.422,2.085-15.285,6.254c-4.17,4.169-6.254,9.148-6.254,14.938     c0,8.106,1.273,15.981,3.822,23.624c2.314,8.105,6.252,15.75,11.811,22.93c5.791,7.18,13.434,13.434,22.93,18.76     c4.633,2.086,9.844,3.822,15.633,5.211c5.791,1.391,11.928,2.086,18.414,2.086c6.484,0,11.695,1.158,15.633,3.475     c4.17,2.084,7.18,4.746,9.033,7.99c2.084,3.01,3.357,6.254,3.822,9.727l1.041,8.338c0,5.328,2.086,10.424,6.254,15.287     c4.168,4.168,9.264,6.254,15.287,6.254c5.326,0,10.189-2.086,14.59-6.254c4.4-4.17,6.602-9.264,6.602-15.287     c0-7.643-1.158-15.4-3.475-23.275c-2.084-8.57-6.254-16.445-12.506-23.625c-4.865-6.717-12.045-12.623-21.541-17.719     S472.167,761.817,458.503,761.817"
           id="path4042" /><path
           fill="#91CB47"
           d="M407.432,812.885c-5.326,0-10.422,2.086-15.285,6.254c-4.17,4.17-6.254,9.148-6.254,14.939     c0,5.326,2.084,10.422,6.254,15.285c4.168,4.17,9.264,6.254,15.285,6.254c5.326,0,10.191-2.084,14.592-6.254     c4.4-4.168,6.6-9.264,6.6-15.285c0-5.328-2.084-10.191-6.252-14.592C418.202,815.086,413.223,812.885,407.432,812.885"
           id="path4044" /><path
           fill="#91CB47"
           d="M509.571,710.747c-5.326,0-10.422,2.084-15.285,6.254c-4.17,4.168-6.254,9.148-6.254,14.938     c0,5.328,2.084,10.424,6.254,15.287c4.168,4.169,9.264,6.254,15.285,6.254c5.326,0,10.191-2.085,14.592-6.254     s6.602-9.265,6.602-15.287c0-5.326-2.086-10.189-6.254-14.59C520.341,712.947,515.362,710.747,509.571,710.747"
           id="path4046" /></g></g></g></svg>