<?xml version="1.0" encoding="UTF-8" standalone="no"?>
<svg
   viewnox="0 0 24 24"
   version="1.1"
   id="svg142"
   sodipodi:docname="cityjs.svg"
   width="198.00003"
   height="50.000313"
   xmlns:inkscape="http://www.inkscape.org/namespaces/inkscape"
   xmlns:sodipodi="http://sodipodi.sourceforge.net/DTD/sodipodi-0.dtd"
   xmlns="http://www.w3.org/2000/svg"
   xmlns:svg="http://www.w3.org/2000/svg">
  <defs
     id="defs146" />
  <sodipodi:namedview
     id="namedview144"
     pagecolor="#ffffff"
     bordercolor="#000000"
     borderopacity="0.25"
     inkscape:showpageshadow="2"
     inkscape:pageopacity="0.0"
     inkscape:pagecheckerboard="0"
     inkscape:deskcolor="#d1d1d1"
     showgrid="false" />
  <title
     id="title106">CITYJS CONFERENCE</title>
  <g
     id="g140"
     transform="translate(1.0000432,1.0001631)">
    <g
       id="g138">
      <path
         d="m 48.389227,36 c -0.163368,0 -0.320044,-0.0637 -0.435562,-0.177075 -0.115518,-0.11338 -0.180416,-0.267155 -0.180416,-0.427498 v -0.840253 c -0.03109,-0.232875 0.07805,-0.462348 0.2799,-0.5885 0.201847,-0.126152 0.459868,-0.126152 0.661715,0 0.201847,0.126152 0.310988,0.355625 0.2799,0.5885 v 0.840253 C 48.994813,35.725363 48.725338,35.994408 48.389227,36 Z m -3.4453,0 C 44.78056,36 44.623884,35.9363 44.508365,35.822925 44.392847,35.709545 44.32795,35.55577 44.32795,35.395427 v -0.840253 c -0.03109,-0.232875 0.07805,-0.462348 0.2799,-0.5885 0.201847,-0.126152 0.459868,-0.126152 0.661715,0 0.201847,0.126152 0.310988,0.355625 0.2799,0.5885 v 0.840253 C 45.549513,35.725363 45.280038,35.994408 44.943927,36 Z M 7.0769532,36 C 6.9135857,36 6.7569094,35.936304 6.6413911,35.822925 6.5258729,35.709545 6.4609754,35.55577 6.4609754,35.395427 v -0.840253 c -0.031088,-0.232875 0.078053,-0.462348 0.2799002,-0.5885 0.201847,-0.126152 0.459868,-0.126152 0.6617149,0 0.201847,0.126152 0.3109879,0.355625 0.2799002,0.5885 v 0.840253 C 7.6824907,35.729324 7.4067081,36 7.0665129,36 Z M 3.6316537,36 C 3.4682862,36 3.3116098,35.936304 3.1960916,35.822925 3.0805733,35.709545 3.0156759,35.55577 3.0156759,35.395427 v -0.840253 c -0.031088,-0.232875 0.078053,-0.462348 0.2799001,-0.5885 0.201847,-0.126152 0.459868,-0.126152 0.661715,0 0.201847,0.126152 0.3109878,0.355625 0.2799002,0.5885 v 0.840253 C 4.2371912,35.729324 3.9614085,36 3.6212134,36 Z M 48.389227,32.649233 c -0.340195,0 -0.615978,-0.270676 -0.615978,-0.604572 v -0.81976 c -0.03109,-0.232875 0.07805,-0.462347 0.2799,-0.5885 0.201847,-0.126152 0.459868,-0.126152 0.661715,0 0.201847,0.126153 0.310988,0.355625 0.2799,0.5885 v 0.840254 c -0.01108,0.321932 -0.277388,0.578802 -0.605537,0.584078 z m -3.4453,0 c -0.340195,0 -0.615977,-0.270676 -0.615977,-0.604572 v -0.81976 c -0.03109,-0.232875 0.07805,-0.462347 0.2799,-0.5885 0.201847,-0.126152 0.459868,-0.126152 0.661715,0 0.201847,0.126153 0.310988,0.355625 0.2799,0.5885 v 0.840254 c -0.01108,0.321932 -0.277389,0.578802 -0.605538,0.584078 z m -37.8669738,0 c -0.3401951,0 -0.6159778,-0.270676 -0.6159778,-0.604572 v -0.81976 c -0.031088,-0.232875 0.078053,-0.462347 0.2799002,-0.5885 0.201847,-0.126152 0.459868,-0.126152 0.6617149,0 0.201847,0.126153 0.3109879,0.355625 0.2799002,0.5885 v 0.840254 c -0.011261,0.325866 -0.283773,0.584266 -0.6159778,0.584078 z m -3.4452995,0 c -0.3401952,0 -0.6159778,-0.270676 -0.6159778,-0.604572 v -0.81976 c -0.031088,-0.232875 0.078053,-0.462347 0.2799001,-0.5885 0.201847,-0.126152 0.459868,-0.126152 0.661715,0 0.201847,0.126153 0.3109878,0.355625 0.2799002,0.5885 v 0.840254 C 4.22593,32.391021 3.9534182,32.649421 3.6212134,32.649233 Z M 42.981151,31.80898 H 9.0397299 V 27.259315 H 23.656152 v -1.024699 c -0.03109,-0.232876 0.07805,-0.462348 0.2799,-0.5885 0.201847,-0.126153 0.459868,-0.126153 0.661715,0 0.201847,0.126152 0.310988,0.355624 0.279901,0.5885 v 1.024699 h 3.079889 v -1.024699 c -0.03109,-0.232876 0.07805,-0.462348 0.2799,-0.5885 0.201847,-0.126153 0.459868,-0.126153 0.661715,0 0.201847,0.126152 0.310987,0.355624 0.2799,0.5885 v 1.024699 H 42.94983 Z m -6.91148,-1.198898 h 5.658644 V 28.46846 h -5.658644 z m -6.880159,0 h 5.658644 V 28.46846 h -5.658644 z m -4.301404,0 h 3.079889 V 28.46846 h -3.069449 z m -6.890599,0 h 5.658643 V 28.46846 h -5.648203 z m -7.746704,0 h 6.525188 V 28.46846 H 10.261245 Z M 48.378787,26.7982 c -0.340195,0 -0.615978,-0.270676 -0.615978,-0.604572 v -2.510514 c -0.03109,-0.232875 0.07805,-0.462347 0.2799,-0.5885 0.201847,-0.126152 0.459868,-0.126152 0.661715,0 0.201847,0.126153 0.310988,0.355625 0.2799,0.5885 v 2.510514 c 1.91e-4,0.326053 -0.263083,0.59352 -0.595097,0.604572 z m -3.4453,0 c -0.340195,0 -0.615978,-0.270676 -0.615978,-0.604572 v -2.510514 c -0.03109,-0.232875 0.07805,-0.462347 0.2799,-0.5885 0.201847,-0.126152 0.459868,-0.126152 0.661715,0 0.201847,0.126153 0.310988,0.355625 0.279901,0.5885 v 2.510514 c 1.9e-4,0.326053 -0.263084,0.59352 -0.595098,0.604572 z m -37.8669741,0 c -0.3401951,0 -0.6159778,-0.270676 -0.6159778,-0.604572 v -2.510514 c -0.031088,-0.232875 0.078053,-0.462347 0.2799002,-0.5885 0.201847,-0.126152 0.459868,-0.126152 0.6617149,0 0.201847,0.126153 0.3109879,0.355625 0.2799002,0.5885 v 2.510514 c 4.83e-5,0.329935 -0.2694265,0.59898 -0.6055375,0.604572 z m -3.4452995,0 c -0.3401952,0 -0.6159778,-0.270676 -0.6159778,-0.604572 v -2.510514 c -0.031088,-0.232875 0.078053,-0.462347 0.2799001,-0.5885 0.201847,-0.126152 0.459868,-0.126152 0.661715,0 0.201847,0.126153 0.3109878,0.355625 0.2799001,0.5885 v 2.510514 c 4.83e-5,0.329935 -0.2694264,0.59898 -0.6055374,0.604572 z"
         id="Shape" />
      <path
         d="M 25.541641,50 C 18.775113,50.022991 12.275642,47.389497 7.4695995,42.677158 5.1439553,40.406516 3.2876144,37.709476 2.0042644,34.736684 c -2.6723525,-6.215432 -2.6723525,-13.239243 0,-19.454675 1.2821715,-2.976464 3.1385748,-5.677092 5.4653351,-7.950772 9.9898335,-9.7749826 26.0709675,-9.7749826 36.0608005,0 2.325645,2.270642 4.181986,4.967682 5.465336,7.940473 2.672352,6.215432 2.672352,13.239243 0,19.454675 -1.28335,2.972792 -3.139691,5.669832 -5.465336,7.940474 -4.797507,4.698478 -11.279772,7.327365 -18.0304,7.312239 z m 0,-48.7761134 c -6.42874,-0.01196 -12.600745,2.4948926 -17.1663574,6.9724604 -2.2149715,2.161326 -3.9829529,4.72899 -5.205081,7.559413 -2.5456171,5.92276 -2.5456171,12.615311 0,18.53807 1.2221281,2.830423 2.9901095,5.398088 5.205081,7.559413 9.5136424,9.31997 24.8398924,9.31997 34.3535344,0 2.214971,-2.161325 3.982953,-4.72899 5.205081,-7.559413 2.545617,-5.922759 2.545617,-12.61531 0,-18.53807 C 46.711771,12.925337 44.943789,10.357673 42.728818,8.196347 38.163205,3.7187792 31.991201,1.2119267 25.562461,1.2238866 Z"
         id="path109" />
      <path
         d="M 42.146374,45 V 16.218562 h 1.046023 L 45.880677,9 46.560592,9.845603 c 1.551205,1.931232 2.802669,4.079013 3.713383,6.372959 v 0 l 0.146443,0.391865 v 0 l 0.313807,0.814666 v 0 c 0.328134,0.982986 0.593644,1.985226 0.794977,3.000859 v 0 0.134059 l 0.07322,0.371241 0.125523,0.711544 v 0 c 0.178314,1.191649 0.269205,2.394426 0.272053,3.598969 0.0069,3.651607 -0.81143,7.25888 -2.39548,10.559725 -1.526102,3.195318 -3.722253,6.035225 -6.443504,8.332283 z m 1.223847,-23.357204 v 20.624463 c 2.130783,-2.011287 3.868186,-4.391758 5.125514,-7.02263 1.503949,-3.140276 2.279355,-6.571427 2.26987,-10.044113 -0.0017,-1.20497 -0.09613,-2.408077 -0.282426,-3.598969 z m 0,-4.207391 v 3.00086 h 6.893293 c -0.211704,-1.017339 -0.49125,-2.019802 -0.836818,-3.00086 z m 1.129705,-1.206531 h 4.456059 C 48.247767,14.551079 47.34572,12.959363 46.267705,11.485248 Z M 9.9811577,17.435405 H 2 L 2.313807,16.620739 C 3.2364757,14.179845 4.5425022,11.897057 6.1840931,9.855915 L 6.8640083,9.010312 Z M 3.7677794,16.228874 H 8.2133783 L 6.445599,11.485248 c -1.0663911,1.472373 -1.9578566,3.060535 -2.6568992,4.733314 z"
         id="path111" />
      <path
         d="M 15.628924,48 15.305281,47.763951 C 14.190949,47.282252 13.112896,46.723218 12.079288,46.091084 L 11.25452,45.588198 24.523894,37.285439 v 3.910199 z m -2.088021,-2.432328 c 0.636846,0.359204 1.294573,0.677357 1.9523,1.026298 l 7.767438,-5.94227 v -1.169981 z m 22.133023,2.298909 -8.111962,-6.681206 v -3.940988 l 12.392405,8.354074 -0.793448,0.48236 c -1.004434,0.61437 -2.050949,1.159613 -3.132032,1.631815 z m -6.89047,-7.24567 7.088832,5.839641 c 0.615966,-0.277101 1.231932,-0.584991 1.827018,-0.923669 l -8.91585,-6.003849 z M 9.8451059,43.935856 H 8.9994574 L 8.8219756,43.792174 C 6.1047833,41.503111 3.9127814,38.673168 2.3908709,35.489416 0.8098688,32.204334 -0.0068391,28.614286 -3.6835203e-8,24.980115 0.0021567,23.777892 0.0928753,22.577398 0.2715296,21.388069 v 0 l 0.0939609,-0.554201 v -0.153945 0 -0.153945 L 0.4281311,20.1873 v 0 C 0.6723374,18.896136 1.0214594,17.626299 1.4721416,16.389994 L 1.6183031,16 H 9.7407048 Z M 1.5139021,21.398332 c -0.1867078,1.188565 -0.2809419,2.389395 -0.2818829,3.592046 0.00994,3.453083 0.8016569,6.860694 2.3177033,9.975626 1.2621866,2.614091 2.9953498,4.981969 5.1156515,6.989095 V 21.429121 Z m 0.2192422,-1.200769 h 6.8800292 v -2.98653 H 2.6205532 C 2.2757437,18.183947 1.9967326,19.178204 1.7853448,20.1873 Z M 47.283323,38.157793 H 41.311582 V 27.730597 H 51 l -0.09396,0.68762 c -0.467549,3.350365 -1.637129,6.568932 -3.434795,9.452213 z m -4.739808,-1.200769 h 4.050761 c 1.490487,-2.467513 2.502872,-5.185202 2.98587,-8.015395 h -7.036631 z"
         id="path113" />
      <path
         d="M 9.9892241,38 H 3.825431 L 3.6422414,37.724409 C 1.7873288,34.959007 0.5801788,31.872415 0.0969828,28.659449 L 0,28 H 10 Z M 4.5366379,36.848425 h 4.1810345 v -7.687008 h -7.262931 c 0.5033891,2.711444 1.5519448,5.31435 3.0926724,7.677166 z"
         id="path115" />
      <path
         d="M 25.676942,0 C 39.73666,0.0960616 51.064426,11.33102 51,25.115373 50.934466,38.899726 39.501261,50.031553 25.441241,50 11.381221,49.968178 0,38.784935 0,25.000435 0.0220616,18.346542 2.7400415,11.973923 7.5557116,7.285194 12.371382,2.5964645 18.890045,-0.0240825 25.676942,0 m 0,0.50040395 v 0 C 11.891969,0.5908471 0.7828254,11.60388 0.84349078,25.118855 0.9051575,38.63383 12.113547,49.549778 25.898792,49.520066 39.684038,49.490111 50.843469,38.525756 50.843469,25.010648 50.824167,18.487699 48.161179,12.239738 43.44093,7.642646 38.720681,3.0455544 32.330268,0.4763289 25.676942,0.50040395 Z"
         id="path117" />
      <path
         d="m 23.869915,14.483665 c -0.08536,0.283548 -0.228691,0.54478 -0.420274,0.765963 -0.213625,0.23805 -0.47723,0.422194 -0.770503,0.538244 -0.383717,0.148047 -0.79139,0.218331 -1.200784,0.207017 -0.669977,0.04343 -1.329041,-0.191271 -1.831195,-0.652103 -0.458792,-0.515996 -0.690618,-1.205429 -0.640418,-1.904557 v -0.538244 h 1.130738 v 0.372631 c -0.0016,0.236059 0.01846,0.471744 0.06004,0.703858 0.03324,0.198965 0.104697,0.389022 0.210137,0.558945 0.10484,0.158798 0.250371,0.284247 0.420275,0.36228 0.214791,0.09505 0.446905,0.14095 0.680444,0.134561 0.404906,0.05089 0.807371,-0.112523 1.070698,-0.434735 0.20966,-0.346378 0.310991,-0.751192 0.29019,-1.159296 V 7 H 24 v 6.603843 c -0.0013,0.298296 -0.04513,0.594762 -0.130085,0.879822 z"
         id="Path" />
      <path
         d="M 30.835372,8.365401 C 30.398238,8.073377 29.877507,7.928013 29.350206,7.950809 29.109398,7.950293 28.869165,7.97401 28.633229,8.021593 c -0.221114,0.043946 -0.432628,0.126104 -0.624794,0.242688 -0.183324,0.112591 -0.33483,0.269124 -0.440429,0.455039 -0.116936,0.217537 -0.173477,0.461751 -0.16388,0.70784 -0.01135,0.238005 0.07337,0.470738 0.235578,0.647168 0.17955,0.178591 0.396213,0.316592 0.635036,0.40448 0.291961,0.113839 0.593596,0.201823 0.901343,0.262912 l 1.024253,0.222464 c 0.348246,0.0809 0.689663,0.175274 1.024252,0.283136 0.320797,0.09958 0.624632,0.246158 0.901343,0.434816 0.262418,0.182152 0.479548,0.420718 0.635037,0.697727 0.342348,0.712783 0.315654,1.544787 -0.0717,2.234752 -0.202296,0.32203 -0.475333,0.595044 -0.798917,0.798847 -0.336795,0.209212 -0.707509,0.359712 -1.095951,0.444928 -0.392704,0.09204 -0.794763,0.139534 -1.198375,0.14165 -0.467166,0.0018 -0.932394,-0.05945 -1.382742,-0.182098 -0.413721,-0.109297 -0.802892,-0.294541 -1.147163,-0.546048 -0.33107,-0.248373 -0.597831,-0.570645 -0.778432,-0.940415 -0.200096,-0.423812 -0.298248,-0.887554 -0.286791,-1.355008 h 1.095951 c -0.0078,0.322938 0.06612,0.642697 0.215093,0.930304 0.135976,0.254881 0.328555,0.476117 0.563339,0.647168 0.243203,0.174318 0.517818,0.301297 0.80916,0.374144 0.310868,0.08094 0.631058,0.121724 0.952555,0.121343 0.264529,2.25e-4 0.528523,-0.02347 0.788674,-0.07078 0.250875,-0.04145 0.493114,-0.12345 0.716977,-0.242687 0.460817,-0.24334 0.736598,-0.728685 0.706735,-1.243776 0.0113,-0.259474 -0.07232,-0.514304 -0.235579,-0.717952 -0.174096,-0.197143 -0.391223,-0.352727 -0.635036,-0.45504 -0.289944,-0.124313 -0.591946,-0.21918 -0.901343,-0.283136 l -1.02425,-0.222468 C 28.704927,11.739437 28.363509,11.6518 28.02892,11.55068 27.711903,11.45976 27.408731,11.327117 27.127577,11.156312 26.867623,10.996804 26.649928,10.778416 26.492541,10.519256 26.31953,10.210664 26.237897,9.860262 26.256962,9.508056 c -0.01031,-0.39051 0.08141,-0.777062 0.266306,-1.122431 0.175302,-0.310423 0.420628,-0.576842 0.716977,-0.778624 0.311635,-0.210004 0.658372,-0.364047 1.024253,-0.45504 0.380727,-0.101229 0.773356,-0.152232 1.167648,-0.15168 0.418137,-0.00456 0.834994,0.046456 1.239346,0.15168 0.372072,0.094473 0.720635,0.263093 1.024253,0.495488 0.291861,0.227276 0.526697,0.517944 0.686249,0.849407 0.177469,0.384393 0.271663,0.801141 0.276548,1.223552 h -1.09595 C 31.538372,9.183901 31.271413,8.686485 30.835372,8.365401 Z"
         id="path120" />
      <path
         d="m 82.405536,14.06658 c -1.670884,-1.109048 -3.655418,-1.679149 -5.674985,-1.630265 -1.660801,-0.0487 -3.308489,0.30116 -4.7987,1.018916 -1.299369,0.659644 -2.424242,1.604868 -3.286066,2.76126 -0.875521,1.199174 -1.515742,2.546549 -1.888184,3.97377 -0.413222,1.508681 -0.620182,3.064147 -0.615486,4.625875 -0.0085,1.665979 0.198258,3.326349 0.615486,4.941739 0.36439,1.465043 1.012388,2.848465 1.909048,4.075662 0.865756,1.160619 1.998475,2.106431 3.30693,2.76126 1.498308,0.715919 3.15226,1.065585 4.819564,1.018915 1.253807,0.02303 2.499396,-0.202267 3.661617,-0.662294 1.040543,-0.424302 1.981293,-1.051897 2.764468,-1.844237 0.788209,-0.808033 1.405089,-1.760295 1.815161,-2.802017 0.44798,-1.121365 0.715427,-2.303738 0.792828,-3.505069 H 90 c -0.19239,3.381143 -1.642966,6.577126 -4.078895,8.986833 -2.30894,2.139722 -5.462868,3.209583 -9.461785,3.209583 -2.183336,0.04641 -4.350957,-0.370763 -6.353061,-1.222698 -1.749535,-0.768001 -3.294982,-1.918411 -4.517037,-3.362421 -1.237256,-1.505101 -2.152495,-3.237535 -2.691445,-5.094576 -0.611198,-2.027711 -0.913487,-4.13225 -0.897149,-6.245951 -0.01654,-2.124875 0.30729,-4.239201 0.959741,-6.266329 0.596782,-1.86053 1.556809,-3.590571 2.82706,-5.094577 1.264723,-1.472127 2.850951,-2.648905 4.64222,-3.443933 2.004168,-0.872308 4.180159,-1.303638 6.373926,-1.263455 1.57122,-0.00891 3.135279,0.207365 4.642221,0.641916 1.403238,0.400976 2.723713,1.038949 3.901551,1.884994 1.145513,0.82647 2.113223,1.865137 2.847925,3.056746 0.787858,1.320877 1.295207,2.78324 1.491769,4.299822 H 85.514259 C 85.160956,16.945134 84.045455,15.215766 82.405536,14.06658 Z"
         id="path122" />
      <path
         d="M 95,14.517172 V 10 h 4 v 4.517172 z m 4,4.041681 V 41 H 95 V 18.548516 Z"
         id="path124" />
      <path
         d="m 114,18.692053 v 3.238091 h -4.48318 v 13.85697 c -0.0105,0.345663 0.0243,0.691216 0.10354,1.027965 0.0583,0.245812 0.20575,0.461705 0.41415,0.6065 0.25541,0.161063 0.54719,0.256449 0.84901,0.277551 0.47124,0.04759 0.94484,0.06818 1.41846,0.06168 H 114 v 3.238091 h -2.82658 c -0.82227,0.01056 -1.64376,-0.05482 -2.45383,-0.195314 -0.60385,-0.09313 -1.17392,-0.337214 -1.65661,-0.709296 -0.44604,-0.391238 -0.76949,-0.901475 -0.93183,-1.46999 -0.22579,-0.81648 -0.327,-1.661956 -0.30026,-2.508235 V 21.930144 H 102 v -3.238091 h 3.83089 V 12 h 3.69629 v 6.692053 z"
         id="path126" />
      <path
         d="m 127.26072,43.11371 c -0.36839,0.93212 -0.79707,1.83991 -1.28339,2.717757 -0.36525,0.675792 -0.83294,1.29253 -1.38689,1.828867 -0.48609,0.455431 -1.06466,0.803693 -1.69739,1.021713 -0.6946,0.223709 -1.42229,0.330773 -2.15278,0.316731 -0.43605,0.0012 -0.87171,-0.02601 -1.30409,-0.08174 -0.43023,-0.05496 -0.85344,-0.154264 -1.2627,-0.296297 v -3.351219 c 0.35673,0.156412 0.72749,0.279553 1.10745,0.367817 0.33812,0.08906 0.68528,0.140461 1.03499,0.153257 0.67241,0.02535 1.33561,-0.160681 1.89404,-0.531291 0.52964,-0.36695 0.93962,-0.878171 1.17989,-1.471267 l 1.52144,-3.72925 L 116,18 h 4.13997 l 6.56185,18.155843 h 0.0828 L 133.08773,18 H 137 Z"
         id="path128" />
      <path
         d="m 155.55998,35.756824 c -0.29579,0.984973 -0.8096,1.892707 -1.50427,2.65753 -0.77294,0.827311 -1.72901,1.467074 -2.79363,1.869366 -1.38095,0.503371 -2.84697,0.740068 -4.31836,0.697222 -2.42002,0.15575 -4.803,-0.648006 -6.62081,-2.233134 C 138.7743,37.265789 138,35.07981 138,32.189873 v -1.869366 h 4.09323 v 1.27319 c -0.006,0.80991 0.0659,1.618552 0.2149,2.415018 0.11901,0.679014 0.37289,1.32807 0.74701,1.909784 0.37186,0.549264 0.89331,0.983607 1.50427,1.25298 0.78314,0.323465 1.62808,0.475162 2.47641,0.444606 1.86242,0 3.14496,-0.49513 3.84764,-1.485388 0.74871,-1.194857 1.10605,-2.588638 1.0233,-3.991348 V 10 H 156 v 22.786049 c -7.8e-4,1.006033 -0.14899,2.00666 -0.44002,2.970775 z"
         id="path130" />
      <path
         d="m 179.35487,13.92968 c -1.55495,-1.035423 -3.40682,-1.553037 -5.28328,-1.476731 -0.86298,-0.0016 -1.72384,0.08373 -2.56913,0.254609 -0.79149,0.152763 -1.54911,0.442417 -2.23763,0.855485 -0.65022,0.399188 -1.18808,0.952477 -1.56427,1.609128 -0.41746,0.769552 -0.62114,1.63372 -0.59048,2.505351 -0.0382,0.844503 0.26754,1.669148 0.84947,2.291479 0.63842,0.633436 1.40888,1.123342 2.25834,1.435994 1.03746,0.39766 2.10865,0.704385 3.20105,0.916592 1.18788,0.244424 2.39993,0.509218 3.63615,0.794379 1.23622,0.285162 2.44827,0.624641 3.63614,1.018436 1.1402,0.359301 2.21919,0.884534 3.20105,1.558206 0.93411,0.649931 1.70623,1.499539 2.25835,2.484982 1.21778,2.531332 1.12138,5.48425 -0.25899,7.933611 -0.7231,1.137935 -1.6966,2.101948 -2.84883,2.821066 -1.19756,0.740235 -2.51485,1.274092 -3.89513,1.578574 -1.40591,0.323421 -2.84489,0.48744 -4.28878,0.48945 -1.66926,0.0091 -3.33195,-0.206841 -4.94143,-0.642215 -1.47603,-0.390301 -2.86417,-1.050188 -4.09196,-1.945211 -1.18496,-0.880722 -2.14009,-2.025661 -2.78667,-3.340468 -0.7203,-1.505136 -1.07494,-3.154246 -1.03594,-4.817199 h 3.91585 c -0.0322,1.148004 0.22769,2.285745 0.75623,3.309915 0.48348,0.901397 1.16675,1.684503 1.99937,2.291479 0.86901,0.618009 1.84996,1.067363 2.89026,1.323966 1.10905,0.286417 2.25121,0.430197 3.39788,0.427743 0.94174,-4.98e-4 1.88146,-0.08572 2.8074,-0.254609 0.89245,-0.153056 1.75334,-0.448932 2.54841,-0.875854 1.65254,-0.862465 2.64059,-2.594184 2.52769,-4.430194 0.0421,-0.928359 -0.25973,-1.840223 -0.84947,-2.566457 -0.61907,-0.697637 -1.3913,-1.247864 -2.25835,-1.609128 -1.02912,-0.44534 -2.10166,-0.786576 -3.20105,-1.018435 l -3.63614,-0.79438 c -1.23622,-0.271582 -2.44827,-0.583902 -3.63615,-0.93696 -1.12672,-0.328737 -2.20337,-0.804875 -3.20105,-1.415625 -0.92575,-0.569742 -1.69995,-1.348315 -2.25835,-2.271111 -0.60034,-1.063364 -0.89406,-2.267662 -0.84947,-3.483049 -0.0383,-1.392585 0.28999,-2.771281 0.95307,-4.00245 0.62067,-1.107118 1.49275,-2.05856 2.54841,-2.780329 1.09866,-0.747323 2.32244,-1.298888 3.61542,-1.629496 1.35115,-0.358041 2.74439,-0.539526 4.14376,-0.539771 1.49688,-0.010975 2.98838,0.177452 4.43381,0.56014 1.30209,0.341941 2.521,0.937636 3.58435,1.751708 1.041,0.819555 1.87434,1.865423 2.43446,3.055306 0.62764,1.363972 0.95928,2.841555 0.97378,4.338535 h -3.91585 c -0.0444,-1.85609 -0.9108,-3.600631 -2.3723,-4.776462 z"
         id="path132" />
      <polygon
         id="polygon134"
         points="187,6.672504 187,6 192,6 192,6.672504 189.92122,6.672504 189.92122,12 189.08972,12 189.08972,6.672504 " />
      <polygon
         id="polygon136"
         points="194.61896,12 192.77281,7.008757 192.77281,12 192,12 192,6 193.05188,6 194.9839,11.043783 196.92666,6 198,6 198,12 197.22719,12 197.22719,7.008757 195.31664,12 " />
    </g>
  </g>
</svg>
