<svg width="240" height="264" viewBox="0 0 240 264" fill="none" xmlns="http://www.w3.org/2000/svg">
<g id="cc-logo-green">
<path id="Polygon" fill-rule="evenodd" clip-rule="evenodd" d="M139.512 5.35898L219.023 51.265C231.399 58.4103 239.023 71.6154 239.023 85.906V177.718C239.023 192.009 231.399 205.214 219.023 212.359L139.512 258.265C127.135 265.41 111.888 265.41 99.5115 258.265L20 212.359C7.62396 205.214 0 192.009 0 177.718V85.906C0 71.6154 7.62396 58.4103 20 51.265L99.5115 5.35898C111.888 -1.78633 127.135 -1.78633 139.512 5.35898Z" fill="#35B86D"/>
<path id="Path" fill-rule="evenodd" clip-rule="evenodd" d="M129.532 49.6135L183.123 81.4261C185.498 82.8357 186.28 85.9034 184.87 88.2779C184.428 89.0226 183.8 89.6398 183.048 90.0689L157.985 104.364C154.893 106.127 151.096 106.114 148.016 104.329L124.522 90.7127C121.519 88.9745 117.839 88.9202 114.794 90.5498L114.501 90.7127L86.5011 106.923C83.5065 108.657 81.6278 111.811 81.5167 115.254L81.5115 115.578V148.046C81.5115 151.507 83.2994 154.713 86.2237 156.534L86.5011 156.701L114.501 172.911C117.504 174.65 121.184 174.704 124.229 173.074L124.522 172.911L148.016 159.295C151.095 157.51 154.892 157.497 157.984 159.261L183.048 173.555C185.446 174.923 186.282 177.977 184.914 180.376C184.485 181.128 183.868 181.756 183.123 182.198L129.532 214.011C123.334 217.599 115.689 217.599 109.491 214.011L53.4907 181.589C47.3144 178.014 43.5115 171.418 43.5115 164.281V99.343C43.5115 92.2063 47.3144 85.6103 53.4907 82.0345L109.491 49.6135C115.689 46.0248 123.334 46.0248 129.532 49.6135Z" fill="#1A202C"/>
</g>
</svg>