<svg width="395" height="128" viewBox="0 0 395 128" fill="none" xmlns="http://www.w3.org/2000/svg">
<rect width="395" height="128" fill="white"/>
<path d="M68.2085 37.7917C72.2721 37.7917 75.5428 39.0779 78.2188 41.6503C80.8948 44.2226 82.1833 47.2896 82.1833 51.0492C82.1833 54.8088 80.8948 57.8758 78.2188 60.4481C75.5428 63.0205 72.2721 64.3066 68.2085 64.3066H58V37.7917H68.2085ZM65.1361 44.2226V57.7769H68.2085C70.0917 57.7769 71.6774 57.0843 72.9659 55.7981C74.3535 54.512 74.9481 52.929 74.9481 50.9503C74.9481 48.9715 74.3535 47.2896 73.065 46.1024C71.7766 44.8162 70.1908 44.2226 68.2085 44.2226H65.1361Z" fill="#091247"/>
<path d="M86.5442 37.7917H93.6802V64.2077H86.5442V37.7917Z" fill="#091247"/>
<path d="M127.973 37.7917H135.109V64.2077H127.973V37.7917Z" fill="#091247"/>
<path d="M160.878 37.7917V44.2226H153.544V64.2077H146.408V44.2226H139.074V37.7917H160.878Z" fill="#091247"/>
<path d="M168.906 58.4695L167.023 64.1088H159.292L169.303 37.6929H177.231L187.242 64.1088H179.511L177.628 58.4695H168.906ZM173.267 45.1131L170.789 52.8301H175.646L173.267 45.1131Z" fill="#091247"/>
<path d="M221.733 64.1088V37.7917H228.869V57.7769H240.564V64.2077H221.733V64.1088Z" fill="#091247"/>
<path d="M252.061 58.4695L250.178 64.1088H242.447L252.458 37.6929H260.387L270.397 64.1088H262.666L260.783 58.4695H252.061ZM256.422 45.1131L253.944 52.8301H258.801L256.422 45.1131Z" fill="#091247"/>
<path d="M273.469 64.1088V37.7917H285.363C288.039 37.7917 290.219 38.4843 291.904 39.8694C293.589 41.2545 294.382 42.9364 294.382 44.7173C294.382 45.4098 294.283 46.1024 293.985 46.7949C293.787 47.4875 293.49 47.9822 293.093 48.3779C292.796 48.7737 292.4 49.0705 292.102 49.3673C291.805 49.6641 291.508 49.862 291.21 49.9609L290.814 50.1588C290.913 50.1588 291.111 50.2577 291.309 50.3566C291.508 50.4556 291.904 50.6535 292.4 51.0492C292.895 51.346 293.391 51.7418 293.886 52.2364C294.382 52.7311 294.679 53.2258 294.977 54.0173C295.274 54.8088 295.472 55.6003 295.472 56.4907C295.472 58.5683 294.58 60.3492 292.796 61.9322C291.012 63.5152 288.732 64.2077 285.858 64.2077H273.469V64.1088ZM280.605 43.4311V47.9822H284.57C285.363 47.9822 285.957 47.7843 286.354 47.3886C286.75 46.9928 287.048 46.3992 287.048 45.7066C287.048 45.0141 286.849 44.5194 286.354 44.0247C285.957 43.629 285.363 43.4311 284.57 43.4311H280.605V43.4311ZM285.462 58.4694C286.255 58.4694 286.948 58.1726 287.543 57.6779C288.039 57.1832 288.336 56.5896 288.336 55.7981C288.336 55.0066 288.039 54.413 287.543 53.9183C287.048 53.4237 286.354 53.1269 285.462 53.1269H280.605V58.3705H285.462V58.4694Z" fill="#091247"/>
<path d="M299.833 37.7917H306.969V64.2077H299.833V37.7917Z" fill="#091247"/>
<path d="M337 37.7917V64.2077H330.756L319.358 49.4662V64.2077H312.222V37.7917H318.466L329.765 52.5332V37.7917H337Z" fill="#091247"/>
<path d="M101.708 60.8439C98.8341 58.0736 97.4465 54.8088 97.4465 51.0492C97.4465 47.2896 98.8341 43.9258 101.708 41.2545C104.583 38.3854 108.052 37.0002 112.214 37.0002C113.602 37.0002 114.989 37.1981 116.278 37.5939C117.566 37.9896 118.656 38.3854 119.449 38.88C120.242 39.3747 121.035 39.8694 121.63 40.463C122.225 40.9577 122.72 41.4524 122.918 41.7492L123.315 42.2439L118.954 46.7949C118.855 46.696 118.756 46.5971 118.656 46.3992C118.557 46.2013 118.26 46.0034 117.764 45.6077C117.368 45.2119 116.872 44.9151 116.377 44.6183C115.881 44.3215 115.287 44.0247 114.494 43.8268C113.701 43.629 112.908 43.4311 112.115 43.4311C109.935 43.4311 108.151 44.1236 106.664 45.6077C105.177 46.9928 104.483 48.8726 104.483 50.9502C104.483 53.1268 105.177 54.9077 106.664 56.3917C108.151 57.8758 109.935 58.5683 112.115 58.5683C113.007 58.5683 113.899 58.4694 114.593 58.1726C115.386 57.8758 115.881 57.579 116.179 57.2822L116.575 56.8864V54.0173H112.512V49.4662H123.81V59.6566C123.711 59.7556 123.513 59.9534 123.315 60.2502C123.117 60.4481 122.621 60.9428 121.828 61.5364C121.134 62.13 120.341 62.7236 119.449 63.1194C118.557 63.6141 117.467 64.0098 116.179 64.4056C114.89 64.8013 113.503 64.9992 112.115 64.9992C108.052 64.9002 104.583 63.5151 101.708 60.8439Z" fill="#091247"/>
<path d="M191.107 64.1088V37.7917H198.243V57.7769H209.939V64.2077H191.107V64.1088Z" fill="#091247"/>
<path d="M63.0977 87.499C63.9297 87.499 64.6094 87.2588 65.1484 86.7725C65.6816 86.292 65.9512 85.7119 65.9512 85.0381C65.9512 84.7686 65.8984 84.5166 65.7988 84.2822C65.6992 84.0479 65.5879 83.8604 65.4707 83.7197C65.3477 83.585 65.207 83.4619 65.0488 83.3447C64.8848 83.2275 64.7734 83.1572 64.7148 83.1279C64.6562 83.0986 64.6035 83.0752 64.5684 83.0576L64.668 82.999C64.7266 82.9639 64.8086 82.8936 64.9023 82.7998C64.9961 82.7061 65.0957 82.5889 65.1953 82.4541C65.2891 82.3252 65.3711 82.1553 65.4355 81.9561C65.4941 81.7568 65.5293 81.54 65.5293 81.3174C65.5293 80.7314 65.2773 80.21 64.7793 79.7646C64.2812 79.3193 63.6543 79.0967 62.8926 79.0967H59.2891V87.499H63.0977ZM61.0938 85.999V83.8369H63.0098C63.3379 83.8369 63.6074 83.9424 63.8242 84.1533C64.041 84.3643 64.1523 84.6162 64.1523 84.9209C64.1523 85.2256 64.041 85.4834 63.8242 85.6885C63.6074 85.8994 63.3379 85.999 63.0098 85.999H61.0938ZM62.7695 80.5967C63.0625 80.5967 63.2969 80.6787 63.4727 80.8428C63.6426 81.0068 63.7305 81.2295 63.7305 81.499C63.7305 81.7744 63.6426 81.9912 63.4727 82.1553C63.2969 82.3193 63.0625 82.4014 62.7695 82.4014H61.0938V80.5967H62.7695ZM68.6523 87.8564C68.459 88.3018 68.1191 88.5186 67.6328 88.5186C67.3926 88.5186 67.1934 88.4834 67.0352 88.4014V89.8369L67.1523 89.8779C67.2344 89.9131 67.3574 89.9424 67.5332 89.9717C67.7031 90.0068 67.8789 90.0186 68.0547 90.0186C69.0391 90.0186 69.7949 89.2979 70.334 87.8564L72.6719 81.6162H70.9961L69.6133 85.5186L68.2363 81.6162H66.5547L68.834 87.4404L68.6523 87.8564Z" fill="#091247"/>
<path d="M107.859 88.0892H105.357V75.0928H107.859V88.0892Z" fill="#091247"/>
<path d="M112.954 88.0892H110.452V75.0928H112.954V88.0892Z" fill="#091247"/>
<path d="M123.072 86.8538C122.631 87.3031 122.105 87.6599 121.526 87.9035C120.946 88.1471 120.324 88.2725 119.695 88.2725C119.067 88.2725 118.444 88.1471 117.865 87.9035C117.285 87.6599 116.759 87.3031 116.318 86.8538C115.865 86.43 115.503 85.9171 115.256 85.3472C115.009 84.7772 114.882 84.1623 114.882 83.5407C114.882 82.9191 115.009 82.3042 115.256 81.7342C115.503 81.1642 115.865 80.6514 116.318 80.2276C116.759 79.7783 117.285 79.4214 117.865 79.1778C118.444 78.9343 119.067 78.8088 119.695 78.8088C120.324 78.8088 120.946 78.9343 121.526 79.1778C122.105 79.4214 122.631 79.7783 123.072 80.2276C123.524 80.6522 123.884 81.1653 124.131 81.7352C124.377 82.3051 124.504 82.9196 124.504 83.5407C124.504 84.1618 124.377 84.7763 124.131 85.3462C123.884 85.9161 123.524 86.4292 123.072 86.8538V86.8538ZM118.125 85.258C118.323 85.4759 118.565 85.65 118.834 85.7691C119.103 85.8882 119.393 85.9498 119.687 85.9498C119.981 85.9498 120.272 85.8882 120.541 85.7691C120.81 85.65 121.051 85.4759 121.25 85.258C121.675 84.7883 121.911 84.1765 121.911 83.542C121.911 82.9074 121.675 82.2957 121.25 81.826C121.052 81.6066 120.811 81.4313 120.542 81.3112C120.273 81.1912 119.982 81.1291 119.687 81.1291C119.393 81.1291 119.102 81.1912 118.832 81.3112C118.563 81.4313 118.322 81.6066 118.125 81.826C117.7 82.2957 117.464 82.9074 117.464 83.542C117.464 84.1765 117.7 84.7883 118.125 85.258V85.258Z" fill="#091247"/>
<path d="M128.764 88.0003L125.249 78.9895H127.852L129.974 85.0254L132.107 78.9895H134.692L131.086 88.6532C130.26 90.8837 129.088 91.999 127.571 91.999C127.301 91.9982 127.032 91.9737 126.767 91.9258C126.568 91.8942 126.372 91.8452 126.181 91.7796L125.999 91.7169V89.4968C126.288 89.6257 126.604 89.6873 126.92 89.677C127.255 89.6948 127.587 89.6052 127.868 89.4211C128.149 89.237 128.364 88.9681 128.483 88.6532L128.764 88.0003Z" fill="#091247"/>
<path d="M141.22 79.1359C141.574 79.2873 141.898 79.5024 142.175 79.7705L142.454 80.0996V75.0928H144.948V88.0892H142.454V86.9765C142.43 87.0105 142.391 87.0575 142.342 87.115C142.292 87.1724 142.18 87.2769 142.016 87.4232C141.849 87.5725 141.669 87.7062 141.477 87.8228C141.242 87.9586 140.99 88.0639 140.727 88.1362C140.416 88.2278 140.094 88.2736 139.769 88.272C139.191 88.2725 138.62 88.1496 138.093 87.9114C137.566 87.6732 137.095 87.3251 136.713 86.8903C135.878 85.9724 135.416 84.775 135.416 83.5329C135.416 82.2907 135.878 81.0933 136.713 80.1754C137.097 79.7431 137.568 79.3978 138.096 79.1623C138.623 78.9268 139.195 78.8065 139.772 78.8094C140.273 78.8064 140.768 78.9181 141.22 79.1359V79.1359ZM141.803 85.3442C142.223 84.8384 142.454 84.2007 142.454 83.542C142.454 82.8833 142.223 82.2456 141.803 81.7399C141.604 81.5197 141.362 81.3436 141.091 81.2232C140.82 81.1028 140.528 81.0405 140.231 81.0405C139.935 81.0405 139.643 81.1028 139.372 81.2232C139.101 81.3436 138.859 81.5197 138.66 81.7399C138.24 82.2456 138.009 82.8833 138.009 83.542C138.009 84.2007 138.24 84.8384 138.66 85.3442C138.857 85.5669 139.099 85.7452 139.37 85.8673C139.641 85.9894 139.935 86.0526 140.231 86.0526C140.528 86.0526 140.822 85.9894 141.093 85.8673C141.364 85.7452 141.606 85.5669 141.803 85.3442Z" fill="#091247"/>
<path d="M152.441 81.6825C152.386 81.6128 152.327 81.5465 152.264 81.484C152.108 81.3483 151.932 81.2366 151.744 81.1523C151.503 81.0221 151.235 80.9522 150.962 80.9486C150.674 80.9324 150.388 81.0103 150.147 81.1706C150.059 81.2264 149.986 81.3033 149.934 81.3944C149.882 81.4856 149.853 81.5881 149.851 81.6929C149.859 81.8213 149.903 81.9447 149.979 82.0491C150.054 82.1535 150.156 82.2346 150.275 82.2832C150.607 82.4585 150.956 82.5994 151.317 82.7037C151.735 82.8309 152.147 82.9791 152.551 83.1477C152.968 83.3239 153.328 83.6122 153.592 83.9809C153.884 84.3983 154.033 84.8998 154.017 85.4096C154.021 85.8018 153.937 86.19 153.77 86.5448C153.603 86.8995 153.358 87.2116 153.053 87.4572C152.413 88.0092 151.532 88.2843 150.41 88.2826C149.948 88.285 149.486 88.227 149.038 88.1102C148.668 88.0215 148.312 87.8808 147.981 87.6923C147.734 87.5469 147.497 87.3855 147.27 87.2091C147.113 87.0879 146.966 86.9524 146.833 86.8043L146.705 86.6136L148.098 85.2267C148.167 85.3251 148.244 85.4177 148.328 85.5036C148.529 85.6826 148.752 85.8353 148.991 85.958C149.308 86.1418 149.667 86.2399 150.033 86.2427C150.349 86.2658 150.664 86.1851 150.931 86.0129C151.034 85.9416 151.117 85.8437 151.169 85.7296C151.222 85.6155 151.243 85.4893 151.231 85.3641C151.218 85.239 151.173 85.1195 151.098 85.0181C151.024 84.9168 150.924 84.8373 150.809 84.7879C150.48 84.6018 150.13 84.4554 149.767 84.3518C149.347 84.2278 148.935 84.0787 148.533 83.9051C148.12 83.7294 147.761 83.4474 147.492 83.0876C147.197 82.6842 147.048 82.1926 147.067 81.6929C147.067 80.9616 147.406 80.3 148.083 79.708C148.776 79.1099 149.666 78.7931 150.58 78.8199C151.175 78.8133 151.765 78.9335 152.311 79.1725C152.718 79.33 153.091 79.564 153.41 79.8621L153.725 80.2146L152.441 81.6825Z" fill="#091247"/>
<path d="M164.889 79.1359C165.244 79.2873 165.568 79.5024 165.845 79.7705L166.123 80.1049V75.0928H168.618V88.0892H166.123V86.9765C166.1 87.0105 166.061 87.0575 166.012 87.115C165.962 87.1724 165.85 87.2769 165.686 87.4232C165.519 87.5725 165.338 87.7062 165.147 87.8228C164.911 87.9586 164.659 88.0639 164.397 88.1362C164.086 88.2278 163.763 88.2736 163.439 88.272C162.862 88.2735 162.29 88.1518 161.763 87.915C161.236 87.6781 160.766 87.3315 160.382 86.8982C159.548 85.9803 159.086 84.7829 159.086 83.5407C159.086 82.2985 159.548 81.1011 160.382 80.1832C160.766 79.7499 161.236 79.4033 161.763 79.1664C162.29 78.9296 162.862 78.8079 163.439 78.8094C163.941 78.806 164.437 78.9177 164.889 79.1359ZM165.473 85.3442C165.893 84.8384 166.124 84.2007 166.124 83.542C166.124 82.8833 165.893 82.2456 165.473 81.7399C165.274 81.5197 165.031 81.3436 164.761 81.2232C164.49 81.1028 164.197 81.0405 163.901 81.0405C163.605 81.0405 163.312 81.1028 163.042 81.2232C162.771 81.3436 162.529 81.5197 162.33 81.7399C161.909 82.2456 161.679 82.8833 161.679 83.542C161.679 84.2007 161.909 84.8384 162.33 85.3442C162.527 85.5669 162.769 85.7452 163.04 85.8673C163.311 85.9894 163.604 86.0526 163.901 86.0526C164.198 86.0526 164.492 85.9894 164.763 85.8673C165.033 85.7452 165.275 85.5669 165.473 85.3442V85.3442Z" fill="#091247"/>
<path d="M173.492 77.4043C173.194 77.6699 172.804 77.8069 172.406 77.7856C172.221 77.7946 172.036 77.7654 171.863 77.6998C171.69 77.6342 171.531 77.5336 171.398 77.4043C171.155 77.1242 171.021 76.7651 171.021 76.3935C171.021 76.0219 171.155 75.6629 171.398 75.3827C171.531 75.2541 171.688 75.1539 171.86 75.0883C172.033 75.0227 172.217 74.9932 172.401 75.0014C172.799 74.9801 173.189 75.1172 173.487 75.3827C173.741 75.6576 173.882 76.0186 173.882 76.3935C173.882 76.7684 173.741 77.1295 173.487 77.4043H173.492ZM173.708 88.0892H171.206V78.9897H173.708V88.0892Z" fill="#091247"/>
<path d="M182.402 86.603C182.366 86.6523 182.328 86.6994 182.287 86.7441C182.184 86.8522 182.075 86.9551 181.962 87.0523C181.8 87.201 181.626 87.3347 181.441 87.4519C181.205 87.5885 180.953 87.6947 180.691 87.7679C180.378 87.862 180.054 87.9095 179.728 87.909C178.686 87.909 177.748 87.4571 176.913 86.5534C176.103 85.6881 175.653 84.5459 175.653 83.3592C175.653 82.1724 176.103 81.0302 176.913 80.1649C177.755 79.2612 178.693 78.8094 179.728 78.8094C180.231 78.8066 180.729 78.9182 181.183 79.1359C181.536 79.285 181.858 79.5004 182.131 79.7705L182.412 80.1048V78.9896H184.904V87.3474C184.917 87.9631 184.802 88.5748 184.567 89.1436C184.331 89.7124 183.981 90.2258 183.537 90.6514C183.082 91.0937 182.543 91.44 181.952 91.6697C181.361 91.8994 180.731 92.0078 180.097 91.9886C179.594 91.9905 179.093 91.9219 178.608 91.7849C178.195 91.6732 177.797 91.5119 177.423 91.3043C177.135 91.1367 176.86 90.9472 176.601 90.7375C176.416 90.5942 176.249 90.4294 176.103 90.2465L175.931 90.0402L177.494 88.5514C177.58 88.6686 177.672 88.7811 177.77 88.8884C178.019 89.1103 178.301 89.2918 178.605 89.4264C179.037 89.6472 179.514 89.7609 179.998 89.7581C180.32 89.7837 180.644 89.7389 180.947 89.6268C181.25 89.5146 181.526 89.3379 181.754 89.1087C181.983 88.8796 182.159 88.6034 182.271 88.2993C182.382 87.9953 182.427 87.6705 182.402 87.3474V86.603ZM178.827 84.955C179.008 85.1581 179.231 85.3198 179.481 85.4293C179.73 85.5388 180 85.5935 180.272 85.5897C180.552 85.5901 180.829 85.5323 181.086 85.4199C181.343 85.3075 181.573 85.143 181.764 84.9367C182.173 84.5132 182.402 83.9465 182.402 83.3565C182.402 82.7666 182.173 82.1999 181.764 81.7764C181.573 81.5713 181.342 81.4079 181.085 81.2965C180.828 81.185 180.552 81.1279 180.272 81.1287C180 81.1252 179.731 81.1795 179.482 81.288C179.233 81.3965 179.01 81.5567 178.827 81.7581C178.445 82.2027 178.235 82.7699 178.235 83.3565C178.235 83.9432 178.445 84.5104 178.827 84.955V84.955Z" fill="#091247"/>
<path d="M189.676 77.4042C189.53 77.536 189.358 77.6375 189.172 77.7029C188.987 77.7683 188.79 77.7964 188.593 77.7855C188.408 77.7945 188.223 77.7653 188.05 77.6997C187.877 77.6341 187.719 77.5335 187.585 77.4042C187.342 77.124 187.208 76.765 187.208 76.3934C187.208 76.0218 187.342 75.6628 187.585 75.3826C187.718 75.254 187.875 75.1538 188.047 75.0882C188.22 75.0226 188.404 74.9931 188.588 75.0013C188.785 74.9904 188.981 75.0185 189.167 75.0839C189.353 75.1493 189.524 75.2508 189.671 75.3826C189.927 75.6566 190.069 76.018 190.069 76.3934C190.069 76.7688 189.927 77.1302 189.671 77.4042H189.676ZM189.895 88.0891H187.39V78.9896H189.895V88.0891Z" fill="#091247"/>
<path d="M193.501 76.3074H195.722V79.1804H197.573V81.4056H195.73V85.0204C195.728 85.1567 195.754 85.2919 195.808 85.4171C195.862 85.5422 195.942 85.6545 196.042 85.7465C196.253 85.9455 196.534 86.0534 196.823 86.0468C196.982 86.0462 197.141 86.0296 197.297 85.9972C197.417 85.9743 197.534 85.9393 197.646 85.8927L197.753 85.8562V87.9953C197.216 88.1846 196.65 88.2732 196.081 88.2564C194.172 88.2564 193.217 87.2048 193.217 85.1014V81.4056H191.655V79.1752H192.488C192.625 79.1758 192.761 79.1462 192.886 79.0884C193.01 79.0307 193.121 78.9461 193.209 78.8408C193.415 78.5995 193.523 78.2886 193.509 77.9711L193.501 76.3074Z" fill="#091247"/>
<path d="M204.507 87.1645C204.412 87.2745 204.311 87.3791 204.205 87.4779C203.946 87.6798 203.662 87.845 203.359 87.969C202.781 88.2294 202.143 88.3248 201.515 88.2446C200.887 88.1644 200.293 87.9118 199.799 87.5145C199.533 87.2912 199.318 87.0115 199.171 86.6955C199.025 86.3795 198.949 86.0349 198.951 85.6862C198.94 85.3447 198.998 85.0045 199.121 84.6856C199.243 84.3668 199.428 84.0756 199.664 83.8292C200.2 83.3021 200.891 82.9623 201.635 82.8602L204.499 82.3379C204.503 82.1611 204.468 81.9857 204.396 81.8244C204.324 81.663 204.217 81.5199 204.082 81.4055C203.753 81.148 203.341 81.0199 202.924 81.045C202.538 81.0398 202.157 81.1182 201.804 81.2749C201.536 81.3815 201.293 81.5434 201.091 81.7502L200.882 81.9696L199.5 80.5827L199.648 80.3868C199.78 80.2375 199.922 80.0971 200.073 79.9663C200.294 79.7688 200.535 79.5938 200.791 79.444C201.114 79.263 201.457 79.1193 201.812 79.0156C202.234 78.8871 202.673 78.8219 203.114 78.8224C204.147 78.78 205.154 79.15 205.915 79.8514C206.268 80.1813 206.547 80.5826 206.734 81.0288C206.921 81.475 207.011 81.956 206.998 82.4397V88.1022H204.504L204.507 87.1645ZM204.007 85.6941C204.36 85.2767 204.539 84.7388 204.507 84.1923V83.9128L202.473 84.2837C201.794 84.3934 201.453 84.7329 201.453 85.3075C201.453 85.9239 201.854 86.2321 202.656 86.2321C202.906 86.2436 203.156 86.2016 203.389 86.1089C203.622 86.0161 203.833 85.8747 204.007 85.6941V85.6941Z" fill="#091247"/>
<path d="M212 88.0892H209.498V75.0928H212V88.0892Z" fill="#091247"/>
<path d="M98.3738 78.8147C98.3738 78.8147 98.3738 81.9019 98.3738 83.1477C98.3738 84.148 97.775 85.0439 96.9053 85.7308C96.0357 86.4177 93.1379 88.4236 93.1379 88.4236L89.6073 90.9492L79 83.3749V79.0915L80.1951 79.9456L89.6021 86.671C89.6021 86.671 94.0023 83.563 96.1789 81.9698C96.1789 81.9698 96.5955 81.672 96.7309 81.5702C97.1763 81.2462 97.5515 80.835 97.8339 80.3614C98.1163 79.8877 98.3 79.3616 98.3738 78.8147Z" fill="#091247"/>
<path d="M93.1378 79.0941C93.1378 79.0941 92.9868 79.2116 92.9034 79.2612L89.6072 81.6119L86.0767 79.0889L89.6072 76.5658C90.1086 76.246 90.6925 76.0807 91.2866 76.0905C92.6587 76.0905 93.7705 76.8949 93.7705 77.8848C93.7644 78.1215 93.7041 78.3537 93.5944 78.5633C93.4847 78.773 93.3285 78.9546 93.1378 79.0941V79.0941Z" fill="#091247"/>
</svg>
