<?xml version="1.0" encoding="utf-8"?>
<!-- Generator: Adobe Illustrator 16.0.3, SVG Export Plug-In . SVG Version: 6.00 Build 0)  -->
<!DOCTYPE svg PUBLIC "-//W3C//DTD SVG 1.1//EN" "http://www.w3.org/Graphics/SVG/1.1/DTD/svg11.dtd">
<svg version="1.1" id="Layer_1" xmlns="http://www.w3.org/2000/svg" xmlns:xlink="http://www.w3.org/1999/xlink" x="0px" y="0px"
	 width="200px" height="48px" viewBox="0 0 200 48" enable-background="new 0 0 200 48" xml:space="preserve">
<g>
	<rect x="23.328" y="37.748" fill="#F7931E" width="28.414" height="4.458"/>
	<g>
		<g>
			<path d="M6.355,11.201v7.048h12.341V23.2H6.355v9.713H0.184V6.249h20.15v4.952H6.355z"/>
			<path d="M59.625,30.209c-2.121-2.108-3.181-5.117-3.181-9.028V6.249h6.171v14.703c0,4.774,1.981,7.161,5.942,7.161
				c1.93,0,3.402-0.577,4.419-1.732c1.015-1.156,1.523-2.964,1.523-5.429V6.249h6.094v14.932c0,3.911-1.061,6.92-3.181,9.028
				c-2.12,2.107-5.085,3.16-8.894,3.16C64.709,33.369,61.744,32.316,59.625,30.209z"/>
			<path d="M111.141,6.249v26.664h-5.066L92.782,16.725v16.188h-6.095V6.249h5.104l13.256,16.189V6.249H111.141z"/>
			<path d="M117.465,6.249h12.112c2.895,0,5.453,0.553,7.676,1.658c2.221,1.104,3.948,2.66,5.18,4.667
				c1.231,2.005,1.847,4.341,1.847,7.008c0,2.667-0.616,5.002-1.847,7.009c-1.232,2.006-2.959,3.562-5.18,4.666
				c-2.222,1.105-4.781,1.657-7.676,1.657h-12.112V6.249z M129.272,27.847c2.667,0,4.793-0.743,6.38-2.228
				c1.587-1.486,2.381-3.499,2.381-6.038s-0.794-4.552-2.381-6.037c-1.587-1.485-3.713-2.229-6.38-2.229h-5.637v16.531H129.272z"/>
			<path d="M165.915,32.913l-5.142-7.428h-0.305h-5.371v7.428h-6.17V6.249h11.541c2.361,0,4.412,0.394,6.152,1.181
				c1.739,0.788,3.079,1.905,4.018,3.351c0.939,1.448,1.41,3.163,1.41,5.143c0,1.981-0.477,3.689-1.429,5.124
				c-0.952,1.436-2.305,2.533-4.056,3.294l5.98,8.57H165.915z M164.353,12.479c-0.965-0.802-2.374-1.202-4.228-1.202h-5.028v9.295
				h5.028c1.854,0,3.263-0.406,4.228-1.219c0.965-0.813,1.448-1.956,1.448-3.428C165.801,14.427,165.318,13.276,164.353,12.479z"/>
			<path d="M189.455,23.466v9.446h-6.171V23.39L172.962,6.249h6.551l7.123,11.847l7.123-11.847h6.057L189.455,23.466z"/>
		</g>
		<g>
			<path d="M50.121,12.515c-1.27-2.094-3.009-3.739-5.218-4.933c-2.209-1.193-4.698-1.789-7.466-1.789
				c-2.768,0-5.263,0.596-7.485,1.789c-2.223,1.194-3.962,2.839-5.218,4.933c-1.257,2.095-1.886,4.451-1.886,7.066
				c0,2.616,0.629,4.971,1.886,7.065c1.257,2.095,2.996,3.74,5.218,4.933c1.526,0.819,3.184,1.352,4.967,1.608v-5.424
				c-0.611-0.178-1.195-0.42-1.749-0.736c-1.27-0.724-2.266-1.732-2.99-3.027c-0.723-1.295-1.085-2.768-1.085-4.419
				c0-1.65,0.362-3.124,1.085-4.419c0.724-1.295,1.72-2.304,2.99-3.028c1.27-0.723,2.691-1.085,4.266-1.085
				c1.574,0,2.996,0.362,4.266,1.085c1.27,0.724,2.267,1.733,2.991,3.028c0.723,1.295,1.085,2.769,1.085,4.419
				c0,1.651-0.362,3.124-1.085,4.419c-0.724,1.295-1.721,2.304-2.991,3.027c-0.494,0.282-1.011,0.506-1.552,0.68v5.451
				c1.705-0.267,3.291-0.79,4.752-1.579c2.209-1.193,3.948-2.838,5.218-4.933c1.27-2.094,1.905-4.449,1.905-7.065
				C52.026,16.966,51.39,14.61,50.121,12.515z"/>
		</g>
	</g>
</g>
</svg>
