<?xml version="1.0" encoding="utf-8"?>
<!-- Generator: Adobe Illustrator 24.0.1, SVG Export Plug-In . SVG Version: 6.00 Build 0)  -->
<svg version="1.1" id="Layer_1" xmlns="http://www.w3.org/2000/svg" xmlns:xlink="http://www.w3.org/1999/xlink" x="0px" y="0px"
	 viewBox="0 0 90 32" style="enable-background:new 0 0 90 32;" xml:space="preserve">
<style type="text/css">
	.st0{fill-rule:evenodd;clip-rule:evenodd;fill:#21242B;}
</style>
<path class="st0" d="M30.5,32C39.1,32,46,24.8,46,16c0-8.8-6.9-16-15.5-16S15,7.2,15,16C15,24.8,21.9,32,30.5,32z M30.5,27.4
	c6.1,0,11-5.1,11-11.4s-4.9-11.4-11-11.4s-11,5.1-11,11.4S24.4,27.4,30.5,27.4z M0,25.8V5.7h4.8v16h8v4.1H0z M50.5,25.8V5.7H55v9.5
	l10-9.5h6.8L62,15.7l6.2,6.5h2.2l16-16.5H90v20.1h-4.2V12.6l-13,13.2h-6.5L59,19.1L55,23v2.8H50.5z M30.5,19.6
	c1.9,0,3.5-1.6,3.5-3.6s-1.6-3.6-3.5-3.6S27,14,27,16S28.6,19.6,30.5,19.6z"/>
</svg>
