<?xml version="1.0" standalone="no"?>
<!DOCTYPE svg PUBLIC "-//W3C//DTD SVG 1.1//EN" "http://www.w3.org/Graphics/SVG/1.1/DTD/svg11.dtd">
<svg xmlns="http://www.w3.org/2000/svg" id="1626fc0e-ae5a-43fa-b32a-54c83c45c0ac" data-name="Layer 1" viewBox="0 0 354.96 81.37" width="354.9599914550781" height="81.37000274658203"><defs><style>.c2387ee7-1c81-4f3e-ae4f-92201c0b2f34{fill:#ea4a1f;}.\34 a8e18d1-db6f-44c7-a994-e8ff54ace0c2{fill:#231f20;}</style></defs><title>saunalogo-horizontal</title><path class="c2387ee7-1c81-4f3e-ae4f-92201c0b2f34" d="M495.7,358.2c-9.8-9.42-9.81-19-8.1-25.41a30,30,0,0,1,6.11-11.48l3.74-4.07,1.82,5.22A31.45,31.45,0,0,0,503,330c1.07-2,2.8-8.25,1.34-22l-1.43-13.51,7.48,11.34c0.31,0.47,7.68,11.69,11.13,20.43,3.91,9.93-3.18,21.92-3.49,22.42l-5.67-3.4c1.6-2.68,5.25-10.89,3-16.6a78,78,0,0,0-3.91-8.16c-0.35,8.53-2.33,14.15-5.8,16a5.57,5.57,0,0,1-6.37-.85,18,18,0,0,1-3.78-5.21,21.88,21.88,0,0,0-1.61,4.27c-1.72,6.71.41,13,6.35,18.71Zm7.94-27.55h0Z" transform="translate(-167.76 -294.49)"/><polygon class="4a8e18d1-db6f-44c7-a994-e8ff54ace0c2" points="351.66 63.9 311.04 81.37 311.04 74.65 351.66 57.19 351.66 63.9"/><path d="M171.6,347.14c3,3.46,7.63,3.6,7.63,1,0-1.54-1.49-2-3-2.5-4-1.25-6.82-2.5-6.82-6.48,0-3.79,3.41-6.29,7.34-6.29a13.85,13.85,0,0,1,8.26,2.45l-2.78,4.37c-4-2.88-6.77-2.64-7.06-.43-0.24,1.54,2,1.82,4.42,2.64,2.93,0.86,5.66,2.83,5.66,6.38,0,3.31-3.41,6.48-7.63,6.48a13.7,13.7,0,0,1-9.84-3.74Z" transform="translate(-167.76 -294.49)"/><path d="M210.57,343.83a11.46,11.46,0,1,1-11.47-10.94A11.15,11.15,0,0,1,210.57,343.83Zm-6,0a5.63,5.63,0,0,0-1.54-3.94,5.17,5.17,0,0,0-3.84-1.68,5,5,0,0,0-3.74,1.68,5.43,5.43,0,0,0-1.63,4,5.54,5.54,0,0,0,1.63,4,5.09,5.09,0,0,0,3.74,1.63,5.3,5.3,0,0,0,3.84-1.63A6,6,0,0,0,204.52,343.78Z" transform="translate(-167.76 -294.49)"/><path d="M230,325.06a3,3,0,0,0-2.26-1.15c-3.36,0-3.6,4.37-3.6,5.71v3.89h6.19v5.62h-6.19V354.2h-5.76V339.13h-3.94v-5.62h3.94v-3.89a12.84,12.84,0,0,1,2.54-8.26,8.67,8.67,0,0,1,6.82-3.22,8.78,8.78,0,0,1,6.62,3.12Z" transform="translate(-167.76 -294.49)"/><path d="M244.6,333.51v5.62h-4.8V354.2h-6.1V339.13h-4.32v-5.62h4.32v-7.68h6.1v7.68h4.8Z" transform="translate(-167.76 -294.49)"/><path d="M280.8,333.51L270,354.2h-0.82l-4.9-9.31-4.85,9.31h-0.77l-10.85-20.69h6l5.28,10,2.26-4.32-3-5.71h6l5.28,10,5.23-10h6Z" transform="translate(-167.76 -294.49)"/><path d="M304,333.51V354.2h-5.09v-2a10.94,10.94,0,1,1,0-16.71l0.48-2H304Zm-6,10.32a5.59,5.59,0,0,0-1.58-4,5.2,5.2,0,0,0-3.79-1.63,5.38,5.38,0,0,0-3.84,1.63,5.79,5.79,0,0,0-1.58,4,5.88,5.88,0,0,0,1.58,4,5.38,5.38,0,0,0,3.84,1.63,5.19,5.19,0,0,0,3.79-1.63A5.66,5.66,0,0,0,297.93,343.83Z" transform="translate(-167.76 -294.49)"/><path d="M314.3,335.86c1.54-2,4.27-2.88,7-2.88a10.74,10.74,0,0,1,3.5.58l-2.35,5.33a5.44,5.44,0,0,0-7.68,3.89V354.2h-6V333.51h4.66Z" transform="translate(-167.76 -294.49)"/><path d="M345.07,350.93a10.84,10.84,0,0,1-8.3,3.84,11,11,0,1,1,11-11,9.15,9.15,0,0,1-.19,2H332.11a6.09,6.09,0,0,0,1.2,2,4.94,4.94,0,0,0,3.7,1.68,5.11,5.11,0,0,0,3.55-1.54Zm-3.12-8.83a5.67,5.67,0,0,0-1.3-2.35,5,5,0,0,0-3.65-1.63,5.07,5.07,0,0,0-3.7,1.63,7,7,0,0,0-1.3,2.35h9.94Z" transform="translate(-167.76 -294.49)"/><path d="M353.32,347.14c3,3.46,7.63,3.6,7.63,1,0-1.54-1.49-2-3-2.5-4-1.25-6.82-2.5-6.82-6.48,0-3.79,3.41-6.29,7.35-6.29a13.85,13.85,0,0,1,8.26,2.45l-2.78,4.37c-4-2.88-6.77-2.64-7.06-.43-0.24,1.54,2,1.82,4.42,2.64,2.93,0.86,5.66,2.83,5.66,6.38,0,3.31-3.41,6.48-7.63,6.48a13.7,13.7,0,0,1-9.84-3.74Z" transform="translate(-167.76 -294.49)"/><path d="M392.59,333.51V354.2H387.5v-2a10.94,10.94,0,1,1,0-16.71l0.48-2h4.61Zm-6,10.32a5.58,5.58,0,0,0-1.58-4,5.19,5.19,0,0,0-3.79-1.63,5.38,5.38,0,0,0-3.84,1.63,5.8,5.8,0,0,0-1.58,4,5.88,5.88,0,0,0,1.58,4,5.38,5.38,0,0,0,3.84,1.63,5.19,5.19,0,0,0,3.79-1.63A5.66,5.66,0,0,0,386.54,343.83Z" transform="translate(-167.76 -294.49)"/><path d="M417.74,343.78a10.85,10.85,0,1,1-21.7,0V333.51h6.14v10.13a6.09,6.09,0,0,0,1.3,3.74,4.82,4.82,0,0,0,3.41,1.58,4.64,4.64,0,0,0,3.36-1.58,5.84,5.84,0,0,0,1.34-3.74V333.51h6.14v10.27Z" transform="translate(-167.76 -294.49)"/><path d="M427,335.33a9.22,9.22,0,0,1,5.91-2.4c5.57,0,10.13,4.9,10.13,11V354.2h-5.86V343.93c0-3-2.11-5.62-5-5.62s-5,2.64-5,5.62V354.2h-6V333.51h4.9Z" transform="translate(-167.76 -294.49)"/><path d="M469.63,333.51V354.2h-5.09v-2a10.94,10.94,0,1,1,0-16.71l0.48-2h4.61Zm-6,10.32a5.58,5.58,0,0,0-1.58-4,5.19,5.19,0,0,0-3.79-1.63,5.38,5.38,0,0,0-3.84,1.63,5.8,5.8,0,0,0-1.58,4,5.88,5.88,0,0,0,1.58,4,5.38,5.38,0,0,0,3.84,1.63,5.19,5.19,0,0,0,3.79-1.63A5.66,5.66,0,0,0,463.58,343.83Z" transform="translate(-167.76 -294.49)"/></svg>