<?xml version="1.0" encoding="utf-8"?>
<svg version="1.0" width="340.000000pt" height="248.000000pt" viewBox="0 0 340.000000 248.000000" preserveAspectRatio="xMidYMid meet" xmlns="http://www.w3.org/2000/svg">
  <g transform="translate(0.000000,248.000000) scale(0.100000,-0.100000)" fill="#000000" stroke="none">
    <path d="M3063 2416 c-217 -60 -246 -76 -287 -158 l-26 -52 0 -481 0 -481 -99 -26 c-55 -14 -102 -23 -105 -20 -3 3 -6 51 -6 108 0 71 -4 104 -12 106 -16 6 -167 -37 -181 -51 -6 -6 -13 -37 -15 -70 -4 -53 -7 -61 -31 -70 -49 -18 -139 -41 -165 -41 l-26 0 0 378 c0 207 4 383 8 390 9 13 191 64 204 56 4 -3 8 -49 8 -102 0 -53 4 -103 9 -111 8 -13 21 -12 92 5 45 10 88 25 96 32 20 20 18 312 -2 352 -17 32 -61 60 -95 60 -27 0 -352 -86 -399 -106 -43 -18 -75 -47 -104 -94 -22 -34 -22 -43 -27 -529 l-5 -495 -80 -21 c-44 -12 -92 -25 -107 -29 l-28 -6 0 332 c0 183 -4 339 -9 347 -8 13 -21 11 -92 -7 -45 -13 -89 -27 -96 -34 -10 -8 -13 -82 -13 -353 l0 -342 -37 -11 c-21 -5 -53 -13 -71 -17 -31 -6 -32 -6 -32 30 0 21 -6 38 -14 41 -11 4 -106 -18 -228 -52 -17 -5 -18 23 -18 481 0 423 -2 486 -15 491 -18 7 -141 -23 -172 -43 l-23 -13 -2 -537 -3 -537 -101 -27 -100 -26 4 136 c5 155 -6 229 -43 277 -31 41 -56 50 -237 88 l-153 32 -3 105 c-3 128 -3 128 121 160 104 28 107 26 107 -69 0 -43 4 -64 13 -68 21 -8 170 36 185 54 15 20 16 191 1 247 -16 56 -50 85 -102 85 -40 0 -390 -90 -425 -109 -26 -14 -68 -62 -88 -101 -17 -30 -19 -59 -19 -215 0 -179 0 -180 28 -228 37 -62 70 -77 242 -112 77 -15 146 -32 153 -38 8 -6 12 -38 12 -92 0 -111 -5 -115 -155 -154 -214 -55 -259 -69 -272 -87 -18 -25 -19 -567 0 -581 8 -7 79 16 232 77 221 89 813 322 1175 465 355 140 462 182 785 310 176 69 390 154 475 187 664 261 653 255 690 354 16 45 20 75 18 143 -4 102 -2 102 -117 71 -87 -24 -92 -29 -96 -104 -2 -26 -7 -52 -13 -58 -5 -5 -52 -20 -103 -33 -71 -18 -95 -21 -101 -12 -10 16 -10 259 1 275 4 7 23 17 42 22 112 27 263 72 284 86 36 24 76 81 91 132 18 58 19 397 2 454 -13 45 -67 88 -108 87 -14 0 -111 -24 -217 -53z m121 -202 c4 -9 6 -63 5 -120 -1 -82 -5 -108 -17 -123 -19 -21 -184 -67 -201 -57 -7 5 -11 52 -11 130 0 97 3 126 15 136 17 14 138 48 176 49 16 1 29 -6 33 -15z" style="fill: rgb(238, 59, 65);"/>
    <path d="M1575 2016 c-44 -12 -86 -25 -92 -29 -16 -10 -18 -183 -3 -192 15 -9 173 36 188 54 7 9 12 45 12 92 0 49 -4 80 -12 87 -9 6 -38 3 -93 -12z" style="fill: rgb(238, 59, 65);"/>
  </g>
</svg>