<?xml version="1.0" standalone="no"?>
<!DOCTYPE svg PUBLIC "-//W3C//DTD SVG 1.1//EN" "http://www.w3.org/Graphics/SVG/1.1/DTD/svg11.dtd">
<svg xmlns="http://www.w3.org/2000/svg" xmlns:xlink="http://www.w3.org/1999/xlink" version="1.1" id="Layer_1" x="0px" y="0px" viewBox="0 0 3000 575.88" style="enable-background:new 0 0 3000 575.88;" xml:space="preserve" width="3000" height="575.8800048828125">
<style type="text/css">
	.st0{fill:#0099FF;}
</style>
<g>
	<g>
		<path class="st0" d="M948.01,97.99c-103.17,0-186.8,84.34-186.8,188.37c0,104.04,83.64,188.37,186.8,188.37    c103.17,0,186.8-84.34,186.8-188.37C1134.81,182.33,1051.18,97.99,948.01,97.99z M948.01,424.51    c-75.66,0-136.99-61.85-136.99-138.14s61.33-138.14,136.99-138.14c75.66,0,136.99,61.85,136.99,138.14    S1023.67,424.51,948.01,424.51z M1101.02,144.92l27.55-122.26l-106.72,66.21l51.61,11.14L1101.02,144.92z M798.49,432.14    l-27.88,121.08l107.99-65.57l-52.22-11.03L798.49,432.14z M976.27,198.45c-19.95,0-36.12,16.17-36.12,36.11    c0,19.94,16.17,36.11,36.12,36.11c19.95,0,36.12-16.17,36.12-36.11C1012.39,214.61,996.22,198.45,976.27,198.45z M1977.21,32.05    c-19.95,0-36.12,16.16-36.12,36.11c0,19.94,16.17,36.11,36.12,36.11c19.95,0,36.12-16.17,36.12-36.11    C2013.33,48.21,1997.16,32.05,1977.21,32.05z M1432.35,387.62c-0.09-6.68-0.13-13.02-0.13-19.02V159.98h-56.78V305.4    c0,12.85-1.89,24.71-5.65,35.58c-3.77,10.88-9.04,20.21-15.8,28c-6.77,7.8-14.95,13.87-24.54,18.24    c-9.59,4.37-20.21,6.55-31.86,6.55c-12.5,0-22.99-2.01-31.47-6.04c-8.48-4.02-15.33-9.63-20.55-16.83    c-5.23-7.2-8.95-15.76-11.18-25.69c-2.23-9.93-3.34-20.81-3.34-32.63V159.98h-55.75v167c0,15.25,1.75,29.51,5.27,42.78    c3.51,13.28,9.25,24.88,17.21,34.81c7.96,9.94,18.37,17.73,31.22,23.38c12.85,5.65,28.52,8.48,47.02,8.48    c23.12,0,42.86-4.92,59.22-14.77c16.36-9.85,30.19-25.73,41.49-47.66h1.54c0,3.94,0.13,8.86,0.38,14.78    c0.26,5.91,0.52,11.82,0.77,17.73c0.26,5.91,0.73,14.17,1.41,24.79h52.93c-0.51-10.45-0.86-18.67-1.03-24.66    C1432.56,400.64,1432.43,394.3,1432.35,387.62z M1618.42,154.33c-10.79,0-20.13,1.41-28,4.24c-7.88,2.83-14.77,7.07-20.68,12.72    c-5.91,5.65-11.09,12.63-15.54,20.94c-4.46,8.31-8.48,17.86-12.08,28.65h-1.03c0-3.6-0.13-8.52-0.39-14.77    c-0.26-6.25-0.56-12.59-0.9-19.01c-0.35-6.42-0.86-15.46-1.54-27.1h-52.41c0.51,11.14,0.86,19.91,1.03,26.33    c0.17,6.42,0.3,13.19,0.39,20.3c0.08,7.11,0.13,13.75,0.13,19.91v204.77h55.75V299.75c0-14.55,1.5-27.79,4.5-39.7    c2.99-11.9,7.36-22.13,13.1-30.7c5.74-8.56,12.84-15.2,21.32-19.91c8.48-4.71,18.2-7.07,29.16-7.07c5.99,0,11.34,0.35,16.06,1.03    c4.71,0.69,8.95,1.63,12.72,2.83V156.9c-2.23-0.51-5.36-1.07-9.38-1.67C1626.6,154.63,1622.53,154.33,1618.42,154.33z     M1845.41,364.36c-3.94,6.94-8.91,12.72-14.9,17.34c-6,4.63-12.94,8.05-20.81,10.28c-7.88,2.23-16.44,3.34-25.69,3.34    c-24.84,0-44.19-8.39-58.07-25.18c-13.87-16.78-20.81-42.13-20.81-76.05c0-31.86,6.68-56.14,20.04-72.84    c13.36-16.7,32.8-25.05,58.32-25.05c19.18,0,34.51,4.24,45.99,12.72c11.47,8.48,18.67,21.11,21.58,37.9l57.29-4.11    c-2.57-13.36-7.02-25.48-13.36-36.36c-6.34-10.87-14.64-20.17-24.92-27.88c-10.28-7.71-22.53-13.66-36.74-17.86    c-14.22-4.2-30.41-6.29-48.56-6.29c-21.42,0-40.56,3.21-57.42,9.63c-16.88,6.42-31.14,15.76-42.78,28    c-11.65,12.25-20.55,27.23-26.72,44.96c-6.17,17.73-9.25,37.81-9.25,60.25c0,20.9,2.78,39.87,8.35,56.91    c5.56,17.04,13.96,31.69,25.18,43.93c11.22,12.25,25.26,21.71,42.14,28.39c16.87,6.68,36.61,10.02,59.22,10.02    c19.18,0,36.22-2.44,51.13-7.32c14.9-4.88,27.66-11.52,38.28-19.91c10.62-8.39,19.01-18.11,25.18-29.16    c6.17-11.05,10.11-22.74,11.82-35.07l-56.27-5.14C1852.09,349.25,1849.35,357.43,1845.41,364.36z M1947.05,431.29h55.75V159.98    h-55.75V431.29z M2239.07,364.36c-3.94,6.94-8.91,12.72-14.9,17.34c-6,4.63-12.94,8.05-20.81,10.28    c-7.88,2.23-16.44,3.34-25.69,3.34c-24.84,0-44.19-8.39-58.06-25.18c-13.87-16.78-20.81-42.13-20.81-76.05    c0-31.86,6.68-56.14,20.04-72.84c13.36-16.7,32.8-25.05,58.32-25.05c19.18,0,34.51,4.24,45.99,12.72    c11.47,8.48,18.67,21.11,21.58,37.9l57.29-4.11c-2.57-13.36-7.02-25.48-13.36-36.36c-6.34-10.87-14.65-20.17-24.92-27.88    c-10.28-7.71-22.53-13.66-36.74-17.86c-14.22-4.2-30.41-6.29-48.56-6.29c-21.41,0-40.55,3.21-57.42,9.63    c-16.88,6.42-31.13,15.76-42.78,28c-11.65,12.25-20.55,27.23-26.72,44.96c-6.17,17.73-9.25,37.81-9.25,60.25    c0,20.9,2.78,39.87,8.35,56.91c5.56,17.04,13.96,31.69,25.18,43.93c11.22,12.25,25.26,21.71,42.14,28.39    c16.87,6.68,36.61,10.02,59.22,10.02c19.18,0,36.22-2.44,51.13-7.32c14.9-4.88,27.66-11.52,38.28-19.91    c10.62-8.39,19.01-18.11,25.18-29.16c6.16-11.05,10.1-22.74,11.82-35.07l-56.27-5.14    C2245.75,349.25,2243.01,357.43,2239.07,364.36z M2599.18,238.73c-5.31-17.21-13.66-32.07-25.05-44.58    c-11.39-12.5-25.99-22.27-43.81-29.29c-17.82-7.02-39.31-10.53-64.49-10.53c-24.15,0-45.18,3.51-63.08,10.53    c-17.9,7.03-32.72,16.83-44.45,29.42c-11.74,12.59-20.51,27.49-26.34,44.7c-5.82,17.22-8.73,35.93-8.73,56.14    c0,20.9,3.08,40.04,9.25,57.42c6.17,17.39,15.2,32.29,27.11,44.7c11.9,12.42,26.59,22.06,44.06,28.9    c17.47,6.85,37.59,10.28,60.38,10.28c23.81,0,44.62-3.47,62.43-10.4c17.81-6.94,32.71-16.62,44.71-29.04    c11.99-12.42,20.98-27.27,26.98-44.58c5.99-17.3,8.99-36.4,8.99-57.29C2607.14,274.74,2604.48,255.94,2599.18,238.73z     M2542.91,340.73c-3.77,12.76-9.3,23.25-16.57,31.48c-7.28,8.22-16.18,14.3-26.72,18.24c-10.53,3.94-22.57,5.91-36.1,5.91    c-12.17,0-23.25-2.01-33.27-6.04c-10.02-4.02-18.59-10.15-25.69-18.37c-7.11-8.22-12.63-18.71-16.57-31.47    c-3.94-12.76-5.91-27.88-5.91-45.35c0-34.26,7.28-59.56,21.84-75.92c14.56-16.35,35.54-24.54,62.95-24.54    c13.19,0,24.88,1.93,35.07,5.78c10.19,3.85,18.76,9.89,25.69,18.11c6.94,8.22,12.16,18.67,15.67,31.34    c3.51,12.68,5.27,27.75,5.27,45.22C2548.56,312.77,2546.68,327.97,2542.91,340.73z M697.64,295.76    c-9.76-5.91-20.9-10.66-33.4-14.26c-12.51-3.6-25.18-6.77-38.03-9.51c-11.3-2.74-21.67-5.22-31.09-7.45    c-9.42-2.22-17.52-4.79-24.28-7.71c-6.77-2.91-12.04-6.59-15.8-11.05c-3.77-4.45-5.65-10.19-5.65-17.21    c0-11.47,5.18-20.38,15.54-26.72c10.36-6.33,25.56-9.51,45.6-9.51c8.05,0,15.67,0.6,22.87,1.8c7.19,1.2,13.62,3.25,19.27,6.17    c5.65,2.91,10.4,6.85,14.26,11.82c3.85,4.97,6.46,11.14,7.84,18.5l49.07-6.68c-2.57-12.33-7.07-22.91-13.49-31.73    c-6.42-8.82-14.52-16.06-24.28-21.71c-9.76-5.65-21.03-9.76-33.79-12.33c-12.76-2.57-26.68-3.85-41.75-3.85    c-18.33,0-34.52,1.84-48.56,5.52c-14.05,3.69-25.82,8.91-35.33,15.67c-9.51,6.77-16.7,15.07-21.58,24.92    c-4.88,9.85-7.32,20.94-7.32,33.27c0,13.19,2.7,24.15,8.09,32.89c5.4,8.74,12.5,15.97,21.33,21.71    c8.82,5.74,18.84,10.32,30.06,13.74c11.22,3.43,22.74,6.25,34.56,8.48c11.99,2.57,23.25,4.97,33.79,7.19    c10.53,2.23,19.74,5.01,27.62,8.35c7.88,3.34,14.04,7.54,18.5,12.59c4.45,5.05,6.68,11.52,6.68,19.4c0,7.54-1.71,13.87-5.14,19.01    c-3.43,5.14-8.22,9.33-14.39,12.59c-6.17,3.26-13.4,5.61-21.71,7.06c-8.31,1.46-17.34,2.19-27.11,2.19    c-9.76,0-18.8-0.55-27.1-1.67c-8.31-1.11-15.67-3.21-22.1-6.29c-6.42-3.08-11.86-7.41-16.31-12.98    c-4.46-5.57-7.71-12.89-9.76-21.97l-48.3,8.48c3.25,13.7,8.22,25.14,14.9,34.3c6.68,9.17,15.07,16.53,25.18,22.1    c10.1,5.57,22.09,9.55,35.97,11.95c13.87,2.4,29.71,3.6,47.53,3.6c19.18,0,36.23-1.93,51.13-5.78    c14.9-3.85,27.49-9.33,37.77-16.44c10.28-7.11,18.07-15.8,23.38-26.08c5.31-10.28,7.96-21.84,7.96-34.69    c0-14.04-3-25.69-8.99-34.94C715.28,309.26,707.4,301.68,697.64,295.76z"/>
	</g>
</g>
</svg>