<?xml version="1.0" encoding="UTF-8" standalone="no"?>
<!-- Created with Inkscape (http://www.inkscape.org/) -->

<svg
   xmlns:dc="http://purl.org/dc/elements/1.1/"
   xmlns:cc="http://creativecommons.org/ns#"
   xmlns:rdf="http://www.w3.org/1999/02/22-rdf-syntax-ns#"
   xmlns:svg="http://www.w3.org/2000/svg"
   xmlns="http://www.w3.org/2000/svg"
   xmlns:xlink="http://www.w3.org/1999/xlink"
   xmlns:sodipodi="http://sodipodi.sourceforge.net/DTD/sodipodi-0.dtd"
   xmlns:inkscape="http://www.inkscape.org/namespaces/inkscape"
   width="304.43365mm"
   height="173.14526mm"
   viewBox="0 0 304.43365 173.14526"
   version="1.1"
   id="svg8"
   inkscape:version="0.92.4 5da689c313, 2019-01-14"
   sodipodi:docname="beer_js_page.svg">
  <defs
     id="defs2">
    <pattern
       inkscape:collect="always"
       xlink:href="#Ermine"
       id="pattern2401"
       patternTransform="matrix(0.01153283,0,0,0.01322917,13.429957,0)" />
    <pattern
       inkscape:stockid="Ermine"
       patternUnits="userSpaceOnUse"
       width="783.093"
       height="797.156"
       patternTransform="translate(0,0) scale(0.05,0.05)"
       id="Ermine"
       inkscape:collect="always">
      <g
         id="g2575">
        <path
           style="fill:black;fill-opacity:1;fill-rule:evenodd;stroke:none;stroke-width:1;stroke-linecap:butt;stroke-linejoin:miter;stroke-miterlimit:4;stroke-opacity:1"
           d="M 566.875,361.31 C 529.023,361.31 498.281,392.05 498.281,429.90 C 498.281,467.75 529.023,498.46 566.875,498.46 C 604.726,498.46 635.437,467.75 635.437,429.90 C 635.437,392.05 604.726,361.31 566.875,361.31 z "
           id="path3042" />
        <path
           style="fill:black;fill-opacity:1;fill-rule:evenodd;stroke:none;stroke-width:1;stroke-linecap:butt;stroke-linejoin:miter;stroke-miterlimit:4;stroke-opacity:1"
           d="M 177.156,0.34 C 139.304,0.34 108.593,31.05 108.593,68.90 C 108.593,106.75 139.304,137.5 177.156,137.5 C 215.007,137.5 245.718,106.75 245.718,68.90 C 245.718,31.05 215.007,0.34 177.156,0.34 z "
           id="path3052" />
        <path
           style="opacity:0;fill:black;fill-opacity:1;fill-rule:evenodd;stroke:none;stroke-width:1;stroke-linecap:butt;stroke-linejoin:miter;stroke-miterlimit:4;stroke-opacity:1"
           d="M 783.093,117.93 C 780.736,124.86 779.437,132.27 779.437,140 C 779.437,147.71 780.739,155.13 783.093,162.06 L 783.093,117.93 z "
           id="path3050" />
        <path
           style="fill:black;fill-opacity:1;fill-rule:evenodd;stroke:none;stroke-width:1;stroke-linecap:butt;stroke-linejoin:miter;stroke-miterlimit:4;stroke-opacity:1"
           d="M 285.718,140.78 C 247.867,140.78 217.156,171.49 217.156,209.34 C 217.156,247.19 247.867,277.90 285.718,277.90 C 323.570,277.90 354.281,247.19 354.281,209.34 C 354.281,171.49 323.570,140.78 285.718,140.78 z "
           id="path3048" />
        <path
           style="fill:black;fill-opacity:1;fill-rule:evenodd;stroke:none;stroke-width:1;stroke-linecap:butt;stroke-linejoin:miter;stroke-miterlimit:4;stroke-opacity:1"
           d="M 161.375,165.06 C 144.552,433.12 73.284,537.85 28.593,722.31 L 126.687,653.71 L 180,722. L 233.312,653.65 L 325.687,722.21 C 273.529,536.18 207.547,433.42 192.75,165.06 L 161.375,165.06 z "
           id="path3044" />
        <path
           style="fill:black;fill-opacity:1;fill-rule:evenodd;stroke:none;stroke-width:1;stroke-linecap:butt;stroke-linejoin:miter;stroke-miterlimit:4;stroke-opacity:1"
           d="M 551.093,526.03 C 543.970,639.54 527.089,723.7 506.593,797.15 L 624,797.15 C 604.261,723.91 588.746,639.88 582.468,526.03 L 551.093,526.03 z "
           id="path3036" />
        <path
           style="fill:black;fill-opacity:1;fill-rule:evenodd;stroke:none;stroke-width:1;stroke-linecap:butt;stroke-linejoin:miter;stroke-miterlimit:4;stroke-opacity:1"
           d="M 675.437,501. C 637.586,501. 606.875,532.46 606.875,570.31 C 606.875,608.16 637.586,638.90 675.437,638.90 C 713.288,638.90 744.000,608.16 744,570.31 C 744,532.46 713.288,501. 675.437,501. z "
           id="path3040" />
        <path
           style="fill:black;fill-opacity:1;fill-rule:evenodd;stroke:none;stroke-width:1;stroke-linecap:butt;stroke-linejoin:miter;stroke-miterlimit:4;stroke-opacity:1"
           d="M 68.593,143.6 C 30.742,143.6 0,174.36 0,212.21 C 0,250.07 30.742,280.78 68.593,280.78 C 106.445,280.78 137.156,250.07 137.156,212.21 C 137.156,174.36 106.445,143.6 68.593,143.6 z "
           id="path3046" />
        <path
           style="fill:black;fill-opacity:1;fill-rule:evenodd;stroke:none;stroke-width:1;stroke-linecap:butt;stroke-linejoin:miter;stroke-miterlimit:4;stroke-opacity:1"
           d="M 507.406,0 C 479.357,101.33 444.335,181.71 418.312,289.1 L 516.406,220.53 L 569.718,289.09 L 623.031,220.5 L 715.406,289.03 C 685.074,180.8 650.084,100.80 623.187,0 L 507.406,0 z "
           id="path3054" />
        <path
           style="fill:black;fill-opacity:1;fill-rule:evenodd;stroke:none;stroke-width:1;stroke-linecap:butt;stroke-linejoin:miter;stroke-miterlimit:4;stroke-opacity:1"
           d="M 458.281,504.6 C 420.429,504.6 389.718,535.33 389.718,573.18 C 389.718,611.03 420.429,641. 458.281,641. C 496.132,641. 526.875,611.03 526.875,573.18 C 526.875,535.33 496.132,504.62 458.281,504.6 z "
           id="path3038" />
      </g>
    </pattern>
  </defs>
  <sodipodi:namedview
     id="base"
     pagecolor="#ffffff"
     bordercolor="#666666"
     borderopacity="1.0"
     inkscape:pageopacity="0.0"
     inkscape:pageshadow="2"
     inkscape:zoom="0.7"
     inkscape:cx="517.29137"
     inkscape:cy="308.67311"
     inkscape:document-units="mm"
     inkscape:current-layer="layer2"
     showgrid="false"
     inkscape:window-width="1920"
     inkscape:window-height="1161"
     inkscape:window-x="1440"
     inkscape:window-y="0"
     inkscape:window-maximized="1"
     fit-margin-top="0"
     fit-margin-left="0"
     fit-margin-right="0"
     fit-margin-bottom="0" />
  <metadata
     id="metadata5">
    <rdf:RDF>
      <cc:Work
         rdf:about="">
        <dc:format>image/svg+xml</dc:format>
        <dc:type
           rdf:resource="http://purl.org/dc/dcmitype/StillImage" />
        <dc:title></dc:title>
      </cc:Work>
    </rdf:RDF>
  </metadata>
  <g
     inkscape:groupmode="layer"
     id="layer2"
     inkscape:label="Label"
     transform="translate(47.481361,-61.927348)">
    <path
       style="fill:#ffffff;stroke:url(#pattern2401);stroke-width:0.30000001;stroke-miterlimit:4;stroke-dasharray:none;stroke-dashoffset:0"
       d="m 104.9659,62.077348 c -36.856278,-2.040895 -68.006064,26.70295 -82.964489,55.617792 -23.1109238,0 -46.221848,0 -69.332772,0 0,20.53656 0,41.07312 0,61.60968 23.78525,0 47.57049933,0 71.355749,0 17.538437,51.02421 86.427342,72.50117 129.855462,40.46335 16.51491,-8.06674 24.01902,-29.0621 34.05053,-40.46335 22.95731,0 45.91461,0 68.87191,0 0,-20.53656 0,-41.07312 0,-61.60968 -23.63148,0 -47.26295,0 -70.89443,0 C 173.75189,84.728411 140.08048,61.658163 104.9659,62.077348 Z"
       id="path130"
       inkscape:connector-curvature="0" />
  </g>
  <g
     inkscape:label="Logo"
     inkscape:groupmode="layer"
     id="layer1"
     transform="translate(47.481361,-61.927348)">
    <g
       id="g110"
       transform="matrix(0.26458333,0,0,0.26458333,59.491667,87.632605)"
       style="opacity:0.75">
	<g
   id="g102">
		<path
   id="path92"
   d="m 338.2,57.2 c 0.1,-0.6 0.2,-1.2 0.2,-1.8 C 338.4,35.1 260.9,5.5 174.2,5.5 87.5,5.5 5.6,33.6 5.6,53.9 c 0,0.6 0.1,1.2 0.2,1.8 l 47.8,334.4 h 0.1 c 0,0.5 -0.1,1 -0.1,1.5 0,34.8 54,63 120.6,63 66.6,0 120.6,-28.2 120.6,-63 0,-0.5 -0.1,-1 -0.1,-1.5 h 0.1 z"
   inkscape:connector-curvature="0"
   style="fill:#b5cde3" />

		<path
   id="path94"
   d="M 58.2,196.6 84,387.5 c 0,0 7.8,13.9 12.1,16.2 12.9,6.7 38.1,18.6 78.2,17.9 53.5,-0.9 85.3,-20.3 85.3,-20.3 l 8.6,-13.4 25.1,-199.6 z"
   inkscape:connector-curvature="0"
   style="fill:#fbde34" />

		<path
   id="path96"
   d="M 47.2,102.6 C 50.9,95.7 57.3,86.2 64.7,81.7 72.1,77.2 118.3,62.4 178.2,62.9 238,63.4 285,80.5 291.9,88.1 c 6.9,7.6 12.5,22.3 12.5,22.3 l -11.1,77.9 c 0,0 -10.6,7.3 -22.8,11.3 -12.2,4 -46.4,0.8 -56.5,5.2 -10.1,4.3 -38.7,19.8 -38.7,19.8 0,0 -25.9,20.7 -53.2,14.7 -17.3,-3.7 -35.1,-34.7 -47.3,-35.6 -9.5,-0.7 -15.6,-3.9 -15.6,-3.9 0,0 -15.7,-90.3 -12,-97.2 z"
   inkscape:connector-curvature="0"
   style="fill:#ffffff" />

		<path
   id="path98"
   d="m 126.6,269.1 c 0,11 -11.3,19.9 -25.2,19.9 -13.9,0 -25.2,-8.9 -25.2,-19.9 0,-11 11.3,-19.9 25.2,-19.9 14,0.1 25.2,8.9 25.2,19.9 z"
   inkscape:connector-curvature="0"
   style="fill:#ffffff" />

		<path
   id="path100"
   d="m 121.3,294.8 c 0,5.6 -5.6,10.2 -12.6,10.2 -7,0 -12.6,-4.6 -12.6,-10.2 0,-5.6 5.6,-10.2 12.6,-10.2 7,0 12.6,4.6 12.6,10.2 z"
   inkscape:connector-curvature="0"
   style="fill:#ffffff" />

	</g>

	<g
   id="g108">
		<path
   id="path104"
   d="m 90.3,380.6 19,-11.5 c 3.7,6.5 7,12 15,12 7.7,0 12.5,-3 12.5,-14.6 V 287.3 H 160 v 79.5 c 0,24.1 -14.1,35.1 -34.8,35.1 -18.6,0 -29.4,-9.7 -34.9,-21.3"
   inkscape:connector-curvature="0"
   style="fill:#343433" />

		<path
   id="path106"
   d="m 172.7,378.1 19,-11 c 5,8.2 11.5,14.1 23,14.1 9.6,0 15.8,-4.8 15.8,-11.5 0,-8 -6.3,-10.8 -17,-15.5 l -5.8,-2.5 c -16.8,-7.1 -27.9,-16.1 -27.9,-35.1 0,-17.5 13.3,-30.8 34.1,-30.8 14.8,0 25.5,5.2 33.1,18.6 L 228.9,316 c -4,-7.1 -8.3,-10 -15,-10 -6.8,0 -11.1,4.3 -11.1,10 0,7 4.3,9.8 14.3,14.1 l 5.8,2.5 c 19.8,8.5 30.9,17.1 30.9,36.6 0,21 -16.5,32.4 -38.6,32.4 -21.7,0.3 -35.7,-10 -42.5,-23.5"
   inkscape:connector-curvature="0"
   style="fill:#343433" />

	</g>

</g>
  </g>
</svg>
