<?xml version="1.0" encoding="UTF-8" standalone="no"?>
<!-- Created with Inkscape (http://www.inkscape.org/) -->

<svg
   width="938.10864"
   height="937.94531"
   viewBox="0 0 938.10864 937.94528"
   version="1.1"
   id="SVGRoot"
   xml:space="preserve"
   sodipodi:docname="beerjs.skopje.svg"
   inkscape:version="1.2.2 (b0a8486541, 2022-12-01)"
   inkscape:export-filename="beerjs.skopje.centered.pdf"
   inkscape:export-xdpi="300"
   inkscape:export-ydpi="300"
   xmlns:inkscape="http://www.inkscape.org/namespaces/inkscape"
   xmlns:sodipodi="http://sodipodi.sourceforge.net/DTD/sodipodi-0.dtd"
   xmlns="http://www.w3.org/2000/svg"
   xmlns:svg="http://www.w3.org/2000/svg"><sodipodi:namedview
     id="namedview212"
     pagecolor="#ffffff"
     bordercolor="#000000"
     borderopacity="0.25"
     inkscape:showpageshadow="2"
     inkscape:pageopacity="0.0"
     inkscape:pagecheckerboard="0"
     inkscape:deskcolor="#d1d1d1"
     showgrid="false"
     inkscape:zoom="0.54955949"
     inkscape:cx="324.8056"
     inkscape:cy="600.48094"
     inkscape:window-width="1904"
     inkscape:window-height="1091"
     inkscape:window-x="1928"
     inkscape:window-y="64"
     inkscape:window-maximized="0"
     inkscape:current-layer="g12053" /><defs
     id="defs290"><filter
       style="color-interpolation-filters:sRGB"
       id="filter8641"
       x="-0.0037649374"
       y="-0.0037421344"
       width="1.0075288"
       height="1.0075065"><feColorMatrix
         type="hueRotate"
         values="330"
         result="color1"
         id="feColorMatrix8637" /><feColorMatrix
         type="saturate"
         values="0.6"
         result="color2"
         id="feColorMatrix8639" /></filter></defs><g
     id="g12053"
     transform="translate(-43.306868,-47.962891)"><g
       id="layer4"
       style="display:inline"><path
         style="display:inline;fill:#d2c2a6;fill-opacity:1"
         d="m 509.51172,47.962891 c -35.62567,-1.68e-4 -71.07959,9.207148 -104.47852,21.958984 -29.95059,11.19716 -53.48139,33.969015 -75.10547,56.728515 -21.12337,23.09606 -41.15152,47.4996 -57.11523,74.49805 -7.38748,16.53858 -23.54702,26.21569 -38.50195,35.04883 -13.56307,8.10101 -28.40196,14.14186 -41.07422,23.66406 -8.79589,8.35627 -9.41393,21.26088 -10.11328,32.61328 -1.25319,15.06245 -0.45617,30.24453 -0.73243,45.35351 0.31236,130.18451 1.12169,260.37134 3.01954,390.54297 0.41164,10.57532 -0.50784,21.43183 3.20117,31.56836 3.82832,12.47731 8.34424,25.38956 17.91601,34.70508 8.57,10.12278 21.06417,15.57666 33.61914,18.9082 9.63284,3.36602 21.78813,5.43536 26.86329,15.45704 8.2746,13.94082 13.76269,29.41094 22.52734,43.04687 10.39533,12.82471 20.50035,25.97783 32.05859,37.78125 16.97638,13.23369 33.6012,27.17707 52.31446,37.92969 20.92411,8.86888 41.0441,19.96364 62.94531,26.32617 6.79161,1.17123 13.4647,3.30059 20.22265,4.98242 13.69014,2.35125 27.39184,4.1633 41.29297,5.11133 3.49287,0.62149 10.21896,1.58026 13.99024,1.7207 3.77127,-0.14044 10.49737,-1.09921 13.99023,-1.7207 13.90113,-0.94803 27.60283,-2.76008 41.29297,-5.11133 6.75795,-1.68183 13.43105,-3.81119 20.22266,-4.98242 21.90121,-6.36253 42.0212,-17.45729 62.94531,-26.32617 18.71326,-10.75262 35.33612,-24.696 52.3125,-37.92969 11.55824,-11.80342 21.66522,-24.95654 32.06055,-37.78125 8.76465,-13.63593 14.25274,-29.10605 22.52734,-43.04687 5.07516,-10.02168 17.23044,-12.09102 26.86328,-15.45704 12.55497,-3.33154 25.04719,-8.78542 33.61719,-18.9082 9.57177,-9.31552 14.08965,-22.22777 17.91797,-34.70508 3.70901,-10.13653 2.78953,-20.99304 3.20117,-31.56836 1.89785,-130.17163 2.70718,-260.35846 3.01953,-390.54297 -0.27626,-15.10898 0.52077,-30.29106 -0.73242,-45.35351 -0.69935,-11.3524 -1.31739,-24.25701 -10.11328,-32.61328 -12.67226,-9.5222 -27.51115,-15.56305 -41.07422,-23.66406 -14.95493,-8.83314 -31.11447,-18.51025 -38.50195,-35.04883 C 735.94645,174.14999 715.91634,149.74645 694.79297,126.65039 673.16889,103.89089 649.64004,81.119035 619.68945,69.921875 586.29052,57.170039 550.83661,47.962723 515.21094,47.962891 h -2.84961 z"
         id="path6052"
         class="UnoptimicedTransforms" /><path
         style="display:inline;fill:#30282a;fill-opacity:1"
         d="m 509.51172,47.962891 c -35.62567,-1.68e-4 -71.07959,9.207148 -104.47852,21.958984 -29.95059,11.19716 -53.48139,33.969015 -75.10547,56.728515 -21.12337,23.09606 -41.15152,47.4996 -57.11523,74.49805 -7.38748,16.53858 -23.54702,26.21569 -38.50195,35.04883 -13.56307,8.10101 -28.40196,14.14186 -41.07422,23.66406 -8.79589,8.35627 -9.41393,21.26088 -10.11328,32.61328 -1.25319,15.06245 -0.45617,30.24453 -0.73243,45.35351 0.31236,130.18451 1.12169,260.37134 3.01954,390.54297 0.41164,10.57532 -0.50784,21.43183 3.20117,31.56836 3.82832,12.47731 8.34424,25.38956 17.91601,34.70508 8.57,10.12278 21.06417,15.57666 33.61914,18.9082 9.63284,3.36602 21.78813,5.43536 26.86329,15.45704 8.2746,13.94082 13.76269,29.41094 22.52734,43.04687 10.39533,12.82471 20.50035,25.97783 32.05859,37.78125 16.97638,13.23369 33.6012,27.17707 52.31446,37.92969 20.92411,8.86888 41.0441,19.96364 62.94531,26.32617 6.79161,1.17123 13.4647,3.30059 20.22265,4.98242 13.69014,2.35125 27.39184,4.1633 41.29297,5.11133 3.49874,0.62254 10.24213,1.58278 14.00977,1.7207 3.76764,-0.13792 10.50907,-1.09816 14.00781,-1.7207 13.90113,-0.94803 27.60283,-2.76008 41.29297,-5.11133 6.75795,-1.68183 13.43105,-3.81119 20.22266,-4.98242 21.90121,-6.36253 42.02315,-17.45729 62.94726,-26.32617 18.71326,-10.75262 35.33612,-24.696 52.3125,-37.92969 11.55824,-11.80342 21.66327,-24.95654 32.0586,-37.78125 8.76465,-13.63593 14.25274,-29.10605 22.52734,-43.04687 5.07516,-10.02168 17.23044,-12.09102 26.86328,-15.45704 12.55497,-3.33154 25.04914,-8.78542 33.61914,-18.9082 9.57177,-9.31552 14.08965,-22.22777 17.91797,-34.70508 3.70901,-10.13653 2.78758,-20.99304 3.19922,-31.56836 1.89785,-130.17163 2.70718,-260.35846 3.01953,-390.54297 -0.27626,-15.10898 0.52077,-30.29106 -0.73242,-45.35351 -0.69935,-11.3524 -1.31544,-24.25701 -10.11133,-32.61328 -12.67226,-9.5222 -27.5131,-15.56305 -41.07617,-23.66406 -14.95493,-8.83314 -31.11447,-18.51025 -38.50195,-35.04883 C 735.98356,174.14999 715.9554,149.74645 694.83203,126.65039 673.20795,103.89089 649.67715,81.119035 619.72656,69.921875 586.32763,57.170039 550.87372,47.962723 515.24805,47.962891 h -2.86719 z"
         id="path6044"
         class="UnoptimicedTransforms"
         transform="matrix(0.95,0,0,0.95,25.6,25.846387)" /><path
         style="display:inline;fill:#30282a;fill-opacity:1;stroke:#584236;stroke-width:8.18713;stroke-dasharray:none;stroke-opacity:1"
         d="m 509.51172,47.962891 c -35.62567,-1.68e-4 -71.07959,9.207148 -104.47852,21.958984 -29.95059,11.19716 -53.48139,33.969015 -75.10547,56.728515 -21.12337,23.09606 -41.15152,47.4996 -57.11523,74.49805 -7.38748,16.53858 -23.54702,26.21569 -38.50195,35.04883 -13.56307,8.10101 -28.40196,14.14186 -41.07422,23.66406 -8.79589,8.35627 -9.41393,21.26088 -10.11328,32.61328 -1.25319,15.06245 -0.45617,30.24453 -0.73243,45.35351 0.31236,130.18451 1.12169,260.37134 3.01954,390.54297 0.41164,10.57532 -0.50784,21.43183 3.20117,31.56836 3.82832,12.47731 8.34424,25.38956 17.91601,34.70508 8.57,10.12278 21.06417,15.57666 33.61914,18.9082 9.63284,3.36602 21.78813,5.43536 26.86329,15.45704 8.2746,13.94082 13.76269,29.41094 22.52734,43.04687 10.39533,12.82471 20.50035,25.97783 32.05859,37.78125 16.97638,13.23369 33.6012,27.17707 52.31446,37.92969 20.92411,8.86888 41.0441,19.96364 62.94531,26.32617 6.79161,1.17123 13.4647,3.30059 20.22265,4.98242 13.69014,2.35125 27.39184,4.1633 41.29297,5.11133 3.51186,0.62487 10.29149,1.59041 14.05079,1.72266 3.75929,-0.13225 10.53892,-1.09779 14.05078,-1.72266 13.90113,-0.94803 27.60282,-2.76008 41.29296,-5.11133 6.75796,-1.68183 13.43105,-3.81119 20.22266,-4.98242 21.90121,-6.36253 42.02316,-17.45729 62.94727,-26.32617 18.71326,-10.75262 35.33612,-24.696 52.3125,-37.92969 11.55824,-11.80342 21.66326,-24.95654 32.05859,-37.78125 8.76465,-13.63593 14.25274,-29.10605 22.52734,-43.04687 5.07516,-10.02168 17.23045,-12.09102 26.86329,-15.45704 12.55497,-3.33154 25.04914,-8.78542 33.61914,-18.9082 9.57177,-9.31552 14.08964,-22.22777 17.91797,-34.70508 3.70901,-10.13653 2.78953,-20.99304 3.20117,-31.56836 1.89785,-130.17163 2.70718,-260.35846 3.01953,-390.54297 -0.27626,-15.10898 0.51881,-30.29106 -0.73438,-45.35351 -0.69935,-11.3524 -1.31544,-24.25701 -10.11132,-32.61328 -12.67227,-9.5222 -27.51311,-15.56305 -41.07618,-23.66406 -14.95493,-8.83314 -31.11252,-18.51025 -38.5,-35.04883 C 736.06949,174.14999 716.03939,149.74645 694.91602,126.65039 673.29194,103.89089 649.76309,81.119035 619.8125,69.921875 586.41357,57.170039 550.95965,47.962723 515.33398,47.962891 h -2.9121 z"
         id="path6333"
         transform="matrix(0.855,0,0,0.855,74.24,74.954522)"
         class="UnoptimicedTransforms" /><g
         id="g7600"
         style="display:inline"><g
           id="g5684"
           transform="translate(480.68916,102.84669)"><path
             style="fill:#e4d5ba;fill-opacity:1;stroke:none;stroke-width:0.3;stroke-dasharray:none;stroke-opacity:1"
             d="m -15.322226,75.299264 0.623404,2.68246 -2.106671,5.54793 -1.914703,4.67026 -0.56908,3.4197 1.121431,2.93748 0.875865,0.49245 1.36707,-1.19868 1.599717,-5.58993 2.87327,-5.12347 1.363224,-0.64338 5.7510418,-2.03869 2.508714,-3.95578 2.68268228,-1.39611 2.40151702,1.97956 -1.0865578,2.46159 3.1552707,2.84333 5.036734,-0.90929 4.883123,-3.2347 c 0,0 0.884647,1.83609 1.873117,2.46339 0.988469,0.62729 2.834441,1.12173 2.834441,1.12173 0,0 3.573644,-0.98681 2.634818,-2.40118 -0.938826,-1.41438 -1.599536,-3.49571 -1.599536,-3.49571 0,0 1.594274,-1.25679 2.490933,-0.0961 0.896659,1.16066 1.591552,2.4135 1.591552,2.4135 l 0.743484,2.22217 1.820026,1.45297 3.082439,-1.99255 1.482359,-4.76922 3.95816,5.89324 4.081867,-5.39901 1.959339,4.23666 1.335535,-0.12184 4.098234,-4.63912 1.616519,-3.35591 1.132572,6.26202 c 0,0 0.463552,2.47438 1.123064,2.47438 0.659512,0 3.35827,-1.45921 3.310369,-3.15233 -0.0479,-1.69311 -0.962668,-5.50919 -0.962668,-5.50919 l 2.737623,-1.5967 c 0,0 2.482078,-0.98635 2.724632,1.26544 0.242554,2.25179 -0.157711,3.42328 -0.157711,3.42328 l -2.152975,3.94877 2.261152,1.15481 c 0,0 2.703911,0.34825 2.855344,-1.78157 0.151433,-2.12981 0.838089,-8.0015 1.961444,-8.0015 1.123354,0 2.915039,0.88391 2.915039,0.88391 0,0 0.873724,1.86745 2.22294,1.62928 1.349216,-0.23817 5.381731,0.11575 4.69649,-1.88917 -0.68524,-2.00492 -2.201747,-4.96848 -2.201747,-4.96848 l -6.302485,-3.894342 -5.152858,-0.33758 -14.190535,-0.757219 -19.399096,-0.425944 -22.8225772,0.893588 -9.4872225,0.246255 -5.1087313,1.242096 -5.717256,2.392785 -2.607891,3.557071 0.239796,1.86076 0.6651,1.98161 z"
             id="path4973" /><path
             style="fill:#584236;fill-opacity:1;stroke:none;stroke-width:0.3;stroke-dasharray:none;stroke-opacity:1"
             d="m -16.261578,68.988338 c 0,2.223896 1.023579,4.609637 1.023579,4.609637 l 1.867382,2.513348 c 0,0 -4.601868,13.223328 -2.480913,10.041767 2.120954,-3.18156 3.596662,-5.689083 3.596662,-5.689083 l 3.7534458,-2.137634 1.4875629,0.605063 2.6692582,-0.05371 3.2264913,-4.686823 4.3885823,0.273158 c 0,0 1.049495,0.833142 0.7019043,1.847034 -0.3475907,1.013891 -0.4884129,3.656912 -0.4884129,3.656912 l 6.2896822,0.87484 0.8071099,-6.606898 c 0,0 4.99031,-0.779666 8.267557,-1.677363 3.277247,-0.897697 5.533995,-0.552589 5.533995,-0.552589 l 2.985646,3.662789 1.024399,2.330713 3.366647,-4.808479 2.547167,2.317164 c 0,0 5.31024,-5.240418 6.372411,-2.928271 1.062171,2.312148 2.920572,0.96934 3.456815,-0.193104 0.536243,-1.162444 5.73481,-9.37666 6.269052,-3.638033 0.534241,5.738626 0.306586,5.836744 0.744448,4.36357 0.437863,-1.473174 5.955178,-6.552037 6.819408,-6.065734 0.864229,0.486302 10.825912,3.243029 10.825912,3.243029 l 5.280114,1.641484 -1.753554,-4.419567 -9.764717,-3.278626 -7.762413,-2.184963 c 0,0 -19.316249,0.284993 -21.007809,1.741821 -1.69156,1.456829 -10.633719,1.312369 -11.285381,-0.201219 -0.651662,-1.513589 -8.02081,-2.594812 -9.731615,-0.397641 -1.710805,2.197172 -4.7524416,4.632751 -10.4028813,2.926731 -5.6504396,-1.706019 -15.8394697,0.194477 -15.8394697,0.194477 z"
             id="path5129" /></g><g
           id="g5692"
           transform="translate(479.45512,66.723475)"><path
             style="fill:#e4d5ba;fill-opacity:1;stroke:none;stroke-width:0.3;stroke-dasharray:none;stroke-opacity:1"
             d="m -10.722502,135.29481 c -4.745242,2.04261 -2.468539,6.71816 -2.161516,10.65516 0.575538,7.89133 -1.951307,15.7655 -2.632016,23.64988 -4.744185,34.0504 -10.078494,68.04701 -14.453235,102.13109 -0.377664,12.01555 -0.539279,24.59543 -8.032865,34.64958 -4.907222,10.72036 -14.443938,18.15626 -21.826583,27.12022 -4.899334,5.29016 -6.2422,12.87581 -9.584416,19.171 -1.71383,12.66135 -3.258243,25.33453 -2.941384,38.13768 -0.03667,10.2238 -0.408343,20.43065 -1.487433,30.60172 5.162091,1.2269 8.328311,5.22283 6.981226,-0.0736 -0.06822,-16.62839 -2.44934,-39.04643 -0.05316,-55.57882 0.551734,-5.79406 0.416528,-11.78801 4.024449,-16.69273 3.842832,-7.43983 7.002411,-15.33668 13.221567,-21.18707 6.067172,-7.41613 12.908841,-14.39519 18.588106,-22.00346 4.48676,-15.3597 5.126753,-31.50932 8.211832,-47.17609 4.258418,-26.69753 8.832497,-53.36901 12.453009,-80.15291 1.4005026,-13.20241 2.2364369,-26.43933 2.4392687,-39.71496 z"
             id="path5686" /><path
             style="fill:#e4d5ba;fill-opacity:1;stroke:none;stroke-width:0.3;stroke-dasharray:none;stroke-opacity:1"
             d="m 0.49503316,130.64439 c -2.64211566,5.7222 -6.59113746,11.10016 -5.85554266,17.71206 l -1.3329588,22.8236 c -5.2957647,-0.9079 -4.3212497,4.90152 -1.2295256,6.67944 2.5854578,5.06437 -3.8402231,6.03327 -3.6570741,8.43146 2.4060348,2.55515 4.3027324,7.50695 2.0976534,10.02972 -4.7677114,-0.63088 -7.4501364,1.34728 -7.8388804,6.1952 1.142071,2.88423 9.7308224,4.01046 6.062116,7.79856 -0.942718,5.0893 -8.299537,1.26155 -6.764977,7.38405 1.971522,3.61879 5.51863,6.753 4.742138,11.34792 -0.220877,3.9632 -0.859212,8.30025 -5.263717,9.51896 -4.988808,1.25499 -3.983176,7.5852 1.383407,5.07924 4.338392,-0.6675 0.373111,6.75786 1.090023,9.56703 -2.015268,16.17627 -2.529674,32.55098 -4.994139,48.6485 -0.831082,4.42985 -1.234303,9.05976 -4.922593,12.15353 -6.373679,8.68853 -14.05261,16.33579 -21.005421,24.47863 -3.118847,6.82049 -7.375831,13.29151 -7.499303,21.03172 -3.413371,16.70158 -1.632082,33.85647 -2.927198,50.73115 l -2.462555,11.58215 15.744374,-1.17619 c -0.275212,-16.76241 -0.983081,-33.56836 -0.98946,-50.30372 1.826036,-7.15008 2.929013,-14.65183 5.204404,-21.58337 7.242764,-9.20804 14.633939,-18.28014 23.461289,-26.03669 5.723213,-5.6223 14.8407926,-12.22835 10.1761886,-21.37957 -6.0292486,-11.13857 -8.8001186,-23.24599 -4.2470006,-35.85651 4.8962049,-9.03537 -0.546612,-23.76969 13.3988787,-23.15629 5.2662658,-3.06637 11.6980553,-4.5526 16.6594753,-7.79877 2.534431,-3.29679 3.098357,-9.18759 8.216724,-9.08284 4.577644,-0.52888 5.37198,5.27199 8.041177,7.93608 2.10169,3.36648 6.931866,-2.59181 9.853301,1.84652 6.651988,-0.16788 13.794622,2.61646 19.86559,-1.0474 2.55886,-2.22315 7.343763,-5.01176 6.870607,-8.78293 -1.715235,-12.0685 -2.054833,-24.34479 -3.480414,-36.39304 -2.827429,-5.16327 -3.704258,-10.79504 -3.799255,-16.61459 l -2.065909,-25.68892 c -4.024244,-1.44246 -8.048489,-2.88493 -12.072733,-4.32739 3.257032,-2.46161 8.504581,-3.42206 8.486565,-8.35356 -1.406043,-2.38239 -6.249581,-5.11332 -9.421345,-5.60533 -10.315377,1.40291 -20.676424,1.14713 -31.04153,0.91484 z"
             id="path5688" /></g><g
           id="g7587"><path
             style="fill:#be6c1e;fill-opacity:1;stroke:none;stroke-width:0.3;stroke-dasharray:none;stroke-opacity:1"
             d="m 476.60907,299.77789 c -1.4073,2.09903 -8.54768,7.38331 -2.95229,6.90023 3.29844,0.4686 8.41837,2.34036 7.3196,5.95866 -1.45477,8.62588 -5.12423,16.94971 -4.9299,25.79896 1.39205,6.9157 0.24149,14.69685 4.27355,20.84083 2.84023,2.78167 6.9959,3.62604 10.55732,5.21179 5.22535,1.78842 10.48689,4.02659 16.062,4.27118 7.82595,-1.75264 15.23462,-4.98907 22.73215,-7.78216 3.56099,-3.99158 5.43813,-9.31465 5.26306,-14.65084 0.40398,-4.53578 3.62342,-9.34472 0.81406,-13.71551 -1.94258,-3.35534 -4.97324,-6.32407 -8.79195,-7.36217 -1.36978,2.2113 -2.73956,4.42261 -4.10934,6.63391 1.46955,-5.98044 2.93909,-11.96087 4.40864,-17.94131 -1.26073,0.13553 -3.09111,-1.05509 -3.91614,0.0948 -2.43729,3.33276 -4.87459,6.66551 -7.31189,9.99827 l 2.27604,4.97319 -5.27537,4.40408 c -0.76032,-4.23065 -1.52065,-8.46131 -2.28097,-12.69196 2.30685,-1.64214 4.61371,-3.28427 6.92056,-4.92641 1.34908,-4.29911 2.9423,-8.8519 2.44986,-13.34592 3.13406,1.06544 5.01041,5.00062 7.73345,6.18715 3.09508,-0.85069 6.17265,-1.96863 9.27862,-2.65286 2.50911,0.39938 5.01821,0.79875 7.52732,1.19813 1.37433,-2.56493 2.74865,-5.12985 4.12298,-7.69478 -3.78222,-0.81431 -7.5797,-1.96188 -11.35245,-2.56911 -3.60806,1.2128 -7.21613,2.4256 -10.82419,3.6384 -4.76978,-3.64169 -9.45256,-7.43831 -14.27662,-10.98334 -3.52885,-1.34432 -7.05769,-2.68863 -10.58654,-4.03295 -2.31837,4.7283 -4.63674,9.45661 -6.95511,14.18491 -4.79461,2.31892 -7.7671,3.62527 -12.56171,5.94419 -1.2642,-2.30063 -4.35054,-3.58869 -5.61474,-5.88932 z"
             id="path5875" /><path
             style="fill:#584236;fill-opacity:1;stroke:none;stroke-width:0.3;stroke-dasharray:none;stroke-opacity:1"
             d="m 512.79131,202.22429 c 0,0 -4.90795,-2.6568 -5.18145,-1.95143 -0.27351,0.70536 -1.25073,1.75458 -0.73638,2.98633 0.51436,1.23175 -0.914,2.8518 0.8018,3.61078 1.71581,0.75898 6.39172,-0.96944 7.6259,-2.00658 1.23419,-1.03715 3.83442,-2.22091 4.59594,-3.93802 0.76152,-1.7171 -0.53559,-1.79319 2.71182,-2.09047 3.24741,-0.29727 6.32586,0.93578 6.32586,0.93578 0,0 0.81413,0.48113 1.71645,1.71834 0.90232,1.23721 2.7889,3.78507 1.34606,4.90777 -1.44284,1.1227 -1.59108,1.18701 -3.35946,2.15931 -1.76839,0.97231 -4.42154,2.69884 -4.55519,3.56213 -0.13365,0.86329 -2.29511,-0.64137 -2.29511,-1.45264 0,-0.81126 -1.99948,-0.99038 0.52894,-2.20448 2.52842,-1.2141 8.15851,-3.86773 7.92985,-4.85965 -0.22865,-0.99191 0.18109,-4.055 -0.82818,-3.64683 -1.00926,0.40817 -3.78096,2.73845 -6.26108,3.35749 -2.48012,0.61903 -5.18486,1.44558 -5.43152,3.42211 -0.24665,1.97652 -9.0683,6.53171 -12.87583,5.16179 -3.80752,-1.36991 -12.91564,0.54991 -14.62084,-0.42382 -1.70521,-0.97372 -5.94929,1.10058 -5.6866,-3.50507 0.2627,-4.60566 -0.45898,-3.63785 2.14471,-5.73745 2.60368,-2.0996 5.16087,-4.70357 6.90386,-4.23784 1.74298,0.46573 -5.66065,0.10294 3.00373,0.53724 8.66437,0.43431 9.41609,-0.15836 12.24542,-0.0945 2.82932,0.0639 4.67464,1.37677 4.67464,1.37677 z"
             id="path6598" /><path
             style="fill:#584236;fill-opacity:1;stroke:none;stroke-width:0.3;stroke-dasharray:none;stroke-opacity:1"
             d="m 532.55186,196.42654 c 0.33749,7.60473 2.42626,8.29461 2.42626,8.29461 l 3.75714,-2.83471 -1.76664,-3.02533 z"
             id="path6600" /><path
             style="display:inline;fill:#584236;fill-opacity:1;stroke:none;stroke-width:0.3;stroke-dasharray:none;stroke-opacity:1"
             d="m 540.33913,211.89169 2.84166,2.2369 2.49975,12.89916 0.60882,13.44974 1.48341,9.89922 1.54536,11.35153 1.03448,13.0107 2.09927,10.44285 0.0381,9.22743 -3.32492,5.31706 c 0,0 -1.73754,0.008 -2.18614,-3.21363 -0.4486,-3.22172 -0.23087,-6.90857 -0.74588,-12.28486 -0.51501,-5.3763 0.79871,-6.87336 -1.00662,-12.25432 -1.80532,-5.38096 -1.10709,-5.32846 -2.87308,-6.59489 -1.766,-1.26642 -1.51459,-3.55784 -0.21796,-4.47196 1.29664,-0.91412 4.93056,-4.09337 -0.18166,-2.85187 -5.11221,1.2415 -10.04614,1.82883 -9.33611,-0.46083 0.71002,-2.28966 -1.40115,-1.80174 1.88585,-3.49031 3.287,-1.68857 6.19943,-1.2735 6.05903,-4.11169 -0.14041,-2.83819 0.0772,1.07463 -2.5375,-3.97344 -2.61464,-5.04806 -0.51649,-7.0583 -4.22001,-8.00615 -3.70353,-0.94785 -8.91096,-0.7172 -7.24785,-2.24313 1.66312,-1.52592 -0.80975,-1.28142 4.49694,-0.50806 5.30669,0.77336 9.23233,5.30471 8.22064,1.10226 -1.0117,-4.20246 0.46856,-6.17982 -2.56725,-5.62177 -3.03581,0.55806 -3.73509,1.7827 -4.76363,-0.32544 -1.02853,-2.10814 -6.32034,-2.51098 0.0113,-3.20991 6.33162,-0.69893 7.69866,3.08296 6.33162,-0.91184 -1.36703,-3.99481 -2.73932,-2.84554 -1.66431,-5.65098 1.07502,-2.80545 2.65119,-4.22178 0.32236,-4.66279 -2.32883,-0.441 -4.80707,3.37601 -2.32883,-0.60237 2.47823,-3.97839 1.12698,-4.76983 5.72317,-3.48661 z"
             id="path6602" /></g><path
           style="display:inline;fill:#be6c1e;fill-opacity:1;stroke:none;stroke-width:0.3;stroke-dasharray:none;stroke-opacity:1"
           d="m 449.50528,486.64868 c 6.33392,-10.45628 7.32512,-4.81541 7.20062,-20.3378 -0.12451,-15.52239 -1.12422,-34.88163 4.01127,-43.89249 5.1355,-9.01087 8.2846,-28.28088 20.83533,-32.50749 12.55072,-4.22662 28.71407,-14.44904 33.12626,-11.47682 4.41219,2.97221 28.69304,8.97002 28.69304,13.17373 0,4.2037 7.3868,19.39858 7.3868,22.84619 0,3.44762 -4.35337,10.36734 -0.5209,10.88406 3.83248,0.51672 9.47174,-11.77269 9.89215,4.87366 0.42041,16.64635 1.26904,27.96306 0.42041,32.90397 -0.84863,4.94092 -1.99963,24.38218 -1.99963,24.38218 l -44.07427,-0.36824 -36.29559,-0.97516 -3.63572,-13.24345 -3.65039,11.79566 -10.9246,4.00874 z"
           id="path6605" /><path
           style="display:inline;fill:#30282a;fill-opacity:1;stroke:none;stroke-width:0.3;stroke-dasharray:none;stroke-opacity:1"
           d="m 503.04681,402.23504 4.26741,1.52435 6.20226,-1.30154 6.99893,3.87044 4.03735,9.09641 c 0,0 -2.31109,14.05384 -2.31109,15.94052 0,1.88669 3.84414,-0.0338 3.84414,-0.0338 0,0 0.25852,-4.03547 2.65409,-3.87072 2.39556,0.16475 5.83857,-1.2248 6.13584,1.56622 0.29728,2.79102 3.38923,4.20002 5.65038,3.95772 2.26115,-0.2423 -3.20321,-0.42691 5.94381,-2.89192 9.14701,-2.465 11.62844,-11.14467 11.62844,-11.14467 l -7.35958,-5.78427 c 0,0 -1.72009,4.01523 -2.17609,6.48749 -0.456,2.47226 -2.79474,7.67418 -2.79474,7.67418 l -3.07018,0.16898 -0.86011,-4.84631 -7.7057,1.85584 -3.77708,-5.45686 3.05203,-0.98062 8.99315,1.56989 1.83302,-5.0208 v -4.7891 l -2.91979,-3.31932 -5.90034,-1.26642 -5.0662,2.94338 7.32249,1.64154 1.13787,3.21427 0.29728,2.66658 -1.77851,1.1724 -2.60132,-1.73081 -6.9477,1.48098 0.29923,-4.76853 -3.02706,-6.28842 c 0,0 -3.60971,-4.20985 -6.54134,-4.92289 -2.93162,-0.71303 -7.83902,-1.49906 -9.69991,-1.09709 -1.86089,0.40197 -5.76098,2.68288 -5.76098,2.68288 z"
           id="path6607" /><path
           style="display:inline;fill:#584236;fill-opacity:1;stroke:none;stroke-width:0.3;stroke-dasharray:none;stroke-opacity:1"
           d="m 551.84755,202.04452 -0.26026,14.7806 5.06279,37.46207 4.91495,32.53279 2.4238,8.10836 1.02457,-0.82715 -0.99808,-13.84542 -4.73133,-35.03493 -3.81859,-30.35323 z"
           id="path7335" /><path
           style="display:inline;fill:#584236;fill-opacity:1;stroke:none;stroke-width:0.3;stroke-dasharray:none;stroke-opacity:1"
           d="m 601.30261,443.22342 c 0,0.86996 -1.77957,8.53658 -1.77957,8.53658 l 0.71103,18.77138 -0.19819,17.73354 3.43649,-0.22878 -0.40461,-25.06293 -0.8379,-15.97846 z"
           id="path7544" /></g><g
         id="g7634"
         style="stroke-width:0;stroke-dasharray:none"><path
           style="display:inline;fill:#d2c2a6;fill-opacity:1;stroke:#30282a;stroke-width:0;stroke-dasharray:none;stroke-opacity:1"
           d="m 542.71094,482.66016 c -5.62697,0.33388 -13.35472,0.65827 -19.72266,0.98046 -53.06598,2.58313 -106.14202,4.99476 -159.1875,7.97657 -22.94242,1.64356 -45.42963,6.88569 -68.08203,10.63476 -55.2906,10.23974 -110.52312,21.10481 -165.00781,35.07422 -5.88262,2.03656 -13.93124,2.63479 -16.16602,9.58203 -4.84106,16.74408 1.87244,33.82262 4.4336,50.37696 1.78393,11.17072 4.252,22.31107 4.35546,33.67187 -3.75218,6.48634 -12.85986,7.66891 -19.17968,11.34375 -14.824553,6.32106 -30.889201,8.78103 -46.402347,12.83984 -9.22787,1.73266 -18.509677,4.3181 -27.933594,4.23829 -8.690307,-0.97955 -17.828801,-1.16609 -25.7734371,-5.21289 -3.1870469,-4.05654 1.3778649,7.76833 2.8476562,9.85742 6.6513559,13.27296 19.0172929,22.12011 28.6757809,33.02734 14.186689,15.19333 28.943064,29.89079 42.513672,45.63672 7.515645,6.63458 2.787534,16.12 -1.52539,23.0918 -9.168077,16.08234 -19.941507,31.25087 -31.431641,45.73242 -8.805815,9.77962 -17.612153,19.55826 -26.417969,29.33789 23.413487,-6.02512 46.60078,-13.2271 70.4375,-17.40234 27.128549,-3.66183 55.135759,-5.91181 80.289059,-17.59571 10.01944,-4.69649 21.3448,-4.19589 31.81641,-1.48633 3.33696,0.66134 10.19765,1.90912 4.98438,-2.4707 -6.71057,-8.74753 -14.4392,-16.87415 -20.86915,-25.72656 l -8.24609,-24.7207 c 0.17507,-10.68134 -0.16866,-21.59523 -3.39844,-31.86133 50.89354,-9.24685 102.25854,-15.53325 153.42578,-23.01953 10.28791,-1.35987 20.67353,-0.22124 30.99219,-1.39063 24.31444,-1.63735 48.51773,-4.74681 72.89649,-5.39453 37.28144,-1.87645 74.5583,-3.82503 111.83593,-5.77539 37.28069,1.89097 74.56132,3.78061 111.84571,5.59766 24.37976,0.60888 48.58728,3.68068 72.90429,5.27929 10.32051,1.15295 20.70408,-0.004 30.99414,1.33985 51.17911,7.40475 102.55469,13.60963 153.46289,22.77539 -3.21342,10.27123 -3.53974,21.18614 -3.34765,31.86718 l -8.20703,24.73243 c -6.41584,8.86264 -14.1315,17.00155 -20.82813,25.75976 -5.20629,4.38812 1.65238,3.1315 4.98828,2.46485 10.46728,-2.72624 21.79145,-3.24693 31.81836,1.43359 25.17189,11.64381 53.18206,13.85014 80.31641,17.46875 23.84334,4.13726 47.04374,11.30125 70.46684,17.28906 -8.8214,-9.76559 -17.6435,-19.53129 -26.4649,-29.29687 -11.5132,-14.46323 -22.3122,-29.61198 -31.5058,-45.67969 -4.3241,-6.96492 -9.0657,-16.4433 -1.5606,-23.08984 13.5455,-15.76753 28.277,-30.48917 42.4395,-45.70508 9.6411,-10.92261 21.9928,-19.79068 28.623,-33.07422 1.4665,-2.09143 6.0126,-13.92099 2.832,-9.85938 -7.9381,4.05946 -17.0769,4.25856 -25.7656,5.25196 -9.4238,0.0948 -18.7088,-2.47542 -27.9394,-4.19336 -15.5196,-4.03409 -31.58927,-6.46624 -46.42387,-12.76367 -6.32567,-3.66477 -15.4328,-4.8341 -19.19531,-11.31446 0.0854,-11.36095 2.53465,-22.50418 4.30078,-33.67773 2.53478,-16.5584 9.22125,-33.64842 4.35352,-50.38477 -2.24585,-6.94367 -10.29579,-7.52945 -16.18164,-9.55664 -54.50688,-13.88259 -109.75566,-24.65891 -165.0625,-34.81054 -22.65835,-3.71298 -45.15461,-8.92034 -68.09961,-10.52735 -53.05017,-2.89729 -106.1292,-5.22408 -159.19922,-7.72265 -6.36845,-0.31206 -14.09712,-0.6243 -19.72461,-0.94922 z"
           id="path7559"
           transform="matrix(0.86876765,0,0,1,40.753886,0.77385497)"
           class="UnoptimicedTransforms" /><path
           d="m 264.43144,484.14652 c -7.5936,-5.63454 12.1872,1.44989 1.46028,0.64935 z m 14.88001,-2.45758 c 5.08718,-10.7638 16.94108,-17.37278 26.33665,-22.90958 5.8372,-4.99999 27.34321,-10.93598 15.33369,2.26734 -11.98117,10.94117 -26.44535,19.46519 -40.40627,21.1651 z m -22.72464,-0.57418 c -6.04323,-3.83504 7.72656,-0.75954 2.15088,0.727 l -1.03137,-0.24161 z m 6.92501,-8.55836 c -5.3549,-3.48 -17.84686,-9.74239 -12.59436,-18.78624 9.45387,-1.1861 18.00667,5.18926 20.44602,14.40999 1.49338,8.72891 -3.4914,6.99832 -7.85166,4.37625 z m 18.4358,-20.63882 c 9.20217,-20.27661 31.35389,-29.52721 47.90904,-28.00885 8.39445,5.42803 -11.78391,14.07742 -16.91497,16.56429 -10.33277,4.50892 -21.85212,8.03049 -31.43085,12.55633 z m -18.86869,-8.53019 c -7.49401,-3.69511 -15.54542,-10.22913 -15.01817,-20.96172 6.17249,-10.03376 14.94163,2.36023 19.4265,6.11107 5.30114,3.11007 10.81685,21.37172 -1.12042,16.15683 l -1.55745,-0.5925 z m 40.56835,-26.10074 c -10.3707,4.50363 -17.47746,-5.03762 -4.28921,-10.77626 12.55578,-5.74834 25.98499,-8.89522 38.06336,-7.57573 7.08769,5.66623 -11.28783,11.7112 -16.33321,13.84492 -5.7995,2.08934 -11.65884,3.72196 -17.44094,4.50707 z m -31.9651,0.74386 c -6.29689,-5.97082 -13.30717,-14.52866 -10.63643,-25.96662 7.69378,-8.59005 14.03282,6.2623 17.28282,11.62456 3.95838,6.82816 5.07537,27.06867 -6.64639,14.34206 z m 43.82075,-28.05068 c -9.99497,4.32775 -21.91441,-4.51959 -5.80459,-10.78134 10.69056,-4.68031 24.79804,-10.29363 33.01936,-3.75386 -5.33701,9.05922 -19.00588,12.35439 -27.21477,14.5352 z M 280.491,388.46308 c -4.5024,-5.15718 -12.33802,-20.72623 -1.85492,-26.18783 7.6081,4.50332 11.26026,14.5724 12.12419,24.5624 -0.18955,6.55094 -1.90542,14.55108 -6.35179,6.53693 -1.36442,-1.57574 -2.65674,-3.22851 -3.91748,-4.9115 z m 16.06301,-19.09312 c -3.39065,-7.60992 -8.32327,-18.10014 -2.56736,-27.91474 11.307,-2.00433 11.28671,17.37751 8.806,27.30374 -1.18502,7.6281 -4.75619,4.4762 -6.23864,0.611 z m 19.8242,-6.70605 c -8.50416,-6.2094 11.48421,-14.24585 17.32318,-14.48967 6.61864,-2.98668 22.82768,1.15223 8.98364,8.22454 -8.53693,4.03505 -18.14659,7.92682 -26.30682,6.26513 z m -7.35864,-22.36134 c -4.04369,-4.55866 -7.61893,-21.59357 2.0327,-22.57097 6.03438,6.95099 8.10952,19.07911 4.38251,30.18054 -3.38191,1.65103 -4.71716,-5.84618 -6.41521,-7.60957 z m 25.6069,-4.83107 c -16.1973,3.17254 3.73693,-16.54128 10.99667,-15.9653 5.62808,-0.8245 22.715,-4.4608 19.20568,5.15041 -9.13315,7.5798 -20.33677,9.77093 -30.20235,10.81489 z m -12.16523,-15.808 c -2.25409,-7.08643 12.60468,-9.41689 7.39679,1.16901 -3.94215,8.328 -5.91322,3.3784 -7.39679,-1.16901 z m 30.0127,-13.08344 c -14.49201,0.55382 4.4963,-15.4305 11.4532,-15.12888 m -15.85854,-18.7346 m 18.50192,8.62409 c -14.40496,-0.23638 7.03284,-13.94295 13.05495,-11.56661 16.15648,-1.71903 -6.21006,12.66334 -13.05495,11.56661 z m -9.82514,-9.49455 c -3.96957,-4.50943 -0.59833,-26.97997 5.36603,-15.40476 2.83165,4.28617 -0.0325,18.49404 -4.10022,18.90553 z m 19.65775,-8.62447 c -8.36422,-4.80426 17.29401,-15.91179 13.98538,-4.56544 -3.74477,4.48268 -9.71203,4.95704 -13.98538,4.56544 z m -8.22277,-5.49621 c -6.53717,-3.44042 0.81087,-24.75051 4.55825,-11.47959 2.11557,2.53497 0.60638,14.72346 -4.55825,11.47959 z m 13.16979,-7.39892 c -1.53305,-9.19396 22.30629,-13.68155 9.64277,-2.7195 -2.9787,1.815 -6.80842,3.91942 -9.64277,2.7195 z m -5.34372,-10.74231 c -3.30016,-4.56476 1.71306,-17.3388 5.04555,-7.55776 3.57453,3.63854 -2.03421,16.55046 -5.04555,7.55776 z m 11.39818,-1.80029 c -0.4295,-4.84225 8.95472,-24.60357 -0.53448,-14.04997 -5.95162,-5.46375 7.10538,-28.60069 10.79861,-18.62074 -1.6742,5.70272 -8.23841,14.12542 0.22506,12.6476 2.17173,4.12685 -10.45749,12.7535 -6.55144,12.58633 13.87162,-5.13567 1.94166,9.00331 -3.93774,7.43678 z M 682.026,484.14652 c 7.5936,-5.63454 -12.1872,1.44989 -1.46028,0.64935 z m -14.88001,-2.45758 c -5.08718,-10.7638 -16.94108,-17.37278 -26.33665,-22.90958 -5.8372,-4.99999 -27.34321,-10.93598 -15.33369,2.26734 11.98117,10.94117 26.44535,19.46519 40.40627,21.1651 z m 22.72464,-0.57418 c 6.04323,-3.83504 -7.72656,-0.75954 -2.15088,0.727 l 1.03137,-0.24161 z m -6.92501,-8.55836 c 5.3549,-3.48 17.84686,-9.74239 12.59436,-18.78624 -9.45387,-1.1861 -18.00667,5.18926 -20.44602,14.40999 -1.49338,8.72891 3.4914,6.99832 7.85166,4.37625 z m -18.4358,-20.63882 c -9.20217,-20.27661 -31.35389,-29.52721 -47.90904,-28.00885 -8.39445,5.42803 11.78391,14.07742 16.91497,16.56429 10.33277,4.50892 21.85212,8.03049 31.43085,12.55633 z m 18.86869,-8.53019 c 7.49401,-3.69511 15.54542,-10.22913 15.01817,-20.96172 -6.17249,-10.03376 -14.94163,2.36023 -19.4265,6.11107 -5.30114,3.11007 -10.81685,21.37172 1.12042,16.15683 l 1.55745,-0.5925 z m -40.56835,-26.10074 c 10.3707,4.50363 17.47746,-5.03762 4.28921,-10.77626 -12.55578,-5.74834 -25.98499,-8.89522 -38.06336,-7.57573 -7.08769,5.66623 11.28783,11.7112 16.33321,13.84492 5.7995,2.08934 11.65884,3.72196 17.44094,4.50707 z m 31.9651,0.74386 c 6.29689,-5.97082 13.30717,-14.52866 10.63643,-25.96662 -7.69378,-8.59005 -14.03282,6.2623 -17.28282,11.62456 -3.95838,6.82816 -5.07537,27.06867 6.64639,14.34206 z m -43.82075,-28.05068 c 9.99497,4.32775 21.91441,-4.51959 5.80459,-10.78134 -10.69056,-4.68031 -24.79804,-10.29363 -33.01936,-3.75386 5.33701,9.05922 19.00588,12.35439 27.21477,14.5352 z m 35.01193,-1.51675 c 4.5024,-5.15718 12.33802,-20.72623 1.85492,-26.18783 -7.6081,4.50332 -11.26026,14.5724 -12.12419,24.5624 0.18955,6.55094 1.90542,14.55108 6.35179,6.53693 1.36442,-1.57574 2.65674,-3.22851 3.91748,-4.9115 z m -16.06301,-19.09312 c 3.39065,-7.60992 8.32327,-18.10014 2.56736,-27.91474 -11.307,-2.00433 -11.28671,17.37751 -8.806,27.30374 1.18502,7.6281 4.75619,4.4762 6.23864,0.611 z m -19.8242,-6.70605 c 8.50416,-6.2094 -11.48421,-14.24585 -17.32318,-14.48967 -6.61864,-2.98668 -22.82768,1.15223 -8.98364,8.22454 8.53693,4.03505 18.14659,7.92682 26.30682,6.26513 z m 7.35864,-22.36134 c 4.04369,-4.55866 7.61893,-21.59357 -2.0327,-22.57097 -6.03438,6.95099 -8.10952,19.07911 -4.38251,30.18054 3.38191,1.65103 4.71716,-5.84618 6.41521,-7.60957 z m -25.6069,-4.83107 c 16.1973,3.17254 -3.73693,-16.54128 -10.99667,-15.9653 -5.62808,-0.8245 -22.715,-4.4608 -19.20568,5.15041 9.13315,7.5798 20.33677,9.77093 30.20235,10.81489 z m 12.16523,-15.808 c 2.25409,-7.08643 -12.60468,-9.41689 -7.39679,1.16901 3.94215,8.328 5.91322,3.3784 7.39679,-1.16901 z m -30.0127,-13.08344 c 14.49201,0.55382 -4.4963,-15.4305 -11.4532,-15.12888 m 15.85854,-18.7346 m -18.50192,8.62409 c 14.40496,-0.23638 -7.03284,-13.94295 -13.05495,-11.56661 -16.15648,-1.71903 6.21006,12.66334 13.05495,11.56661 z m 9.82514,-9.49455 c 3.96957,-4.50943 0.59833,-26.97997 -5.36603,-15.40476 -2.83165,4.28617 0.0325,18.49404 4.10022,18.90553 z m -19.65775,-8.62447 c 8.36422,-4.80426 -17.29401,-15.91179 -13.98538,-4.56544 3.74477,4.48268 9.71203,4.95704 13.98538,4.56544 z m 8.22277,-5.49621 c 6.53717,-3.44042 -0.81087,-24.75051 -4.55825,-11.47959 -2.11557,2.53497 -0.60638,14.72346 4.55825,11.47959 z m -13.16979,-7.39892 c 1.53305,-9.19396 -22.30629,-13.68155 -9.64277,-2.7195 2.9787,1.815 6.80842,3.91942 9.64277,2.7195 z m 5.34372,-10.74231 c 3.30016,-4.56476 -1.71306,-17.3388 -5.04555,-7.55776 -3.57453,3.63854 2.03421,16.55046 5.04555,7.55776 z m -11.39818,-1.80029 c 0.4295,-4.84225 -8.95472,-24.60357 0.53448,-14.04997 5.95162,-5.46375 -7.10538,-28.60069 -10.79861,-18.62074 1.6742,5.70272 8.23841,14.12542 -0.22506,12.6476 -2.17173,4.12685 10.45749,12.7535 6.55144,12.58633 -13.87162,-5.13567 -1.94166,9.00331 3.93774,7.43678 z"
           style="display:inline;fill:#584236;stroke:#ffffff;stroke-width:0;stroke-dasharray:none;stroke-opacity:1"
           id="path7601"
           transform="matrix(1.1021089,0,0,0.97044606,-13.045094,20.398636)"
           class="UnoptimicedTransforms" /></g><g
         aria-label="BeerJS Skopje"
         transform="translate(98.13883,-476.45264)"
         id="text8782"
         style="font-size:100px;fill:#30282a;stroke-width:0.3;stroke-dasharray:0.6, 0.3, 0.15, 0.3;stroke-opacity:0.00623498"><path
           d="m 114.05299,1134.1338 -13.81275,-70.9683 24.44136,-4.7571 q 6.96922,-1.3564 12.18412,-0.9961 5.2149,0.3604 8.83357,2.203 3.66776,1.833 5.81835,5.0311 2.15059,3.198 3.00076,7.566 0.48717,2.5031 0.19994,4.9531 -0.29677,2.4009 -1.47565,4.7188 -1.13936,2.2593 -3.229,4.347 -2.04057,2.0781 -5.10916,3.8469 15.26557,0.4417 17.70143,12.9569 0.87881,4.5152 -0.0939,8.6777 -0.97267,4.1625 -3.71648,7.6001 -2.75337,3.3884 -7.25744,5.895 -4.50406,2.5067 -10.68802,3.7103 z m 7.14605,-33.6857 4.05021,20.8095 13.3495,-2.5982 q 3.68093,-0.7165 6.01202,-2.087 2.33108,-1.3706 3.51688,-3.1296 1.23488,-1.7685 1.49081,-3.8558 0.30501,-2.0969 -0.12484,-4.3055 -0.44897,-2.3067 -1.53859,-3.9793 -1.09918,-1.7217 -2.91807,-2.6921 -1.82844,-1.0195 -4.4652,-1.2194 -2.58769,-0.2095 -6.0723,0.4687 z m -1.77675,-9.1287 10.50292,-2.0442 q 6.77291,-1.3182 9.73082,-4.4408 3.00699,-3.1322 1.96578,-8.4818 -1.07942,-5.546 -4.67899,-7.2904 -3.59958,-1.7444 -10.27432,-0.4453 l -11.2391,2.1875 z"
           style="font-weight:bold;font-family:Lato;-inkscape-font-specification:'Lato Bold'"
           id="path12254" /><path
           d="m 187.58254,1066.7448 q 4.76067,-0.9265 9.08128,-0.1884 4.3206,0.7382 7.78941,3.1193 3.45925,2.3321 5.90992,6.2867 2.49019,3.896 3.55051,9.3438 0.53493,2.7484 0.13703,3.8447 -0.40745,1.0471 -2.07614,1.3719 l -31.16519,6.0657 q 1.04911,3.82 2.68289,6.4564 1.62423,2.5873 3.75406,4.1085 2.12029,1.472 4.70665,1.9364 2.6259,0.4058 5.57064,-0.1673 2.94474,-0.5731 4.92141,-1.671 2.02574,-1.1074 3.43388,-2.2474 1.45722,-1.1496 2.50138,-2.066 1.09324,-0.9259 2.22206,-1.1456 1.52145,-0.2961 2.47734,0.6894 l 4.34433,3.7389 q -1.55373,2.7474 -3.74153,4.8542 -2.19735,2.0577 -4.75473,3.5742 -2.51785,1.4579 -5.28802,2.4046 -2.72108,0.9371 -5.37135,1.4529 -5.25146,1.0222 -10.10106,0.1832 -4.85916,-0.888 -8.85565,-3.6249 -4.00604,-2.786 -6.89447,-7.4195 -2.89798,-4.6826 -4.18755,-11.3083 -1.003,-5.1533 -0.21313,-9.9933 0.78031,-4.8891 3.22273,-8.8283 2.48194,-3.9978 6.56604,-6.8303 4.13318,-2.8419 9.77726,-3.9405 z m 1.93617,8.6393 q -5.30053,1.0316 -7.71166,4.6081 -2.41112,3.5766 -2.1756,9.2358 l 22.87083,-4.4514 q -0.45851,-2.3558 -1.54682,-4.2834 -1.04878,-1.9862 -2.67959,-3.2988 -1.63081,-1.3126 -3.86407,-1.7949 -2.19374,-0.5408 -4.89309,-0.015 z"
           style="font-weight:bold;font-family:Lato;-inkscape-font-specification:'Lato Bold'"
           id="path12256" /><path
           d="m 242.47293,1056.1835 q 4.79963,-0.6972 9.07986,0.2473 4.28023,0.9445 7.63085,3.4893 3.34343,2.4953 5.60162,6.5629 2.30048,4.011 3.0983,9.5033 0.40251,2.771 -0.0475,3.8468 -0.4572,1.0264 -2.13954,1.2708 l -31.42024,4.5641 q 0.86471,3.8659 2.37017,6.5776 1.49827,2.6623 3.5527,4.2838 2.04725,1.572 4.60837,2.16 2.60341,0.5312 5.57225,0.1 2.96884,-0.4313 4.99588,-1.4331 2.07652,-1.0089 3.53772,-2.0801 1.51067,-1.0784 2.59758,-1.9436 1.13639,-0.8724 2.27445,-1.0378 1.5339,-0.2228 2.44142,0.8075 l 4.16002,3.9429 q -1.6837,2.6698 -3.97003,4.6692 -2.29351,1.95 -4.92067,3.3421 -2.58488,1.3354 -5.39726,2.1482 -2.76289,0.8055 -5.43485,1.1936 -5.29443,0.7691 -10.09822,-0.3015 -4.81098,-1.12 -8.67161,-4.0454 -3.86782,-2.9749 -6.53071,-7.7416 -2.67007,-4.8162 -3.6404,-11.4961 -0.7547,-5.1955 0.26638,-9.9921 1.0139,-4.8461 3.64242,-8.6636 2.67082,-3.8741 6.88606,-6.5074 4.26471,-2.6405 9.95499,-3.4671 z m 1.51961,8.7221 q -5.34391,0.7763 -7.92379,4.2331 -2.57987,3.4567 -2.61603,9.1208 l 23.058,-3.3495 q -0.34501,-2.375 -1.33962,-4.3526 -0.95231,-2.0342 -2.5183,-3.4235 -1.56598,-1.3894 -3.77354,-1.9781 -2.16528,-0.6455 -4.88672,-0.2502 z"
           style="font-weight:bold;font-family:Lato;-inkscape-font-specification:'Lato Bold'"
           id="path12258" /><path
           d="m 281.36536,1104.8394 -4.35818,-51.1145 7.22379,-0.6159 q 1.89313,-0.1614 2.69989,0.4723 0.80251,0.584 1.20027,2.3064 l 1.19021,5.7196 q 2.05035,-4.7916 5.11754,-7.6625 3.06294,-2.9208 7.54667,-3.3031 3.53717,-0.3016 5.81107,1.0602 l -0.0113,9.2845 q -0.17264,0.918 -0.63685,1.359 -0.41864,0.387 -1.21575,0.4549 -0.74728,0.064 -2.2631,-0.058 -1.466,-0.1259 -2.86094,-0.01 -2.04258,0.1742 -3.58583,0.9079 -1.54324,0.7338 -2.74084,1.9901 -1.15203,1.2022 -2.01249,2.8814 -0.81064,1.6749 -1.48341,3.7897 l 2.68457,31.4857 z"
           style="font-weight:bold;font-family:Lato;-inkscape-font-specification:'Lato Bold'"
           id="path12260" /><path
           d="m 338.56643,1074.1691 q 0.51823,6.0779 -0.56007,11.0876 -1.0783,5.0097 -3.77436,8.7021 -2.64624,3.6882 -6.92299,5.9095 -4.27674,2.2214 -10.15541,2.7226 -2.69024,0.2294 -5.31058,0.1016 -2.61608,-0.078 -5.51525,-0.5334 -0.0204,-2.0055 0.009,-4.0153 0.0294,-2.0098 0.009,-4.0153 0.056,-1.1087 0.69826,-1.8159 0.68782,-0.7611 2.03294,-0.8758 0.84692,-0.072 2.22178,0.1618 1.42467,0.2298 3.51708,0.051 2.8397,-0.2421 4.96378,-1.2261 2.11983,-1.0339 3.41167,-2.9505 1.34166,-1.921 1.84683,-4.8244 0.50092,-2.9532 0.1526,-7.0384 l -3.98438,-46.7304 13.40138,-1.1427 z"
           style="font-weight:bold;font-family:Lato;-inkscape-font-specification:'Lato Bold'"
           id="path12262" /><path
           d="m 391.31113,1036.7278 q -0.54259,1.0808 -1.21465,1.6178 -0.62482,0.4843 -1.62337,0.5382 -1.04848,0.056 -2.33705,-0.6251 -1.24134,-0.7342 -2.99002,-1.5913 -1.74869,-0.8571 -4.08574,-1.4821 -2.28981,-0.6777 -5.38532,-0.5108 -2.79593,0.1508 -4.8552,0.9628 -2.06195,0.7622 -3.44523,2.0385 -1.33335,1.2737 -1.9408,3.0089 -0.61013,1.6853 -0.50244,3.6824 0.13731,2.5463 1.62682,4.1684 1.53943,1.6195 3.95064,2.6912 2.41121,1.0717 5.45801,1.8588 3.0468,0.7871 6.25146,1.7159 3.20197,0.8788 6.2757,2.1652 3.07103,1.2364 5.53608,3.3067 2.46236,2.0203 4.02995,5.0904 1.61751,3.0673 1.85982,7.5608 0.26385,4.8929 -1.20214,9.2782 -1.41876,4.3327 -4.49173,7.703 -3.02574,3.3178 -7.56938,5.4155 -4.54633,2.0477 -10.53763,2.3708 -3.44499,0.1858 -6.82782,-0.3328 -3.38014,-0.4687 -6.54295,-1.5499 -3.11289,-1.084 -5.9032,-2.6861 -2.79032,-1.602 -5.00304,-3.6358 l 3.59696,-6.6534 q 0.46158,-0.7259 1.23619,-1.2183 0.77191,-0.5424 1.67061,-0.5908 1.24818,-0.067 2.75262,0.9031 1.50174,0.9204 3.56615,2.0609 2.06441,1.1405 4.7671,2.0463 2.74993,0.8532 6.49449,0.6512 5.74166,-0.3096 8.7417,-3.1753 2.99735,-2.9156 2.72274,-8.0082 -0.15347,-2.8459 -1.69829,-4.5652 -1.49489,-1.722 -3.9061,-2.7937 -2.4139,-1.1216 -5.45531,-1.8089 -3.04142,-0.6872 -6.19077,-1.5188 -3.14935,-0.8317 -6.22038,-2.0681 -3.07104,-1.2364 -5.53878,-3.3566 -2.46775,-2.1202 -4.09603,-5.3873 -1.58105,-3.3196 -1.84759,-8.2625 -0.21269,-3.9442 1.13313,-7.7723 1.39576,-3.8307 4.23525,-6.888 2.83949,-3.0573 7.13887,-5.0417 4.29939,-1.9844 9.99112,-2.2913 6.39071,-0.3447 11.89057,1.3617 5.49986,1.7063 9.4882,5.0965 z"
           style="font-weight:bold;font-family:Lato;-inkscape-font-specification:'Lato Bold'"
           id="path12264" /><path
           d="m 474.68585,1038.3375 q -0.61882,1.039 -1.32771,1.5264 -0.65801,0.4382 -1.65784,0.4202 -1.04983,-0.019 -2.28612,-0.7914 -1.18539,-0.8214 -2.868,-1.8019 -1.68261,-0.9805 -3.96872,-1.7718 -2.23523,-0.8404 -5.33472,-0.8963 -2.79955,-0.05 -4.91182,0.6116 -2.11137,0.6121 -3.58275,1.7858 -1.42139,1.1746 -2.15191,2.8617 -0.72961,1.6371 -0.76564,3.6368 -0.0459,2.5496 1.3232,4.2745 1.41914,1.7259 3.74714,2.968 2.328,1.2421 5.3104,2.246 2.98239,1.0039 6.11207,2.1605 3.13057,1.1066 6.10396,2.6104 2.97429,1.4538 5.28427,3.6958 2.31089,2.192 3.65391,5.3667 1.39301,3.1756 1.31194,7.6749 -0.0883,4.8992 -1.86547,9.1679 -1.7263,4.2195 -5.03342,7.3605 -3.25623,3.0918 -7.93881,4.8577 -4.68167,1.716 -10.6807,1.6079 -3.44944,-0.062 -6.78629,-0.8224 -3.33774,-0.7103 -6.41472,-2.0159 -3.02698,-1.3048 -5.69502,-3.1031 -2.66803,-1.7984 -4.72896,-3.9859 l 4.06557,-6.3778 q 0.51253,-0.6908 1.3205,-1.1264 0.80888,-0.4855 1.70874,-0.4692 1.24979,0.022 2.68064,1.0984 1.43175,1.026 3.40891,2.3118 1.97715,1.2858 4.6078,2.3834 2.68155,1.0485 6.43094,1.1161 5.74907,0.1036 8.9472,-2.5393 3.19903,-2.6928 3.29091,-7.7919 0.0513,-2.8496 -1.36599,-4.6754 -1.36734,-1.8249 -3.69534,-3.0671 -2.3271,-1.2921 -5.3113,-2.196 -2.9842,-0.9039 -6.06568,-1.9596 -3.08148,-1.0557 -6.05577,-2.5095 -2.97429,-1.4538 -5.28337,-3.7458 -2.30909,-2.292 -3.6985,-5.6676 -1.33852,-3.4246 -1.24934,-8.3738 0.0712,-3.9494 1.68847,-7.6709 1.6673,-3.7205 4.71906,-6.566 3.05176,-2.8455 7.48258,-4.5159 4.43081,-1.6705 10.12989,-1.5678 6.39896,0.1153 11.76205,2.2123 5.36309,2.0969 9.09762,5.7648 z"
           style="font-weight:bold;font-family:Lato;-inkscape-font-specification:'Lato Bold'"
           id="path12266" /><path
           d="m 503.87074,1023.4976 -2.40246,42.4821 2.29633,0.1299 q 1.248,0.071 1.96382,-0.1895 0.76857,-0.307 1.57384,-1.2631 l 13.61894,-15.005 q 0.858,-1.0031 1.83754,-1.4986 1.02946,-0.4927 2.57699,-0.4052 l 11.28197,0.6381 -17.00016,18.119 q -1.82432,2.1504 -3.88889,3.2356 1.00598,0.8081 1.74824,1.8516 0.79218,1.0464 1.47606,2.237 l 15.66681,25.8257 -11.13221,-0.6295 q -1.44769,-0.082 -2.47061,-0.5905 -1.02009,-0.5584 -1.6484,-1.846 l -11.98091,-20.1586 q -0.63395,-1.1877 -1.36299,-1.5795 -0.72905,-0.3918 -2.22665,-0.4765 l -2.79554,-0.1581 -1.32686,23.4626 -12.3303,-0.6974 4.19514,-74.1814 z"
           style="font-weight:bold;font-family:Lato;-inkscape-font-specification:'Lato Bold'"
           id="path12268" /><path
           d="m 566.83099,1052.2607 q 5.65791,0.6914 10.04916,3.0918 4.44087,2.4065 7.30406,6.1817 2.91282,3.7813 4.10513,8.8634 1.19231,5.0822 0.45841,11.0875 -0.73996,6.055 -3.12107,10.7004 -2.38111,4.6455 -6.12487,7.6636 -3.69414,3.0242 -8.58384,4.2904 -4.84008,1.2723 -10.49799,0.5809 -5.70753,-0.6975 -10.14841,-3.104 -4.44088,-2.4065 -7.34763,-6.2374 -2.85713,-3.8248 -4.09907,-8.913 -1.19231,-5.0822 -0.45234,-11.1372 0.7339,-6.0053 3.11501,-10.6508 2.43073,-4.6394 6.1188,-7.6139 3.7377,-2.9686 8.62741,-4.2348 4.88971,-1.2662 10.59724,-0.5686 z m -5.2586,43.0298 q 6.35274,0.7764 9.90183,-3.1219 3.59872,-3.8922 4.60556,-12.1309 1.00683,-8.2387 -1.54259,-12.9326 -2.4998,-4.6879 -8.85254,-5.4642 -6.45199,-0.7885 -10.11248,3.1969 -3.60478,3.9418 -4.60556,12.1309 -1.00077,8.1891 1.54866,12.883 2.60512,4.6503 9.05712,5.4388 z"
           style="font-weight:bold;font-family:Lato;-inkscape-font-specification:'Lato Bold'"
           id="path12270" /><path
           d="m 593.1814,1124.8763 7.38758,-67.6478 7.50538,0.8197 q 2.38581,0.2605 2.88712,2.5786 l 0.47842,4.8305 q 3.46707,-3.1925 7.68226,-4.9452 4.2649,-1.7473 9.63299,-1.1611 4.17517,0.4559 7.4148,2.5701 3.28933,2.1197 5.41088,5.7213 2.17668,3.5573 2.98675,8.5749 0.86521,4.9733 0.18127,11.2361 -0.62422,5.716 -2.69701,10.4188 -2.07279,4.7027 -5.34647,7.9666 -3.22398,3.2693 -7.52229,4.8621 -4.24319,1.5485 -9.26334,1.0003 -4.32429,-0.4722 -7.21514,-2.0957 -2.83571,-1.6677 -4.96641,-4.2643 l -2.27978,20.8759 z m 30.2904,-56.2943 q -3.82725,-0.418 -6.74012,0.9237 -2.85774,1.2975 -5.51411,3.9749 l -2.4969,22.8641 q 1.80533,2.8126 4.12686,4.1223 2.37666,1.2655 5.25952,1.5804 2.78346,0.3039 5.13415,-0.4956 2.35069,-0.7995 4.12493,-2.7686 1.82395,-1.9635 3.02175,-5.1021 1.20323,-3.1882 1.68633,-7.6119 0.48852,-4.4734 0.0795,-7.6365 -0.35389,-3.2074 -1.48422,-5.2924 -1.13033,-2.085 -2.9711,-3.1914 -1.79106,-1.1009 -4.22658,-1.3669 z"
           style="font-weight:bold;font-family:Lato;-inkscape-font-specification:'Lato Bold'"
           id="path12272" /><path
           d="m 669.57544,1064.5763 -5.5502,52.7589 q -0.35049,3.3316 -1.55418,6.1713 -1.15397,2.8448 -3.32344,4.8287 -2.12497,2.0389 -5.38846,2.9525 -3.219,0.9685 -7.6943,0.4977 -1.7404,-0.1831 -3.20601,-0.5886 -1.47085,-0.3559 -3.00976,-1.0205 l 1.14327,-6.5664 q 0.2538,-0.9788 0.93162,-1.2092 0.67259,-0.1806 2.51244,0.013 1.83984,0.1936 3.12483,-0.073 1.32949,-0.2121 2.1643,-0.979 0.82958,-0.7171 1.26917,-2.0283 0.48932,-1.306 0.69857,-3.295 l 5.5502,-52.7589 z m 3.25477,-14.6901 q -0.16739,1.5912 -0.96029,2.9156 -0.79291,1.3243 -1.99673,2.2534 -1.15409,0.9344 -2.71386,1.4239 -1.50481,0.445 -3.14576,0.2724 -1.59122,-0.1674 -2.92076,-0.9106 -1.32431,-0.7929 -2.2587,-1.947 -0.93438,-1.1541 -1.43434,-2.6144 -0.45024,-1.4551 -0.28285,-3.0463 0.17263,-1.6409 0.92104,-3.0202 0.79814,-1.3741 1.95223,-2.3084 1.15409,-0.9344 2.60918,-1.3847 1.46032,-0.4999 3.05154,-0.3325 1.64094,0.1726 3.01498,0.9707 1.429,0.7537 2.36338,1.9078 0.98411,1.1593 1.47884,2.6693 0.49473,1.5101 0.3221,3.151 z"
           style="font-weight:bold;font-family:Lato;-inkscape-font-specification:'Lato Bold'"
           id="path12274" /><path
           d="m 703.92003,1067.385 q 4.82339,0.5074 8.73872,2.4779 3.91534,1.9704 6.53528,5.2626 2.62518,3.2424 3.81101,7.7412 1.2408,4.4543 0.66015,9.9738 -0.29295,2.7846 -0.99427,3.7164 -0.6961,0.882 -2.38677,0.7041 l -31.57576,-3.3217 q -0.1149,3.9597 0.67565,6.9588 0.79579,2.9495 2.38713,5.0274 1.59657,2.0282 3.93374,3.2293 2.39212,1.1566 5.37565,1.4704 2.98354,0.3139 5.19498,-0.1573 2.26116,-0.466 3.94131,-1.1439 1.72987,-0.6727 2.99652,-1.2434 1.31638,-0.5653 2.46007,-0.445 1.54149,0.1621 2.16706,1.3843 l 3.05972,4.8467 q -2.28985,2.1724 -4.99848,3.5465 -2.7034,1.3245 -5.59266,2.026 -2.8343,0.6571 -5.76023,0.7515 -2.87621,0.1 -5.56139,-0.1829 -5.32064,-0.5597 -9.71231,-2.7813 -4.38643,-2.2714 -7.40683,-6.0582 -3.01516,-3.8365 -4.42089,-9.1125 -1.40049,-5.3258 -0.69429,-12.0387 0.54927,-5.2212 2.7212,-9.6181 2.17716,-4.4467 5.66559,-7.4984 3.54339,-3.0963 8.27766,-4.6093 4.784,-1.5078 10.50244,-0.9062 z m -0.67727,8.8276 q -5.37037,-0.565 -8.72273,2.1492 -3.35236,2.7142 -4.78358,8.1945 l 23.17213,2.4377 q 0.2511,-2.3868 -0.22536,-4.5485 -0.42149,-2.2062 -1.59669,-3.9387 -1.17519,-1.7325 -3.16951,-2.8472 -1.93936,-1.1593 -4.67426,-1.447 z"
           style="font-weight:bold;font-family:Lato;-inkscape-font-specification:'Lato Bold'"
           id="path12276" /></g><text
         xml:space="preserve"
         style="font-style:normal;font-variant:normal;font-weight:bold;font-stretch:normal;font-size:26.6667px;font-family:Lato;-inkscape-font-specification:'Lato Bold';fill:#d2c2a6;fill-opacity:1;stroke:none;stroke-width:0.3;stroke-dasharray:0.6, 0.3, 0.15, 0.3;stroke-dashoffset:0;stroke-opacity:0.00623498"
         x="435.93616"
         y="859.19495"
         id="text11471"><tspan
           id="tspan11469"
           x="435.93616"
           y="859.19495"
           style="font-style:normal;font-variant:normal;font-weight:bold;font-stretch:normal;font-size:26.6667px;font-family:'Inconsolata g';-inkscape-font-specification:'Inconsolata g Bold'">est. 2017</tspan></text><text
         xml:space="preserve"
         style="font-style:normal;font-variant:normal;font-weight:bold;font-stretch:normal;font-size:21.3333px;font-family:Lato;-inkscape-font-specification:'Lato Bold';text-align:center;text-anchor:middle;display:inline;fill:#d2c2a6;fill-opacity:1;stroke:none;stroke-width:0.3;stroke-dasharray:0.6, 0.3, 0.15, 0.3;stroke-dashoffset:0;stroke-opacity:0.00623498"
         x="520.24084"
         y="762.25964"
         id="text11471-9"><tspan
           id="tspan11469-9"
           x="520.24084"
           y="762.25964"
           style="font-style:normal;font-variant:normal;font-weight:bold;font-stretch:normal;font-size:21.3333px;font-family:'Inconsolata g';-inkscape-font-specification:'Inconsolata g Bold';text-align:center;text-anchor:middle">a community for beer</tspan><tspan
           x="520.24084"
           y="789.24628"
           style="font-style:normal;font-variant:normal;font-weight:bold;font-stretch:normal;font-size:21.3333px;font-family:'Inconsolata g';-inkscape-font-specification:'Inconsolata g Bold';text-align:center;text-anchor:middle"
           id="tspan11677">and JavaScript enthusiasts</tspan></text><path
         style="fill:none;stroke:#30282a;stroke-width:0.9;stroke-dasharray:none;stroke-opacity:1"
         d="m 148.02304,631.87171 8.92744,93.11427 29.49456,-4.08076 52.82745,-9.52593"
         id="path2797" /><path
         style="display:inline;fill:none;stroke:#30282a;stroke-width:0.9;stroke-dasharray:none;stroke-opacity:1"
         d="m 876.50547,631.3671 -8.92744,93.11427 -29.49456,-4.08076 -52.82745,-9.52593"
         id="path2797-3" /></g></g></svg>
